<?xml version="1.0" standalone="no"?>
<!DOCTYPE svg PUBLIC "-//W3C//DTD SVG 1.1//EN" "http://www.w3.org/Graphics/SVG/1.1/DTD/svg11.dtd" >
<svg xmlns="http://www.w3.org/2000/svg" xmlns:xlink="http://www.w3.org/1999/xlink" version="1.1">
<metadata>
Created by FontForge 20200314 at Fri Mar  6 03:32:21 2015
 By Unknown
Copyright (c) 2013 by Kimmy Design. All rights reserved.
</metadata>
<defs>
<font id="StationNo.2W00-No.2" horiz-adv-x="227" >
  <font-face 
    font-family="StationNo.2W00-No.2"
    font-weight="400"
    font-stretch="normal"
    units-per-em="1000"
    panose-1="2 0 0 0 0 0 0 0 0 0"
    ascent="800"
    descent="-200"
    x-height="672"
    cap-height="812"
    bbox="49.5312 -232 1256 1141"
    underline-thickness="50"
    underline-position="-175"
    unicode-range="U+000D-2212"
  />
<missing-glyph horiz-adv-x="203" 
 />
    <glyph glyph-name=".notdef" horiz-adv-x="203" 
 />
    <glyph glyph-name="glyph1" horiz-adv-x="0" 
 />
    <glyph glyph-name="glyph1" horiz-adv-x="0" 
 />
    <glyph glyph-name="uni000D" unicode="&#xd;" horiz-adv-x="203" 
 />
    <glyph glyph-name="space" unicode=" " horiz-adv-x="203" 
 />
    <glyph glyph-name="exclam" unicode="!" 
d="M50 102l58 -12v-76l-58 -12v100zM176 2l-58 12v76l58 12v-100zM50 823l58 -29v-603l-58 -29v661zM118 191v603l59 29v-661z" />
    <glyph glyph-name="quotedbl" unicode="&#x22;" horiz-adv-x="271" 
d="M121 817l-11 -94h-24l4 94h31zM50 817h30l-4 -94h-21zM210 723h-24l4 94h31zM180 817l-4 -94h-21l-5 94h30z" />
    <glyph glyph-name="numbersign" unicode="#" horiz-adv-x="624" 
d="M426 573h-225v215l60 29v-186h108v186l57 -29v-215zM80 285h112v-248l-57 -30v218h-85zM545 573h-109v215l60 29v-186h78zM192 564v-270h-112l-30 58h85v152h-85l30 60h112zM436 294v270h109l29 -60h-78v-152h78l-29 -58h-109zM192 788v-215h-112l-30 58h85v186zM201 285
h225v-248l-57 -30v218h-108v-218l-60 30v248zM436 37v248h109l29 -60h-78v-218zM201 294v270h225v-270h-225zM369 504h-108v-152h108v152z" />
    <glyph glyph-name="dollar" unicode="$" horiz-adv-x="542" 
d="M262 -38l-54 -29v65q-34 9 -62.5 27.5t-49 43.5t-32 55.5t-11.5 64.5l57 -28q12 -50 53.5 -81t98.5 -31v-87zM262 58q-53 0 -91 27.5t-50 72.5l59 31q0 -32 28 -52v247q-29 23 -57.5 49t-51 57t-36 68.5t-12.5 84.5q1 32 13 61t32.5 53t49 41t62.5 26v68l54 -30v-65
q-35 0 -65.5 -10.5t-53 -28.5t-36 -43t-13.5 -54q0 -41 14 -74t37 -61.5t52.5 -53t59.5 -48.5q2 -2 3 -2.5t2 -1.5v-362zM418 188q-2 -59 -40.5 -93t-105.5 -36v353q28 -22 55 -45.5t47.5 -50.5t32.5 -58.5t11 -69.5zM364 183q0 26 -7 46.5t-23 40.5v-142q22 13 25.5 30
t4.5 25zM334 445q29 -23 58 -49.5t51.5 -59t35.5 -71t12 -84.5q-2 -73 -43.5 -121.5t-113.5 -64.5v-62l-62 29v87q72 2 112.5 39t42.5 100q1 40 -12 73.5t-35 62t-50 53t-58 47.5v363q27 -2 51 -13.5t43 -28.5t31.5 -39t17.5 -45l-51 -29q0 16 -8 30t-22 24v-241zM104 661
q0 27 12.5 50t34 40t50 27t61.5 10v-356q-31 24 -59.5 48t-51 51.5t-35.5 59t-12 70.5zM208 688q-14 -9 -22 -21t-8 -26q0 -45 30 -85v132zM425 661q-5 25 -18.5 48.5t-33.5 42.5t-45.5 31t-55.5 14v65l62 30v-68q34 -9 63 -27.5t50 -43.5t32.5 -56t11.5 -65z" />
    <glyph glyph-name="percent" unicode="%" horiz-adv-x="946" 
d="M719 435q24 0 45.5 -10.5t37.5 -28t25.5 -41.5t9.5 -51v-105q0 -27 -9.5 -51t-25.5 -41.5t-37.5 -28t-45.5 -10.5t-45.5 10.5t-37.5 28t-25.5 41.5t-9.5 51v105q0 27 9.5 51t25.5 41.5t37.5 28t45.5 10.5zM770 297q0 30 -15.5 51.5t-36.5 21.5q-20 0 -36.5 -21.5
t-16.5 -51.5v-96q0 -14 4.5 -27t12 -23t17 -16t19.5 -6q21 0 36.5 21.5t15.5 50.5v96zM718 496q37 0 69.5 -15.5t56.5 -42.5t38 -63t14 -78v-96q0 -41 -14 -77t-38 -63t-56.5 -43t-69.5 -16t-70 16t-57.5 43t-38.5 63t-14 77v96q0 42 14 78t38.5 63t57.5 42.5t70 15.5z
M846 304q0 29 -10 54.5t-27.5 44.5t-40.5 30t-49 11q-27 0 -50 -11t-40.5 -30t-27.5 -44.5t-10 -54.5v-105q0 -29 10 -54.5t27.5 -44.5t40.5 -30t50 -11q26 0 49 11t40.5 30t27.5 44.5t10 54.5v105zM602 789l-270 -754l-55 -28l285 810zM388 7l-45 30l269 751l62 29z
M409 526q0 -41 -14.5 -77t-39 -63t-57 -43t-69.5 -16t-69.5 16t-57 43t-38.5 63t-14 77v96q0 41 14 77t38.5 63t57 42.5t69.5 15.5t69.5 -15.5t57 -42.5t39 -63t14.5 -77v-96zM231 379q27 0 50 11t40.5 30t27.5 44.5t10 54.5v119q0 29 -10 54.5t-27.5 44.5t-40.5 30t-50 11
q-26 0 -49.5 -11t-41 -30t-27.5 -44.5t-10 -54.5v-119q0 -29 10 -54.5t27.5 -44.5t41 -30t49.5 -11zM231 768q25 0 46.5 -10t37.5 -28t25.5 -41.5t9.5 -50.5v-119q0 -27 -9.5 -50.5t-25.5 -41.5t-37.5 -28t-46.5 -10q-24 0 -45.5 10t-37.5 28t-25.5 41.5t-9.5 50.5v119
q0 27 9.5 50.5t25.5 41.5t37.5 28t45.5 10zM282 622q0 29 -15.5 50.5t-37.5 21.5q-21 0 -36.5 -21.5t-15.5 -50.5v-96q0 -29 15.5 -50.5t36.5 -21.5q22 0 37.5 21.5t15.5 50.5v96z" />
    <glyph glyph-name="ampersand" unicode="&#x26;" horiz-adv-x="641" 
d="M339 723q16 -18 12 -45t-20 -57t-39.5 -61.5t-46.5 -59.5q-11 20 -19.5 36t-14.5 27q-14 28 -17.5 54.5t1.5 49.5t17 41t29 29q9 6 20 10t23 4q31 0 55 -28zM264 688q-8 -7 -14.5 -19t-6.5 -26q0 -3 2.5 -14t12.5 -35q4 5 6.5 9t4.5 6q16 21 22 39.5t0 31.5q-5 12 -16 12
v1q-6 0 -11 -5zM210 447q8 9 16.5 18.5t16.5 18.5q18 -32 39.5 -70t44.5 -79t47 -83t47 -81q-8 -20 -18.5 -37.5t-24.5 -31.5q-45 -46 -114 -43q-104 6 -137 81q-14 33 -12 74t14.5 83t33.5 81.5t47 68.5zM356 158q-11 19 -23.5 38.5t-25.5 40.5q-22 36 -40 68t-33 62
q-26 -41 -43 -81.5t-17 -76.5q0 -30 10 -48.5t23 -28.5t26.5 -13.5t20.5 -4.5q27 -3 55 7.5t47 36.5zM494 168q20 -33 38 -61.5t31 -49.5t20.5 -33l7.5 -12l-63 -6q-14 25 -39.5 68.5t-56.5 97.5q11 29 19 64t12 77q3 31 3.5 58t0.5 46l57 29q0 -33 -2.5 -70t-6 -73.5
t-9 -70.5t-11.5 -61q-1 -1 -1 -3zM384 95q26 27 43 66q30 -53 55 -95t39 -66l-32 -50q-1 0 -19.5 27.5t-47.5 74.5q-38 -34 -86.5 -47.5t-94.5 -8.5q-35 4 -69.5 19.5t-61.5 42t-43.5 64t-16.5 87.5q0 34 9.5 70t26 71t38.5 70t47 68q-16 33 -25.5 57.5t-15 43t-7.5 31.5
t-2 23q0 38 16.5 73t45.5 60q50 41 108 33q38 -5 68 -27t45 -57q5 -12 9.5 -30.5t2.5 -42t-12.5 -52t-35.5 -60.5q-2 -5 -7.5 -11t-12.5 -13q-5 -8 -14.5 -19t-20.5 -23q17 -29 36 -64.5t45 -80.5q4 30 5 60t1 57l57 -30q0 -19 -0.5 -46.5t-3.5 -59t-9.5 -64.5t-17.5 -63
q-23 39 -46.5 80.5t-46.5 81.5t-44.5 77.5t-38.5 69.5q29 35 54 69.5t40 65.5t17 57t-14 45q-23 26 -53 30.5t-58 -14.5q-18 -12 -31 -31.5t-18.5 -43.5t-2 -52.5t18.5 -58.5q6 -12 15 -29t20 -37q-10 -11 -18.5 -21t-16.5 -19q-26 -30 -48 -69.5t-35 -82.5q-29 -97 -1 -164
q33 -82 145 -88q74 -3 120 46z" />
    <glyph glyph-name="quotesingle" unicode="'" horiz-adv-x="190" 
d="M121 817l19 -114h-24l-26 114h31zM50 817h30l26 -114h-21z" />
    <glyph glyph-name="parenleft" unicode="(" horiz-adv-x="302" 
d="M250 855q-45 -101 -67.5 -215t-22 -230t23.5 -230t68 -216l-60 18q-9 28 -23 75t-27 105t-22.5 123t-9.5 129q0 65 9.5 130.5t23 123.5t28 103.5t23.5 70.5zM186 846q-9 -26 -24 -71.5t-28.5 -104t-23.5 -124.5t-10 -132q0 -64 9.5 -129.5t22.5 -124t27.5 -106
t23.5 -75.5l-36 -28q-48 109 -72.5 226t-24.5 235.5t24.5 235.5t72.5 225z" />
    <glyph glyph-name="parenright" unicode=")" horiz-adv-x="302" 
d="M52 855l56 -13q9 -25 23 -70.5t27.5 -103.5t23.5 -123.5t10 -130.5q0 -64 -9.5 -129t-22.5 -123t-27 -105t-23 -75l-60 -18q45 102 68 216t23.5 230t-22 230t-67.5 215zM116 846l39 27q48 -108 72.5 -225t24.5 -235.5t-24.5 -235.5t-72.5 -226l-36 28q9 28 23.5 75.5
t27.5 106t22.5 124t9.5 129.5q0 66 -10 132t-23.5 124.5t-28.5 104t-24 71.5z" />
    <glyph glyph-name="asterisk" unicode="*" horiz-adv-x="382" 
d="M189 786v-92l-84 49l1 57l32 -18v33zM104 732l80 -46l-80 -46v5l-54 24l32 17l-32 18l54 23v5zM279 741l-80 -47v92l48 29v-33l30 17zM105 629l84 49v-95l-51 -29v35l-32 -17zM199 583v95l79 -46l-2 -59l-29 17v-36zM279 642l-76 44l77 44v-5l52 -22l-29 -17l28 -17
l-52 -21v-6z" />
    <glyph glyph-name="plus" unicode="+" horiz-adv-x="425" 
d="M207 470v-129h-127l-30 59h100v99zM80 332h127v-129l-57 -29v99h-100zM346 341h-129v129l59 29v-99h99zM217 203v129h129l29 -59h-99v-99z" />
    <glyph glyph-name="comma" unicode="," horiz-adv-x="186" 
d="M104 11q0 -7 -0.5 -15t-4 -15.5t-10.5 -13t-20 -7.5l-7 8q7 -1 13 3q5 3 9 9.5t4 20.5h-38l17 38h37v-28zM135 1q0 -18 -8 -32q-7 -12 -22 -21.5t-43 -9.5l9 13q16 2 24.5 9t12.5 16t4.5 18.5t0.5 16.5v37h-46l-17 33h85v-80z" />
    <glyph glyph-name="hyphen" unicode="-" horiz-adv-x="405" 
d="M355 476l-29 -59h-246l-30 59h305zM50 350l30 58h246l29 -58h-305z" />
    <glyph glyph-name="period" unicode="." horiz-adv-x="190" 
d="M98 18v48l42 17v-82zM50 83l38 -17v-48l-38 -17v82z" />
    <glyph glyph-name="slash" unicode="/" horiz-adv-x="509" 
d="M123 36l266 753l70 28l-284 -810zM336 817l43 -29l-266 -751l-63 -30z" />
    <glyph glyph-name="zero" unicode="0" horiz-adv-x="554" 
d="M306 812q41 0 77 -15.5t63 -42.5t42.5 -63t15.5 -77v-414q0 -41 -15.5 -77.5t-42.5 -63.5t-63 -42.5t-77 -15.5h-57q-41 0 -77.5 15.5t-63.5 42.5t-42.5 63.5t-15.5 77.5v414q0 41 15.5 77t42.5 63t63.5 42.5t77.5 15.5h57zM446 617q0 29 -11 54.5t-30 44.5t-44.5 30
t-54.5 11h-57q-29 0 -54.5 -11t-44.5 -30t-30 -44.5t-11 -54.5v-424q0 -29 11 -54.5t30 -44.5t44.5 -30t54.5 -11h57q29 0 54.5 11t44.5 30t30 44.5t11 54.5v424zM306 747q27 0 50.5 -10t41.5 -28t28 -41.5t10 -50.5v-424q0 -27 -10 -51t-28 -41.5t-41.5 -28t-50.5 -10.5
h-57q-27 0 -51 10.5t-41.5 28t-28 41.5t-10.5 51v424q0 27 10.5 50.5t28 41.5t41.5 28t51 10h57zM378 614q0 29 -21.5 50.5t-50.5 21.5h-57q-30 0 -51 -21.5t-21 -50.5v-414q0 -30 21 -51.5t51 -21.5h57q29 0 50.5 21.5t21.5 51.5v414z" />
    <glyph glyph-name="one" unicode="1" horiz-adv-x="368" 
d="M50 658l157 155h111v-813l-64 30v749l-139 -139zM121 634l123 122v-727l-53 -29v620l-51 -51z" />
    <glyph glyph-name="two" unicode="2" horiz-adv-x="511" 
d="M109 53h289l30 -53h-376l-1 62q-1 60 13.5 107t38.5 84.5t53 68t56 56.5q26 24 48 46.5t38.5 47.5t25.5 54.5t9 66.5q0 39 -23 66t-55 27q-16 0 -30 -8.5t-24.5 -22.5t-16.5 -33t-6 -40l-56 30q4 18 12 41.5t23 44t38.5 35t58.5 14.5q28 0 53 -11.5t43.5 -31t29.5 -46
t11 -57.5q0 -45 -11.5 -81.5t-31 -68t-44.5 -59.5t-52 -56q-27 -27 -53 -56t-46.5 -62t-32.5 -72.5t-11 -87.5v-5zM300 286q-41 -39 -72 -74.5t-44 -84.5h244l-30 -64h-280q0 46 12 83t32 69t45 60t51 55q27 27 52.5 55.5t46 60.5t32.5 70t11 85q0 33 -11.5 61.5t-31.5 49.5
t-46.5 33t-56.5 12q-38 0 -64 -16t-42 -39t-24.5 -48t-11.5 -44l-61 -28q0 48 16 90t43.5 73.5t65 49.5t79.5 18q43 0 80 -17t65 -46.5t44 -69.5t16 -86q1 -58 -13.5 -103t-37.5 -81.5t-52 -66.5t-57 -57z" />
    <glyph glyph-name="three" unicode="3" horiz-adv-x="555" 
d="M255 62q-24 0 -46 10.5t-40 29.5t-30.5 43.5t-16.5 53.5l60 31q0 -21 6 -40t16.5 -33t24.5 -22.5t30 -8.5q15 0 29 11t25 32.5t18 53.5t7 74q0 61 -13.5 97.5t-35 55.5t-48 25t-52.5 6h-139l178 205h-140l29 61h235l-178 -213h10q96 0 150 -59q58 -62 58 -185
q0 -51 -10.5 -94t-30.5 -74q-38 -60 -96 -60zM505 813l-197 -228q46 -19 80 -55q76 -79 76 -233q0 -128 -52 -208q-28 -44 -67.5 -67t-85.5 -23q-42 0 -79 18t-65 49.5t-44 73.5t-16 90l56 -27q8 -55 41 -96q43 -54 103 -54q32 0 59 17.5t46.5 48.5t30.5 74.5t11 96.5
q0 118 -54 184t-154 69l178 214h-255l-29 56h417z" />
    <glyph glyph-name="four" unicode="4" horiz-adv-x="576" 
d="M395 30v282h102l29 -57h-73v-254zM385 321h-226l226 418v-418zM327 382v155l-75 -155h75zM453 382h73l-30 -61h-101v436l-9 3l-243 -448h242v-282l-58 -29v254h-277l292 558h111v-431z" />
    <glyph glyph-name="five" unicode="5" horiz-adv-x="511" 
d="M252 62q-34 0 -63.5 18.5t-48.5 50.5q-10 16 -15.5 33.5t-7.5 36.5l60 30q0 -35 15 -62q11 -20 27.5 -31t34.5 -11q31 0 48 26q11 16 21.5 53t10.5 107q0 132 -48 167q-12 9 -28 12t-34 2t-36 -5t-34 -9l-82 -26v359h329l-29 -56h-244v-229l6 2q117 35 182 -12
q75 -56 75 -219q0 -117 -35 -177t-104 -60zM361 583q51 -38 75.5 -104t24.5 -166q0 -152 -54 -231q-27 -40 -66 -61t-87 -21q-53 0 -98 28t-74 78q-32 58 -32 125l57 -28q5 -43 24 -77q20 -35 52 -54t69 -19q25 0 51.5 9.5t48 36.5t35 75t13.5 125q0 169 -79 226
q-66 49 -183 16v206h234l29 -61h-203v-67q98 11 163 -36z" />
    <glyph glyph-name="six" unicode="6" horiz-adv-x="475" 
d="M357 204q0 -27 -9.5 -51t-26 -42t-38 -28.5t-46.5 -10.5q-24 0 -46 10.5t-38 28.5t-25.5 42t-9.5 51v161q0 27 9.5 51t25.5 42t38 28.5t46 10.5q25 0 46.5 -10.5t38 -28.5t26 -42t9.5 -51v-161zM298 368q0 29 -18 50.5t-43 21.5t-42.5 -21.5t-17.5 -50.5v-160
q0 -29 17.5 -50.5t42.5 -21.5t43 21.5t18 50.5v160zM237 810q39 0 73 -16t59.5 -43t40.5 -63.5t15 -77.5l-60 29q-3 25 -14 46.5t-28 37.5t-39 25t-47 9q-27 0 -50 -10.5t-40.5 -29t-27.5 -43t-10 -52.5v-257v-161v-7q0 -28 10 -52.5t27.5 -43t40.5 -29t50 -10.5t50.5 10.5
t41 29t27.5 43t10 52.5v7v161q0 29 -10 55t-27.5 45.5t-41 30.5t-50.5 11q-40 0 -72.5 -25t-46.5 -64v204q0 26 9.5 48.5t25.5 39.5t38 27t46 10q22 0 42.5 -8.5t36 -22.5t26 -34t13.5 -42l-57 -30q0 30 -18 51.5t-43 21.5t-42.5 -21.5t-17.5 -51.5v-54q27 10 60 10
q39 0 73 -15.5t59.5 -42.5t40.5 -63t15 -77v-160q0 -5 -1 -8h1q0 -41 -15 -77.5t-40.5 -63.5t-59.5 -43t-73 -16t-73 16t-59.5 43t-40 63.5t-14.5 77.5v8v160v242q0 41 14.5 77.5t40 63.5t59.5 43t73 16z" />
    <glyph glyph-name="seven" unicode="7" horiz-adv-x="580" 
d="M50 813h480l-81 -103q-16 -22 -34 -51q-16 -25 -35.5 -61t-39.5 -82q-18 -42 -37 -97t-34.5 -120t-25.5 -140.5t-10 -158.5l-59 29q2 81 13.5 155.5t27.5 139.5t35.5 119.5t38.5 97.5q21 49 41.5 87.5t36.5 65t26 41l10 14.5l6 8h-330zM390 747q-12 -17 -43.5 -69
t-66.5 -133q-19 -43 -38.5 -98.5t-36 -120.5t-27.5 -140t-13 -157l-59 -29q0 119 17.5 223t44 191t57.5 155.5t58 116.5h-233l29 61h311z" />
    <glyph glyph-name="eight" unicode="8" horiz-adv-x="507" 
d="M395 512q29 -27 45.5 -64.5t16.5 -79.5v-168q0 -41 -15.5 -77.5t-42.5 -63.5t-63.5 -42.5t-77.5 -15.5h-9q-41 0 -77.5 15.5t-63.5 42.5t-42.5 63.5t-15.5 77.5v168q0 42 16.5 79.5t45.5 64.5q-20 24 -32 54t-12 64q0 37 14.5 70.5t40 58t59 39t72.5 14.5q38 0 72 -14.5
t59 -39t39.5 -58t14.5 -70.5q0 -68 -44 -118zM399 380q0 25 -8.5 47.5t-23 40.5t-34 30.5t-42.5 18.5q39 12 64.5 45.5t25.5 76.5q0 27 -10 50t-27.5 40.5t-40.5 27.5t-49 10q-27 0 -50 -10t-40.5 -27.5t-27.5 -40.5t-10 -50q0 -43 25.5 -76.5t65.5 -45.5q-47 -11 -77.5 -49
t-30.5 -88v-186q0 -29 11 -55t30 -45t45 -30t55 -11h8q29 0 54.5 11t45 30t30.5 45t11 55v186zM371 639q0 -24 -9 -45.5t-25 -37.5t-37.5 -25.5t-45.5 -9.5t-45.5 9.5t-37.5 25.5t-25.5 37.5t-9.5 45.5t9.5 45.5t25.5 37.5t37.5 25.5t45.5 9.5t45.5 -9.5t37.5 -25.5
t25 -37.5t9 -45.5zM254 575q24 0 41.5 16t17.5 39t-17.5 39t-41.5 16q-25 0 -42.5 -16t-17.5 -39t17.5 -39t42.5 -16zM118 380q0 27 10.5 51t28.5 42t42 28.5t51 10.5h4h4q27 0 51 -10.5t41.5 -28.5t28 -42t10.5 -51v-186q0 -27 -10.5 -51t-28 -42t-41.5 -28.5t-51 -10.5h-8
q-27 0 -51 10.5t-42 28.5t-28.5 42t-10.5 51v186zM249 440q-30 0 -51 -21.5t-21 -50.5v-168q0 -30 21 -51.5t51 -21.5h9q30 0 51 21.5t21 51.5v168q0 29 -21 50.5t-51 21.5h-9z" />
    <glyph glyph-name="nine" unicode="9" horiz-adv-x="475" 
d="M118 617q0 27 9.5 50.5t25.5 41.5t38 28t46 10q25 0 46.5 -10t38 -28t26 -41.5t9.5 -50.5v-165q0 -27 -9.5 -51t-26 -41.5t-38 -28t-46.5 -10.5q-24 0 -46 10.5t-38 28t-25.5 41.5t-9.5 51v165zM177 458q0 -29 17.5 -50.5t42.5 -21.5t43 21.5t18 50.5v155q0 29 -17 50
t-41 23h-1h-2q-25 0 -42.5 -22t-17.5 -51v-155zM240 812q38 0 72 -16t59 -43t39.5 -63t14.5 -76v-1v-155v-258q0 -41 -15 -77.5t-40.5 -63.5t-59.5 -43t-73 -16t-73 16t-59.5 43t-40 63.5t-14.5 77.5l60 -29q3 -25 14 -46.5t28 -37.5t39 -25t46 -9q27 0 50.5 10.5t41 29
t27.5 43.5t10 53v263v165v3q0 28 -10 53t-27.5 44t-41 29.5t-50.5 10.5t-50 -11t-40.5 -29.5t-27.5 -43.5t-10 -53v-3v-165q0 -29 10 -55t27.5 -45t40.5 -30t50 -11q41 0 73 25t47 63v-210q0 -26 -9.5 -49.5t-26 -40.5t-38 -27t-46.5 -10q-22 0 -42 8.5t-35.5 23t-26 34
t-13.5 42.5l57 30q0 -30 17.5 -51.5t42.5 -21.5t43 21.5t18 51.5v70q-30 -11 -61 -11q-39 0 -73 15.5t-59.5 42.5t-40 63.5t-14.5 77.5v155v1q0 41 14.5 77t40 63t59.5 42.5t73 15.5h3z" />
    <glyph glyph-name="colon" unicode=":" horiz-adv-x="190" 
d="M98 18v48l42 17v-82zM50 83l38 -17v-48l-38 -17v82zM98 436l42 17v-82l-42 17v48zM88 436v-48l-38 -17v82z" />
    <glyph glyph-name="semicolon" unicode=";" horiz-adv-x="200" 
d="M104 11q0 -7 -0.5 -15t-4 -15.5t-10.5 -13t-20 -7.5l-7 8q7 -1 13 3q5 3 9 9.5t4 20.5h-38l17 38h37v-28zM135 1q0 -18 -8 -32q-7 -12 -22 -21.5t-43 -9.5l9 13q16 2 24.5 9t12.5 16t4.5 18.5t0.5 16.5v37h-46l-17 33h85v-80zM108 436l42 17v-82l-42 17v48zM98 436v-48
l-38 -17v82z" />
    <glyph glyph-name="less" unicode="&#x3c;" horiz-adv-x="399" 
d="M272 648l-155 -248l152 -242l-35 -60l-184 300l192 305zM280 643l69 -6l-150 -239l142 -234l-63 -1l-150 237z" />
    <glyph glyph-name="equal" unicode="=" horiz-adv-x="405" 
d="M50 416l30 60h246l29 -60h-305zM50 264l30 60h246l29 -60h-305zM355 542l-29 -57h-246l-30 57h305zM355 391l-29 -58h-246l-30 58h305z" />
    <glyph glyph-name="greater" unicode="&#x3e;" horiz-adv-x="399" 
d="M127 648l30 55l192 -305l-184 -300l-35 60l152 242l-155 248v0zM119 643l152 -243l-150 -237l-63 1l142 234l-150 239l69 6v0z" />
    <glyph glyph-name="question" unicode="?" horiz-adv-x="510" 
d="M254 838q42 0 79.5 -17t65 -46.5t44 -69t16.5 -85.5q0 -57 -10 -99t-25.5 -73.5t-35 -55t-37.5 -43.5q-16 -18 -29.5 -35.5t-24 -39t-16 -49.5t-4.5 -67l-62 28q2 41 11 71.5t21.5 54t28 41.5t31.5 35q17 17 33.5 36t29 43.5t20.5 56.5t8 76q0 98 -48 144q-35 35 -96 35
q-40 -1 -66 -17t-42.5 -38.5t-24.5 -46.5t-11 -40l-60 -29q0 48 16.5 89.5t44 73t64.5 49.5t79 18zM388 600q0 -43 -7.5 -73.5t-19.5 -54t-28 -42t-33 -36.5t-33 -36.5t-29 -42.5t-22 -55.5t-11 -74.5l-54 -30q-1 58 9 101.5t25.5 76t35 56.5t37.5 44q16 18 30 35t23.5 38
t15 48t5.5 65q0 39 -23 66t-55 27q-16 0 -30 -8.5t-24.5 -22.5t-16.5 -33t-6 -40l-57 29q2 11 5.5 25.5t11.5 29.5q36 75 118 77q55 1 89 -31q44 -44 44 -138zM207 86v-73l-55 -12v100zM217 86l60 15v-100l-60 12v73z" />
    <glyph glyph-name="at" unicode="@" horiz-adv-x="775" 
d="M377 493q21 0 40 -10t32.5 -28t21.5 -41.5t8 -50.5v-151q0 -27 -8 -51t-21.5 -41.5t-32.5 -28t-40 -10.5t-39.5 10.5t-32 28t-21.5 41.5t-8 51v151q0 27 8 50.5t21.5 41.5t32 28t39.5 10zM417 348q0 33 -13 52.5t-23 19.5q-9 0 -21.5 -19.5t-12.5 -52.5v-144
q0 -34 12.5 -53t21.5 -19q10 0 23 19t13 53v144zM489 363v137l54 17v-169v-144v-84q0 -8 2 -12t3 -5h1q16 4 31 14.5t18 17.5v36h-1v228q0 56 -19 94.5t-48.5 62.5t-66.5 34.5t-73 10.5q-40 0 -78 -14t-68 -40t-48.5 -63.5t-18.5 -84.5v-250q0 -38 17.5 -72t47 -60.5t68 -42
t80.5 -15.5l-30 -55q-68 5 -111 29.5t-67 50.5q-31 32 -48 73t-17 81v288q0 34 8 61.5t20.5 49.5t27.5 39t30 29q37 29 83.5 45.5t94.5 16.5q47 0 93.5 -14.5t84.5 -40.5q42 -29 63.5 -67t21.5 -80v-330q0 -17 -9.5 -31.5t-24 -25.5t-32 -17.5t-34.5 -6.5q-23 0 -39 14
q-16 15 -16 45v99v151zM724 209h1v-76q0 -29 -14.5 -56.5t-40.5 -51.5q-23 -17 -47.5 -29.5t-49.5 -17.5q-6 -1 -12.5 -1.5t-12.5 -0.5q-46 0 -80 29q-9 7 -18 18q-32 -18 -69 -18q-34 0 -65.5 17.5t-54.5 49.5q-20 27 -30 61t-10 71v144q0 37 10 71t30 61q23 32 54.5 49
t65.5 17q47 0 85 -29l13 -14v-84q-13 37 -40 60.5t-62 23.5q-23 0 -43 -11t-35 -30t-24 -44.5t-9 -54.5v-151q0 -29 9 -55t24 -45t35 -30t43 -11q35 0 62 23.5t40 60.5v-42q0 -34 20 -52q17 -17 45 -17q19 0 38 7t35 19.5t26 29t10 35.5v330q0 47 -24 86t-63 66.5t-87.5 43
t-97.5 15.5q-51 0 -98.5 -16.5t-85.5 -47.5q-15 -12 -31 -29.5t-29 -40.5t-21 -52t-8 -64v-288q0 -42 17.5 -84t49.5 -76q12 -14 29.5 -27.5t40.5 -25.5t52 -20t64 -10l29 -62q-68 0 -129.5 25.5t-108.5 69t-74.5 101t-27.5 120.5v250q0 70 27.5 131.5t79.5 108.5
q47 42 107 65.5t126 23.5t125 -21t104 -61q105 -93 105 -247v-190z" />
    <glyph glyph-name="A" unicode="A" horiz-adv-x="548" 
d="M326 813l172 -813l-67 30l-50 239v3h-1l-99 470h-10l-102 -470h-1v-4l-52 -238l-66 -30l177 813h99zM276 719l94 -447h-191zM275 479l-29 -146h58zM177 262h195l50 -233l-53 -29l-40 206h-108l-42 -206l-53 29z" />
    <glyph glyph-name="B" unicode="B" horiz-adv-x="476" 
d="M360 486q30 -26 48 -64t18 -82v-148q0 -40 -15 -75t-40.5 -61t-59.5 -41t-73 -15h-188v24v102v280v127v152v66v60h175q34 0 64.5 -14t53.5 -38t38 -56.5t18 -69.5l2 -5v-15q0 -36 -11 -68.5t-30 -58.5zM367 360q0 47 -30 82t-75 43q35 14 57.5 49.5t22.5 80.5v8
q0 27 -9.5 51t-25.5 42.5t-37.5 29t-45.5 10.5h-116v-6v-4v-258v-10v-411v-9v-1h130q27 0 50.5 10.5t41 28.5t27.5 42t10 51v171zM332 615q0 -26 -8.5 -49t-23 -40.5t-33.5 -27.5t-41 -10h-108v258h106q22 0 41.5 -10t34.5 -26.5t23.5 -39t8.5 -47.5v-8zM177 543h49
q15 0 29 15.5t18 40.5v1v16q0 30 -15.5 49.5t-32.5 19.5h-48v-142zM118 478h108h12q25 0 47 -9t38 -25t25 -37.5t9 -46.5v-171q0 -25 -9.5 -47.5t-25.5 -39t-37.5 -26t-46.5 -9.5h-120v411zM177 406v-280h61q26 0 43.5 19.5t17.5 46.5v148q0 27 -17.5 46.5t-43.5 19.5h-61z
" />
    <glyph glyph-name="C" unicode="C" horiz-adv-x="499" 
d="M398 755q37 -37 51 -86l-61 14q-7 13 -15.5 24.5t-16.5 19.5q-20 19 -45 29.5t-53 10.5h-10q-29 0 -54.5 -11t-44.5 -29.5t-30 -44t-11 -53.5v-438q0 -28 11 -53t30 -43.5t44.5 -29.5t54.5 -11h10q35 0 67 18.5t52 49.5l68 10q-11 -29 -29.5 -53.5t-43 -41.5t-54 -26.5
t-60.5 -9.5h-9q-41 0 -77.5 15.5t-63.5 42.5t-42.5 63.5t-15.5 77.5v414q0 41 15.5 77t42.5 63t63.5 43t77.5 16h9q40 0 75.5 -15t64.5 -43zM258 757q53 0 92 -37q15 -15 28 -39l-50 -47q-7 19 -19 31q-23 21 -51 21h-9q-30 0 -51 -21t-21 -51v-414q0 -30 21 -51t51 -21h9
q23 0 41.5 13t26.5 35l44 -49q-19 -29 -49.5 -46.5t-62.5 -17.5h-10q-27 0 -50.5 10t-41.5 27.5t-28 41t-10 49.5v438q0 27 10 50t28 40.5t41.5 27.5t50.5 10h10z" />
    <glyph glyph-name="D" unicode="D" horiz-adv-x="490" 
d="M118 63v682h129q26 0 48.5 -9.5t39.5 -25.5t26.5 -37.5t9.5 -45.5v-444q0 -25 -9.5 -46.5t-26 -38t-38.5 -26t-47 -9.5h-132zM177 686v-559h73q26 0 44.5 19t18.5 47v429q0 26 -19 45t-46 19h-71zM248 813q40 0 75 -15t61 -41t41 -61t15 -74v-429q0 -40 -15 -75
t-40.5 -61.5t-60.5 -41.5t-74 -15h-189h-11v813h127h71zM381 627q0 26 -10.5 49t-28.5 40.5t-42.5 27.5t-52.5 10h-129h-10v-691v-9h142q27 0 51 10t41.5 27.5t28 41t10.5 50.5v444z" />
    <glyph glyph-name="E" unicode="E" horiz-adv-x="421" 
d="M118 376v369h221v-59h-162v-250h100l-29 -60h-130zM50 813h321l-29 -59h-234v-699h234l29 -54h-321v812zM118 64v303h130l29 -58h-100v-182h194l-29 -63h-224z" />
    <glyph glyph-name="F" unicode="F" horiz-adv-x="421" 
d="M342 754h-234v-754h-58v812h321zM118 0v366h130l29 -57h-100v-309h-59zM118 375v370h223l30 -59h-194v-250h100l-29 -61h-130z" />
    <glyph glyph-name="G" unicode="G" horiz-adv-x="507" 
d="M258 737q26 0 49.5 -9t42.5 -27q9 -8 18 -22l-40 -46q-7 19 -19 32q-23 21 -51 21h-9q-30 0 -51 -21.5t-21 -50.5v-415q0 -30 21 -51t51 -21h9q30 0 51 21t21 51v110h-94l29 54h124v-176q0 -26 -10.5 -48.5t-28 -39t-41.5 -26.5t-51 -10h-10q-27 0 -50.5 10t-41.5 26.5
t-28 39t-10 48.5v426q0 26 10 48.5t28 39.5t41.5 26.5t50.5 9.5h10zM236 436h221v-237q0 -41 -15.5 -77t-42.5 -63t-63.5 -42.5t-77.5 -15.5h-9q-41 0 -77.5 15.5t-63.5 42.5t-42.5 63t-15.5 77v415q0 41 15.5 77t42.5 63t63.5 42.5t77.5 15.5h9q81 0 140 -57q37 -37 51 -86
l-71 12q-10 16 -22 27q-41 39 -98 39h-10q-29 0 -54.5 -10.5t-44.5 -28.5t-30 -42.5t-11 -52.5v-426q0 -27 11 -51.5t30 -42.5t44.5 -28.5t54.5 -10.5h10q29 0 54.5 10.5t44.5 28.5t30 42.5t11 51.5v186h-133z" />
    <glyph glyph-name="H" unicode="H" horiz-adv-x="494" 
d="M376 375h-258v408l59 29v-376h141v375l58 -29v-407zM50 812l58 -29v-754l-58 -29v812zM118 366h258v-337l-58 -29v309h-141v-309l-59 29v337zM385 29v753l59 29v-811z" />
    <glyph glyph-name="I" unicode="I" 
d="M50 812l58 -29v-754l-58 -29v812zM118 29v754l59 29v-812z" />
    <glyph glyph-name="J" unicode="J" horiz-adv-x="499" 
d="M249 63q-27 0 -51 10.5t-42 29.5t-28 43.5t-10 53.5v146l59 29v-170q0 -32 21 -55.5t51 -23.5t51.5 23.5t21.5 55.5v607l58 -29v-583q0 -29 -10.5 -53.5t-28 -43.5t-41.5 -29.5t-51 -10.5zM389 783l60 29v-607q0 -42 -16 -79.5t-43 -65.5t-63.5 -44t-77.5 -16t-77.5 16
t-63.5 44t-42.5 65.5t-15.5 79.5v170l58 -29v-146q0 -30 11 -57t30 -47t45 -31.5t55 -11.5t54.5 11.5t44.5 31.5t30 47t11 57v583z" />
    <glyph glyph-name="K" unicode="K" horiz-adv-x="534" 
d="M50 812l61 -29v-753l-61 -30v319v57v436zM121 356l93 146l182 -472l-54 -30l-137 382l-28 -44v-338l-56 29v327zM396 784l88 29l-192 -297l185 -516l-71 29l-185 483zM384 783l-263 -409v409l56 29v-241l156 242z" />
    <glyph glyph-name="L" unicode="L" horiz-adv-x="421" 
d="M342 70h-224v713l59 30v-686h194zM108 783v-723h234l29 -60h-321v813z" />
    <glyph glyph-name="M" unicode="M" horiz-adv-x="573" 
d="M396 813v0h127v-19v-794l-59 29v730h-11l-168 -481l-168 481h-9v-730l-58 -29v786v27h125l2 -7l108 -335zM288 259l166 476v-706l-58 -29v403l-44 -137l-16 -50h-101l-16 50l-42 129v-395l-59 29v699l162 -466l1 -3h7z" />
    <glyph glyph-name="N" unicode="N" horiz-adv-x="532" 
d="M420 57v725l62 29v-811h-75h-51h-2l-176 471v-471l-59 29v709l292 -682zM119 763l-9 -2v-732l-59 -29v809l-1 4h1h127h7l171 -455v453l54 -29v-701z" />
    <glyph glyph-name="O" unicode="O" horiz-adv-x="507" 
d="M258 812q41 0 77.5 -15.5t63.5 -42.5t42.5 -63.5t15.5 -77.5v-413q0 -41 -15.5 -77.5t-42.5 -63.5t-63.5 -42.5t-77.5 -15.5h-9q-41 0 -77.5 15.5t-63.5 42.5t-42.5 63.5t-15.5 77.5v413q0 41 15.5 77.5t42.5 63.5t63.5 42.5t77.5 15.5h9zM401 618q0 29 -11 54.5
t-29.5 44t-44 29.5t-53.5 11h-13q-29 0 -54.5 -11t-44 -29.5t-29.5 -44t-11 -54.5v-428q0 -29 11 -54t29.5 -43.5t44 -29.5t54.5 -11h13q28 0 53.5 11t44 29.5t29.5 43.5t11 54v428zM263 747q27 0 50.5 -10t41 -27.5t27.5 -41t10 -50.5v-428q0 -27 -10 -50.5t-27.5 -41
t-41 -27.5t-50.5 -10h-13q-27 0 -50.5 10t-41 27.5t-27.5 41t-10 50.5v428q0 27 10 50.5t27.5 41t41 27.5t50.5 10h13zM330 613q0 30 -21 51t-51 21h-9q-30 0 -51 -21t-21 -51v-413q0 -30 21 -51t51 -21h9q30 0 51 21t21 51v413z" />
    <glyph glyph-name="P" unicode="P" horiz-adv-x="488" 
d="M373 455q0 -26 -9.5 -48t-26 -38.5t-38 -26t-46.5 -9.5h-132v414h132q25 0 46.5 -9.5t38 -26t26 -39t9.5 -47.5v-170zM251 398q25 0 43 19.5t18 46.5v157q0 27 -18 46t-43 19h-74v-288h74zM251 813q39 0 73 -15t59.5 -41t40 -61t14.5 -75v-157q0 -40 -14.5 -75t-40 -61
t-59.5 -41t-73 -15h-74v-272l-56 29v294h132q27 0 50.5 10.5t41 28.5t27.5 42t10 51v170q0 27 -10 51t-27.5 42t-41 28.5t-50.5 10.5h-142v-2v-8v-414v-10v-294l-61 -29v272v126v288v125v2h201z" />
    <glyph glyph-name="Q" unicode="Q" horiz-adv-x="538" 
d="M389 198q0 -27 -10.5 -50.5t-27.5 -40.5l-75 75l19 67l35 -36v401q0 30 -21 51t-51 21h-9q-30 0 -51 -21t-21 -51v-414q0 -27 16.5 -46.5t42.5 -24.5l-30 30l63 17l75 -76q-17 -15 -39 -24t-47 -9h-10q-27 0 -50.5 10.5t-41.5 28t-28 41.5t-10 51v419q0 27 10 51t28 41.5
t41.5 28t50.5 10.5h10q27 0 51 -10.5t41.5 -28t28 -41.5t10.5 -51v-419zM488 55l-66 -19l-64 64q19 19 29.5 44t10.5 54v419q0 29 -11 54.5t-30 44.5t-44.5 30t-54.5 11h-10q-29 0 -54.5 -11t-44.5 -30t-30 -44.5t-11 -54.5v-419q0 -29 11 -54.5t30 -44.5t44.5 -30t54.5 -11
h10q27 0 50.5 9t42.5 26l64 -64l-16 -63l-55 54q-41 -19 -86 -19h-9q-41 0 -77.5 15.5t-63.5 42.5t-42.5 63.5t-15.5 77.5v414q0 41 15.5 77t42.5 63t63.5 43t77.5 16h9q41 0 77.5 -16t63.5 -43t42.5 -63t15.5 -77v-414q0 -49 -22 -91z" />
    <glyph glyph-name="R" unicode="R" horiz-adv-x="491" 
d="M245 323q26 0 49 -10t40.5 -28t27.5 -41.5t10 -50.5v-163l-58 -29v199q0 30 -21 51t-51 21h-65v-272l-59 29v294h127zM370 455q0 -25 -9.5 -47.5t-26 -39t-38 -26t-46.5 -9.5h-132v414h132q25 0 46.5 -9.5t38 -26.5t26 -39.5t9.5 -47.5v-169zM177 399h74q25 0 43 19
t18 47v155q0 28 -18 47t-43 19h-74v-287zM438 465q0 -38 -13 -71.5t-36 -59.5q24 -26 38 -60.5t14 -73.5v-199l-59 29v163q0 48 -28.5 85t-71.5 50q42 11 69.5 46t27.5 81v169q0 27 -10 51t-27.5 42t-41 28.5t-50.5 10.5h-132h-10v-9v-414v-9v-295l-58 -29v272v127v287v127
h127h74q39 0 73 -15.5t59.5 -41.5t40 -61t14.5 -75v-155z" />
    <glyph glyph-name="S" unicode="S" horiz-adv-x="504" 
d="M293 458q27 -23 56 -50t52.5 -59.5t38 -72.5t13.5 -89q-2 -56 -22.5 -90t-41.5 -51q-54 -45 -136 -45q-42 0 -78.5 15.5t-63.5 41.5t-42.5 61.5t-15.5 75.5l60 -29q4 -24 17 -45t31.5 -36.5t41.5 -24t49 -8.5q66 0 103 34.5t39 96.5q1 40 -11 72t-32 59.5t-45.5 51
t-51.5 46.5t-51 46t-43.5 48.5t-30 55t-10.5 66.5q0 25 10.5 46.5t28.5 37.5t42 25.5t52 9.5q48 0 83.5 -29t45.5 -72l-55 -29q0 28 -21.5 47.5t-51.5 19.5q-32 0 -53.5 -17t-21.5 -42q0 -24 7.5 -45t22.5 -40.5t36.5 -39t48.5 -42.5zM252 62q-24 0 -45.5 8t-39 22t-29 33
t-15.5 41l56 29q0 -28 21.5 -47.5t52.5 -19.5q27 0 42 7t21.5 17t8 20.5t1.5 17.5q1 25 -7 46.5t-23 41.5t-37 40.5t-49 43.5t-55 49t-51.5 58t-38 71t-14.5 87q0 39 16 72.5t43.5 58t64 39t78.5 14.5q41 0 77.5 -15.5t63.5 -41.5t43 -61.5t16 -75.5l-62 29q-5 24 -17.5 44
t-31 34.5t-41.5 23t-49 8.5q-30 0 -55.5 -10t-45 -27t-31 -40.5t-11.5 -50.5q0 -38 12 -69.5t31.5 -58t44.5 -50t51 -45.5q27 -23 52 -46.5t44 -49.5t30 -57t10 -69q-1 -57 -36 -89t-96 -32z" />
    <glyph glyph-name="T" unicode="T" horiz-adv-x="468" 
d="M418 813l-28 -55h-311l-29 55h368zM389 748l29 -62h-120v-686l-59 29v719h150zM80 748h150v-719l-58 -29v686h-122z" />
    <glyph glyph-name="U" unicode="U" horiz-adv-x="507" 
d="M248 66q-27 0 -50.5 10.5t-41.5 28t-28 41.5t-10 51v587l59 29v-614q0 -30 21 -51t51 -21h9q30 0 51 21t21 51v614l59 -30v-586q0 -27 -10.5 -51t-28 -41.5t-41.5 -28t-51 -10.5h-10zM398 783l59 30v-614q0 -41 -15.5 -77.5t-42.5 -63.5t-63.5 -42.5t-77.5 -15.5h-9
q-41 0 -77.5 15.5t-63.5 42.5t-42.5 63.5t-15.5 77.5v614l58 -30v-586q0 -29 11 -54.5t30 -44.5t44.5 -30t54.5 -11h10q29 0 54.5 11t44.5 30t30 44.5t11 54.5v586z" />
    <glyph glyph-name="V" unicode="V" horiz-adv-x="525" 
d="M267 50l141 734l67 29l-148 -764l-9 -49h-111l-9 49l-148 764l66 -30l142 -733h9zM398 783l-136 -707l-137 708l54 29l83 -431l84 431z" />
    <glyph glyph-name="W" unicode="W" horiz-adv-x="760" 
d="M501 63l141 720l68 30l-148 -765l-9 -48h-111l-9 49l-53 283l-53 -283l-9 -49h-111l-9 48l-148 765l66 -30l140 -720h9l115 560l112 -560h9zM375 648l-114 -560l-136 695l54 30l82 -426l55 288l8 47h112l8 -47l55 -288l82 426l51 -30l-135 -695l-112 560h-10z" />
    <glyph glyph-name="X" unicode="X" horiz-adv-x="539" 
d="M204 887l2 -4h-13zM146 30l121 338l121 -338l-48 -30l-70 197l-70 -197zM405 783l-138 -387l-138 387l56 30l85 -239l85 239zM119 784l143 -402l-126 -353l-71 -29l138 385l-153 428zM416 784l73 29l-152 -428l138 -385l-76 29l-127 353zM428 887l11 -4h-13z" />
    <glyph glyph-name="Y" unicode="Y" horiz-adv-x="537" 
d="M276 320l140 463l71 30l-153 -499v-314l-58 29v291zM406 783l-135 -447l-142 447l54 30l87 -277l84 277zM119 783l147 -465v-289l-58 -29v312l-158 501z" />
    <glyph glyph-name="Z" unicode="Z" horiz-adv-x="540" 
d="M355 813h135l-257 -686h225l-29 -64h-281l256 685l2 6h-287l-29 58h264zM136 60l-2 -7h295l29 -52h-273v-1h-135l257 685h-217l29 60h274z" />
    <glyph glyph-name="bracketleft" unicode="[" horiz-adv-x="368" 
d="M114 18v797h175l29 -62h-141v-681h141l-29 -54h-175zM104 824v-816h185l29 -63h-268v936h268l-29 -57h-185z" />
    <glyph glyph-name="backslash" unicode="\" horiz-adv-x="509" 
d="M50 817l63 -28l271 -752l-49 -30zM174 817l285 -810l-64 29l-271 751z" />
    <glyph glyph-name="bracketright" unicode="]" horiz-adv-x="368" 
d="M254 18h-175l-29 54h141v681h-141l29 62h175v-797v0zM264 824h-185l-29 57h268v-936h-268l29 63h185v816v0z" />
    <glyph glyph-name="asciicircum" unicode="^" horiz-adv-x="575" 
d="M50 721l235 199l240 -198l-79 -97l-159 131l-156 -131l-39 46v0l-3 4zM453 713l-165 136l-163 -138l6 -7l157 133l159 -131z" />
    <glyph glyph-name="underscore" unicode="_" horiz-adv-x="576" 
d="M50 -107l29 55h418l29 -55h-476zM526 19l-29 -61h-417l-30 61h476z" />
    <glyph glyph-name="grave" unicode="`" horiz-adv-x="190" 
d="M121 817l19 -114h-24l-26 114h31zM50 817h30l26 -114h-21z" />
    <glyph glyph-name="a" unicode="a" horiz-adv-x="491" 
d="M163 201h165l37 -172l-53 -29l-26 140h-79l-28 -140l-53 29zM247 584l79 -373h-161zM247 344l-16 -78h30zM313 672l128 -672l-66 30l-123 578h-9l-127 -578l-66 -30l132 672h131z" />
    <glyph glyph-name="b" unicode="b" horiz-adv-x="427" 
d="M287 511q0 -21 -7 -40.5t-18.5 -34t-27 -23.5t-32.5 -9h-84v204h85q18 0 33 -7.5t26.5 -21t18 -31t6.5 -37.5zM176 458h27q6 0 16 13.5t10 34.5q0 17 -8 28.5t-17 11.5h-28v-88zM118 395h84h11q19 0 36.5 -8.5t30.5 -22.5t20.5 -32t7.5 -38v-133q0 -20 -7.5 -37
t-20.5 -30t-30.5 -20.5t-36.5 -7.5h-95v329zM176 127h38q14 0 25 12t11 29v122q0 17 -11 28.5t-25 11.5h-38v-203zM356 506q0 -54 -27 -98q22 -23 35 -53t13 -65v-122q0 -35 -13 -65t-35 -53t-52 -36t-63 -13h-164v126h1v203h-1v2v125v1h1v196v19h153q31 0 59 -13t48.5 -36
t32.5 -53.5t12 -64.5zM317 294q0 19 -6.5 37t-18 32t-26.5 24.5t-33 14.5q27 13 45.5 43t18.5 66q0 22 -7.5 41t-20 33.5t-30 23t-36.5 8.5h-94v-5h-1v-208v-9v-329v-4v-5h105q22 0 41 8t33 22.5t22 33.5t8 40v133z" />
    <glyph glyph-name="c" unicode="c" horiz-adv-x="443" 
d="M349 622q32 -32 44 -75l-73 13q-3 5 -7 9.5t-9 9.5q-33 31 -79 31h-7q-24 0 -44.5 -8.5t-35.5 -23t-24 -34t-9 -41.5v-338q0 -22 9 -41.5t24 -34.5t35.5 -23.5t44.5 -8.5h7q29 0 53 12.5t40 34.5l72 10q-19 -51 -63 -82.5t-98 -31.5h-8q-35 0 -66.5 13.5t-54.5 37
t-36.5 54.5t-13.5 67v327q0 36 13.5 67.5t36.5 55t54.5 37t66.5 13.5h8q70 0 120 -50zM298 572q8 -8 14 -17l-40 -43q-2 6 -5 10.5t-7 9.5q-15 13 -31 13h-8q-18 0 -31 -13.5t-13 -32.5v-327q0 -18 13 -31.5t31 -13.5h8q14 0 25.5 8t16.5 22l40 -46q-14 -20 -37 -32t-49 -12
h-7q-21 0 -40 7.5t-33.5 21t-22.5 31.5t-8 38v338q0 20 8 38t22.5 31t33.5 20.5t40 7.5h7q42 0 73 -28z" />
    <glyph glyph-name="d" unicode="d" horiz-adv-x="436" 
d="M118 71v535h102q20 0 38 -7t31.5 -19.5t21 -29.5t7.5 -36v-349q0 -20 -7.5 -37t-20.5 -29.5t-30.5 -20t-37.5 -7.5h-104zM177 127h46q15 0 26 12t11 29v338q0 16 -11.5 27t-27.5 11h-44v-417zM221 671q34 0 64 -13t52.5 -35.5t35.5 -52.5t13 -64v-338q0 -35 -13 -65.5
t-35 -53.5t-51.5 -36t-63.5 -13h-46h-127v671h127h44zM327 514q0 21 -8.5 39.5t-23 32t-34 21.5t-41.5 8h-102h-10v-554h10h104q22 0 41 8t33 22.5t22.5 33.5t8.5 40v349z" />
    <glyph glyph-name="e" unicode="e" horiz-adv-x="381" 
d="M108 613v-562h194l29 -50h-281v670h281l-29 -58h-194zM118 61v239h97l29 -57h-67v-116h154l-29 -66h-184zM118 310v293h184l29 -59h-154v-174h67l-29 -60h-97z" />
    <glyph glyph-name="f" unicode="f" horiz-adv-x="380" 
d="M118 309v299h183l29 -63h-153v-177h66l-29 -59h-96zM301 617h-193v-616h-58v671h280zM118 1v298h96l29 -58h-66v-240h-59z" />
    <glyph glyph-name="g" unicode="g" horiz-adv-x="449" 
d="M210 372h189v-199q0 -36 -13.5 -67.5t-36.5 -55t-54 -37t-67 -13.5h-7q-35 0 -66.5 13.5t-54.5 37t-36.5 55t-13.5 67.5v327q0 36 13.5 67t36.5 54.5t54.5 37t66.5 13.5h7q35 0 65.5 -13t55.5 -37q15 -16 26.5 -35t17.5 -40l-69 14q-4 5 -8 10.5t-9 10.5q-34 31 -79 31
h-8q-23 0 -43.5 -8.5t-35.5 -23.5t-24 -35t-9 -42v-342q0 -23 9 -42.5t24 -34t35.5 -23t43.5 -8.5h8q23 0 43.5 8.5t35.5 23t24 34t9 42.5v150h-100zM228 603q42 0 72 -28q8 -8 14 -17l-43 -46q-3 13 -12 20q-12 13 -31 13h-7q-18 0 -31 -13t-13 -32v-327q0 -20 13 -33
t31 -13h7q19 0 32 13t13 33v73h-63l30 57h91v-141q0 -21 -8 -39t-22 -31.5t-33 -21t-40 -7.5h-8q-21 0 -39.5 7.5t-32.5 21t-22 31.5t-8 39v342q0 21 8 39t22 31.5t32.5 21t39.5 7.5h8z" />
    <glyph glyph-name="h" unicode="h" horiz-adv-x="441" 
d="M322 310h-204v332l59 30v-301h87v301l58 -29v-333zM332 29v613l59 30v-672zM50 672l58 -29v-614l-58 -29v672zM118 301h204v-272l-58 -29v244h-87v-244l-59 29v272z" />
    <glyph glyph-name="i" unicode="i" 
d="M50 672l58 -30v-613l-58 -29v672zM118 29v614l59 29v-672z" />
    <glyph glyph-name="j" unicode="j" horiz-adv-x="449" 
d="M340 643l59 29v-467q0 -42 -13.5 -79.5t-37.5 -65.5t-55.5 -44t-67.5 -16t-68 15t-56 40.5t-37.5 60.5t-13.5 74v126l58 -30v-97q0 -28 9 -53t25 -43.5t37 -29t45 -10.5t45 11.5t37 31.5t25 46t9 56v445zM224 63q-22 0 -41.5 10t-33.5 27t-22.5 40t-8.5 49v97l59 30v-126
q0 -26 14 -44.5t34 -18.5q17 0 32 22.5t15 55.5v467l58 -29v-445q0 -28 -8.5 -52.5t-22.5 -43t-33.5 -29t-41.5 -10.5z" />
    <glyph glyph-name="k" unicode="k" horiz-adv-x="512" 
d="M118 254l94 144l133 -368l-48 -30l-97 268l-23 -36v-232l-59 29v225zM360 642l-242 -370v369l59 29v-205l134 207zM50 670l58 -30v-611l-58 -29v202v67v401zM373 643l89 29l-175 -270l144 -402l-75 29l-137 377l-2 -1z" />
    <glyph glyph-name="l" unicode="l" horiz-adv-x="381" 
d="M301 70h-183v572l59 30v-545h154zM108 642v-582h193l30 -60h-281v672z" />
    <glyph glyph-name="m" unicode="m" horiz-adv-x="514" 
d="M259 222l137 379v-572l-58 -29v275l-15 -46l-17 -50h-100l-17 50l-12 39v-79v-1v-188l-59 29v566l133 -370l1 -3h7zM333 672h5h126v-6v-666l-59 29v597h-11l-138 -385l-139 385h-9v-597l-58 -29v659v13h127h2l77 -238z" />
    <glyph glyph-name="n" unicode="n" horiz-adv-x="474" 
d="M118 611l-9 -2v-580l-58 -29v669l-1 3h1h127h7l112 -306v306l58 -29v-534zM365 86v556l59 30v-652v-11v-9h-25h-102h-1l-118 324v-324l-59 29v558l236 -501l1 -1l1 1h8z" />
    <glyph glyph-name="o" unicode="o" horiz-adv-x="451" 
d="M226 0q-36 0 -68 15.5t-56 42.5t-38 63.5t-14 77.5v274q0 41 14 77.5t38 63.5t56 42.5t68 15.5t68 -15.5t55.5 -42.5t37.5 -63.5t14 -77.5v-274q0 -41 -14 -77.5t-37.5 -63.5t-55.5 -42.5t-68 -15.5zM112 189q0 -29 9 -54t25 -43.5t37 -29.5t45 -11t45.5 11t37 29.5
t25 43.5t9.5 54v289q0 28 -9.5 53.5t-25 44t-37 29.5t-45.5 11t-45 -11t-37 -29.5t-25 -44t-9 -53.5v-289zM228 61q-22 0 -41.5 10t-34 27.5t-23 40.5t-8.5 50v289q0 27 8.5 50t23 40.5t34 27.5t41.5 10t41.5 -10t34 -27.5t23 -40.5t8.5 -50v-289q0 -27 -8.5 -50t-23 -40.5
t-34 -27.5t-41.5 -10zM177 199q0 -32 16 -52.5t33 -20.5t32.5 20.5t15.5 52.5v274q0 32 -15.5 52t-32.5 20t-33 -20t-16 -52v-274z" />
    <glyph glyph-name="p" unicode="p" horiz-adv-x="441" 
d="M326 377q0 -20 -7.5 -37.5t-21 -30.5t-31.5 -20.5t-38 -7.5h-107v326h107q20 0 38 -7.5t31.5 -20.5t21 -30.5t7.5 -37.5v-134zM226 347q16 0 27.5 11.5t11.5 27.5v121q0 16 -11.5 27.5t-27.5 11.5h-49v-199h49zM226 672q34 0 64 -13t52.5 -35.5t35.5 -52.5t13 -64v-121
q0 -34 -13 -64.5t-35.5 -53t-52.5 -35.5t-64 -13h-49v-220l-56 29v243h107q22 0 41.5 8t34 22.5t23 33.5t8.5 41v134q0 22 -8.5 41t-23 33.5t-34 23t-41.5 8.5h-107h-10v-10v-326v-9v-243l-61 -29v220v127v199v126h127h49z" />
    <glyph glyph-name="q" unicode="q" horiz-adv-x="479" 
d="M364 204q0 -32 -13.5 -59t-36.5 -45l-47 57l22 62l11 -14v267q0 30 -18 51.5t-43 21.5q-26 0 -44 -21.5t-18 -51.5v-272q0 -25 12.5 -44t32.5 -26l-17 22l52 3l50 -60q-31 -22 -69 -22q-26 0 -48.5 10.5t-39.5 28t-27 41.5t-10 51v260q0 27 10 51t27 41.5t39.5 28
t48.5 10.5t49 -10.5t40 -28t27 -41.5t10 -51v-260zM429 42l-60 -8l-49 59q24 20 38.5 48.5t14.5 62.5v260q0 29 -10.5 54.5t-29 44.5t-43 30t-52.5 11t-52.5 -11t-43 -30t-29 -44.5t-10.5 -54.5v-260q0 -29 10.5 -54.5t29 -44.5t43 -30t52.5 -11q41 0 75 23l46 -56l-15 -56
l-32 41q-35 -15 -73 -15q-39 0 -73.5 15.5t-60 42.5t-40.5 63.5t-15 77.5v272q0 41 15 77.5t40.5 63.5t60 42.5t73.5 15.5t73 -15.5t59.5 -42.5t40.5 -63.5t15 -77.5v-272q0 -64 -34 -113z" />
    <glyph glyph-name="r" unicode="r" horiz-adv-x="441" 
d="M220 262q21 0 39.5 -10t32.5 -28t22 -41.5t8 -50.5v-103l-58 -29v138q0 32 -16 52t-34 20h-37v-210l-59 30v232h102zM320 370q0 -20 -7.5 -38t-20.5 -31.5t-30.5 -21.5t-37.5 -8h-106v335h106q20 0 37.5 -8t30.5 -21.5t20.5 -31.5t7.5 -38v-137zM177 337h48q15 0 26 12.5
t11 29.5v124q0 17 -11 29t-26 12h-48v-207zM389 379q0 -32 -11 -60.5t-30 -50.5q20 -26 31.5 -59.5t11.5 -70.5v-138l-59 30v102q0 48 -23 84.5t-58 49.5q34 9 56.5 37.5t22.5 66.5v137q0 22 -8.5 42t-23 34.5t-33.5 23t-41 8.5h-116v-1v-8v-335v-9v-233l-58 -29v210v127
v207v126v1h175q34 0 63.5 -13t52 -36t35.5 -53.5t13 -65.5v-124z" />
    <glyph glyph-name="s" unicode="s" horiz-adv-x="451" 
d="M226 72q-35 0 -62 19t-38 48l53 28q0 -17 13.5 -29t33.5 -12q17 0 26.5 4t14 10t5.5 12.5t1 11.5q1 36 -23 63.5t-66 63.5q-23 19 -46.5 40.5t-43 48.5t-31.5 59.5t-12 73.5q0 33 14 62t37.5 50.5t55.5 34t68 12.5t67.5 -13t55.5 -36t37.5 -53.5t13.5 -64.5l-63 29
q-9 35 -39.5 59t-71.5 24q-24 0 -45.5 -8t-37 -21.5t-25 -32.5t-9.5 -40q0 -30 9.5 -55t25.5 -46t36 -39t41 -36q22 -18 42 -36t35.5 -38.5t24.5 -44.5t8 -54q-1 -45 -29 -69.5t-76 -24.5zM266 388q23 -20 47 -42t44 -49.5t32 -61t11 -75.5q-1 -36 -14 -65.5t-36 -50.5
t-54.5 -32.5t-69.5 -11.5q-36 0 -67.5 13t-55.5 36t-37.5 53t-13.5 65l64 -31q12 -32 42 -53t68 -21q53 0 83 27.5t32 76.5q1 31 -9 56.5t-26 47t-36.5 40t-41.5 36.5t-41 36t-35 38t-24 43t-9 52q0 39 31 65.5t76 26.5q36 0 64.5 -20.5t37.5 -52.5l-55 -29q0 17 -13.5 29
t-33.5 12t-34 -10.5t-14 -24.5q0 -17 6 -32t17 -29.5t27.5 -29.5t37.5 -32z" />
    <glyph glyph-name="t" unicode="t" horiz-adv-x="420" 
d="M50 672h320l-29 -55h-262zM215 29v578h125l30 -62h-96v-545zM80 607h125v-578l-58 -29v545h-97z" />
    <glyph glyph-name="u" unicode="u" horiz-adv-x="456" 
d="M227 66q-23 0 -42.5 10.5t-34.5 28t-23.5 41.5t-8.5 51v445l59 30v-473q0 -29 15.5 -50.5t35.5 -21.5t35.5 21.5t15.5 50.5v473l58 -30v-445q0 -27 -8.5 -51t-23.5 -41.5t-35 -28t-43 -10.5zM347 642l59 30v-473q0 -41 -14 -77.5t-38 -63.5t-56.5 -42.5t-69.5 -15.5
t-69.5 15.5t-56.5 42.5t-38 63.5t-14 77.5v473l58 -30v-445q0 -29 9.5 -55t25.5 -45t38 -30t46 -11q25 0 46.5 11t38 30t26 45t9.5 55v445z" />
    <glyph glyph-name="v" unicode="v" horiz-adv-x="470" 
d="M240 50l114 593l66 29l-120 -624l-10 -48h-110l-9 48l-121 624l66 -29l114 -593h10zM344 642l-109 -566l-110 566l54 30l56 -290l56 290z" />
    <glyph glyph-name="w" unicode="w" horiz-adv-x="661" 
d="M429 65l113 577l69 30l-121 -624l-9 -48h-110l-10 49l-30 164l-31 -164l-9 -49h-111l-9 48l-121 624l66 -30l113 -577l-1 -5h2v-2l4 1l3 -1l1 2h2l-1 5l90 445l91 -445l-1 -5h2v-2l4 1l3 -1v2h2zM324 535l-90 -446l-108 553l53 30l55 -286l32 170l9 48h111l9 -48l32 -170
l55 286l51 -29l-109 -554l-90 446l-5 -1z" />
    <glyph glyph-name="x" unicode="x" horiz-adv-x="490" 
d="M370 643l70 29l-128 -359l112 -313l-73 29l-101 280zM360 642l-115 -319l-114 319l54 30l60 -170l61 170zM120 643l120 -334l-100 -280l-74 -29l112 313l-128 359zM150 30l95 265l95 -265l-50 -30l-45 125l-44 -125z" />
    <glyph glyph-name="y" unicode="y" horiz-adv-x="481" 
d="M120 642l117 -373v-240l-58 -29v262l-129 410zM352 643l-110 -357l-113 357l54 29l58 -186l57 186zM247 270l115 372l69 30l-125 -409v-263l-59 29v241z" />
    <glyph glyph-name="z" unicode="z" horiz-adv-x="494" 
d="M341 604l-201 -551h242l29 -53h-225h-98h-38l38 98l10 28l162 420h-172l29 58h224zM395 672h49l-210 -546h177l-29 -63h-229l202 551h-238l-29 58h221h86z" />
    <glyph glyph-name="braceleft" unicode="{" horiz-adv-x="369" 
d="M229 769q12 13 26 13h34l30 -64h-49q-3 -5 -5.5 -13t-2.5 -19v-78q0 -45 -17.5 -94t-52.5 -81q16 -15 30 -35t24 -43.5t15.5 -49t5.5 -50.5v-94q0 -11 2 -19t4 -13h46l-29 -60h-20q-9 0 -20 5.5t-20.5 22.5t-16 48t-6.5 83q0 51 -11 89t-26 63.5t-30.5 40.5t-25.5 21
q7 5 21.5 18.5t29.5 35.5t25 52t8 69q-3 54 5 94t26 58zM197 228q0 -24 2.5 -53t10.5 -54.5t22 -43t38 -17.5h20l29 -58h-58q-28 0 -53 15t-42 44q-25 44 -25 100v94q0 13 -3.5 26.5t-8.5 25t-10.5 20t-10.5 11.5q-27 17 -42 41t-15 53q-1 27 13 51t40 41q4 3 9.5 11
t10.5 19.5t8.5 25.5t3.5 28v78q0 33 9.5 62t26 50.5t39 33.5t48.5 12h60l-28 -52h-36q-19 0 -33 -16q-20 -20 -28 -61t-5 -98q2 -41 -10 -72t-28 -52.5t-30.5 -33t-17.5 -13.5h-4v-7l3 -2h2q4 -2 18 -13t30 -34q29 -40 37 -84t8 -78z" />
    <glyph glyph-name="bar" unicode="|" 
d="M118 -33v900l59 29v-958zM50 896l58 -29v-900l-58 -29v958z" />
    <glyph glyph-name="braceright" unicode="}" horiz-adv-x="369" 
d="M140 769q18 -18 26 -58t5 -94q-2 -39 8 -69t25 -52t29.5 -35.5t21.5 -18.5q-10 -6 -25.5 -21t-30.5 -40.5t-26 -63.5t-11 -89q0 -52 -6.5 -83t-16 -48t-20.5 -22.5t-20 -5.5h-20l-29 60h46q2 5 4 13t2 19v94q0 25 5.5 50.5t15.5 49t24 43.5t30 35q-35 32 -52.5 81
t-17.5 94v78q0 11 -2.5 19t-5.5 13h-49l30 64h34q14 0 26 -13zM172 228q0 34 8 78t37 84q16 23 30 34t18 13h2l3 2v7h-4q-3 2 -17.5 13.5t-30.5 33t-28 52.5t-10 72q3 57 -5 98t-28 61q-14 16 -33 16h-36l-28 52h60q26 0 48.5 -12t39 -33.5t26 -50.5t9.5 -62v-78
q0 -14 3.5 -28t8.5 -25.5t10.5 -19.5t9.5 -11q26 -17 40 -41t13 -51q0 -29 -15 -53t-42 -41q-5 -3 -10.5 -11.5t-10.5 -20t-8.5 -25t-3.5 -26.5v-94q0 -56 -25 -100q-17 -29 -42 -44t-53 -15h-58l29 58h20q24 0 38 17.5t22 43t10.5 54.5t2.5 53z" />
    <glyph glyph-name="asciitilde" unicode="~" horiz-adv-x="564" 
d="M359 312q31 0 54 11.5t38 25.5l63 -18q-39 -42 -77 -60.5t-76 -19.5h-1q-35 0 -62 12.5t-47 26.5q-13 8 -24.5 14.5t-19.5 6.5q-5 0 -21 -7.5t-46 -36.5l-17 56q16 16 37.5 31.5t41.5 15.5q29 0 45.5 -9t32.5 -20q15 -11 32.5 -20t46.5 -9zM202 379q-23 0 -45 -15.5
t-39 -32.5l-68 26q81 81 156 81h1q35 0 62 -13t49 -27q13 -8 23.5 -14t18.5 -6q5 0 21 6.5t45 35.5l18 -64q-14 -13 -35.5 -23.5t-49.5 -10.5q-26 0 -42.5 8t-31.5 19q-16 11 -34 20.5t-49 9.5z" />
    <glyph glyph-name="exclamdown" unicode="&#xa1;" 
d="M50 567.006l58 12v75.9951l-58 11.999v-99.9941zM176 667l-58 -11.999v-75.9951l58 -12v99.9941zM50 -153.95l58 28.999v602.963l-58 28.998v-660.96zM118 478.012v-602.963l59 -28.999v660.96z" />
    <glyph glyph-name="cent" unicode="&#xa2;" horiz-adv-x="444" 
d="M222 574q-10 0 -19 -1t-18 -3v60l42 -28v-28h-5zM278 566q-10 3 -20.5 5t-21.5 2v29l42 28v-64zM222 -98q-21 0 -37 4v-88l42 29v55h-5zM236 -98q25 2 42 7v-91l-42 28v56zM260 434q9 -9 12 -20l6 6v-370l-7 9q-9 -25 -35 -30v417q13 -2 24 -12zM185 427q13 20 37 20h5
v-418h-5q-11 0 -21 5.5t-16 13.5v379zM311 12q-14 -19 -33 -29v67zM278 -28q24 12 40 34l72 10q-14 -39 -44 -67t-68 -40v63zM177 74q0 -13 8 -26v-74q-31 10 -50.5 35t-19.5 58v338q0 32 19.5 57t50.5 35v-70q-8 -11 -8 -26v-327zM105 67q0 -37 22.5 -65t57.5 -38v-58
q-29 6 -53.5 21.5t-42.5 38t-28.5 50t-10.5 58.5v327q0 31 10.5 59t28.5 50.5t42.5 38t53.5 21.5v-63q-35 -10 -57.5 -38t-22.5 -64v-338zM298 474q8 -8 14 -17l-34 -37v69q12 -7 20 -15zM304 481l-12 10t-14 8v67q41 -12 71 -42q33 -33 45 -75l-74 13q-3 5 -7 9.5t-9 9.5z
M236 29v-60q25 3 42 14v67l-7 9q-9 -25 -35 -30zM218 512q-16 0 -33 -5v63q9 2 18 3t19 1h5v-62h-2h-7zM236 573q11 0 21.5 -2t20.5 -5v-67q-20 10 -42 12v62zM222 447q-24 0 -37 -20v70q17 5 33 5h7h2v-55h-5zM236 502q24 -3 42 -13v-69l-6 -6q-3 11 -12 20q-11 10 -24 12
v56zM227 29v-60h-2h-7q-16 0 -33 5v74q6 -8 16 -13.5t21 -5.5h5zM236 -40q22 1 42 12v-63q-17 -5 -42 -7v58zM222 -98q-21 0 -37 4v58q17 -5 33 -5h7h2v-57h-5z" />
    <glyph glyph-name="sterling" unicode="&#xa3;" horiz-adv-x="545" 
d="M153 357h-73l-30 58h45v235q0 41 14.5 77.5t39 63.5t57 42.5t69.5 15.5q63 0 113 -44l-63 -27q-1 0 -2 1q-41 22 -78 10q-48 -15 -70 -59.5t-22 -125.5v-247zM163 347h135l29 -59h-105v-91q0 -40 -9 -71q32 1 64.5 1h58.5q11 0 16 3.5t8 10.5q5 8 6.5 17.5t1.5 12.5
l57 -29q-18 -72 -121 -72h-176q10 10 17 29.5t11 40.5t5.5 41.5t1.5 34.5v131zM304 61q113 0 131 80l60 30q0 -26 -8.5 -55.5t-27 -55.5t-49 -43t-74.5 -17q-32 0 -75 -0.5t-83 -1t-70.5 -1t-39.5 -1.5h-4l-1 127h1q3 1 8 6t10 14.5t9 22.5t4 31v91h-45l30 59h73v-131
q0 -23 -3 -48.5t-9 -47.5t-14.5 -36t-19.5 -14v-9h197zM248 780q21 7 40 2t33 -13l-18 -58q-5 5 -12 8.5t-16 3.5q-10 0 -19.5 -6t-17 -16t-12 -23.5t-4.5 -27.5v-235h105l-29 -58h-135v247q0 78 20 120t65 56z" />
    <glyph glyph-name="currency" unicode="&#xa4;" horiz-adv-x="507" 
d="M255 59q25 0 46 12t38 32l43 -83l-38 -56l-29 55q-30 -14 -62 -14q-31 0 -61 14l-29 -55l-39 56l46 85q16 -21 37.5 -33.5t47.5 -12.5zM162 111l-46 -85l-66 -4l54 105q-6 18 -9.5 37t-3.5 40v144q0 20 3.5 39t9.5 37l-54 104l64 -4l49 -93q-11 -17 -17.5 -39t-6.5 -46
v-147q0 -26 7.5 -49t20.5 -41zM457 528l-54 -104q12 -36 12 -76v-144q0 -41 -12 -77l54 -105l-67 3l-45 86q12 18 19 40.5t7 47.5v147q0 25 -7 47.5t-19 40.5l49 90zM255 487q-26 0 -48 -12.5t-38 -34.5l-47 89l41 57l29 -56q30 16 61 16q32 0 62 -16l29 56l40 -60l-45 -84
q-16 21 -37.5 33t-46.5 12zM174 431q15 21 36 33.5t45 12.5q22 0 41.5 -10t33.5 -28t22.5 -42t8.5 -51v-147q0 -27 -8.5 -50.5t-22.5 -41.5t-33.5 -28t-41.5 -10t-41 10t-33.5 28t-23 41.5t-8.5 50.5v147q0 50 25 84v1zM219 204q0 -34 13 -53t21 -19q9 0 22 19t13 53v144
q0 32 -13 52t-22 20q-8 0 -21 -20t-13 -52v-144z" />
    <glyph glyph-name="yen" unicode="&#xa5;" horiz-adv-x="534" 
d="M407 782l-140 -389l-138 389l54 30l86 -271l82 271zM376 387h-101l143 397l66 28l-129 -365h51zM158 199h104v-180l-57 -30v151h-76zM262 377v-169h-104l-29 58h76v54h-76l29 57h104zM272 19v180h104l30 -59h-75v-151zM118 784l141 -397h-101l-29 60h46l-125 365z
M272 208v169h104l30 -57h-73l-2 -9v-45h75l-30 -58h-104z" />
    <glyph glyph-name="brokenbar" unicode="&#xa6;" 
d="M117 495v258l60 29v-316zM50 782l58 -29v-258l-58 -29v316zM177 84l-60 29v256l60 30v-315zM50 399l58 -29v-257l-58 -29v315z" />
    <glyph glyph-name="section" unicode="&#xa7;" horiz-adv-x="654" 
d="M400 757q48 0 83 -26t46 -66l-53 -27q0 24 -21.5 41.5t-51.5 17.5q-32 0 -54 -15t-22 -37q0 -45 30 -78t84 -75q27 -22 56 -47.5t53 -56.5t39 -69t14 -86q-3 -88 -66 -136q-19 -15 -43 -25t-51 -13q9 -33 9 -70q-2 -85 -65 -135q-55 -41 -135 -41q-41 0 -77.5 14.5
t-63.5 39.5t-42.5 59t-15.5 72l61 -30q11 -43 48.5 -71.5t88.5 -28.5q66 0 103 32.5t39 89.5q1 42 -14.5 75t-39.5 61q27 -13 61 -13q66 0 103 32t39 89q1 37 -11 67t-32 55.5t-45.5 47.5t-51.5 43q-11 9 -21 17.5t-21 17.5q-4 4 -7 6q-37 32 -62 69.5t-24 89.5
q0 23 10.5 43t28.5 35t42.5 23.5t51.5 8.5zM403 823q41 0 77.5 -14.5t63.5 -39.5t43 -59t16 -72l-65 30q-11 43 -49.5 70.5t-88.5 27.5q-30 0 -55.5 -9t-44.5 -25t-30.5 -38t-11.5 -47q-1 -44 16.5 -77.5t44.5 -62.5q-16 7 -33.5 11t-34.5 4q-30 0 -55.5 -9t-44.5 -25
t-30.5 -38t-11.5 -47q-1 -36 11 -65t31.5 -54t44.5 -46.5t51 -42.5q13 -10 25.5 -20t23.5 -20l9 -9q17 -16 31.5 -33t25 -36t16.5 -40.5t5 -46.5q-2 -53 -36.5 -82.5t-95.5 -29.5q-47 0 -82.5 26t-45.5 66l57 28q0 -25 21 -42t51 -17q27 0 41.5 6.5t21.5 15t8.5 17.5t1.5 15
q0 23 -7.5 42.5t-22 37.5t-36 37t-48.5 40t-55.5 46t-52 55.5t-38.5 68t-14 84.5q1 32 13.5 60.5t33.5 51t50 38.5t63 22q-5 16 -7.5 33.5t-2.5 36.5q0 37 16 69.5t43.5 56.5t64 37.5t78.5 13.5zM532 234q-2 -53 -36.5 -82.5t-95.5 -29.5q-52 0 -90 33q-4 4 -7 6
q-12 11 -24.5 21t-25.5 21q-26 21 -50.5 42t-43.5 45t-30 51.5t-11 61.5q0 23 10.5 43t28.5 35t42 23.5t52 8.5q25 0 51.5 -9.5t45.5 -23.5q11 -11 23.5 -20.5t24.5 -19.5q27 -22 52 -43.5t44 -46t30 -53t10 -63.5zM348 201q11 -10 25 -14.5t30 -4.5q27 0 42 6.5t21.5 15.5
t8 18t1.5 14q1 23 -6.5 42.5t-22.5 37.5t-36.5 37t-48.5 40q-13 10 -25.5 20t-23.5 21h-1q-8 8 -24.5 13.5t-35.5 5.5q-30 0 -52 -15t-22 -36q0 -22 7.5 -41t22 -37t35.5 -36.5t47 -39.5q14 -11 28.5 -22.5t29.5 -25.5v1z" />
    <glyph glyph-name="dieresis" unicode="&#xa8;" horiz-adv-x="330" 
d="M99 808q21 0 36 -14t15 -35t-15 -36t-36 -15q-20 0 -34.5 15t-14.5 36t14.5 35t34.5 14zM99 746q13 0 13 13q0 5 -3.5 9t-9.5 4q-5 0 -9 -4t-4 -9q0 -6 4 -9.5t9 -3.5zM229 808q21 0 36 -14t15 -35t-15 -36t-36 -15q-20 0 -34.5 15t-14.5 36t14.5 35t34.5 14zM229 746
q13 0 13 13q0 5 -3.5 9t-9.5 4q-5 0 -9 -4t-4 -9q0 -6 4 -9.5t9 -3.5z" />
    <glyph glyph-name="copyright" unicode="&#xa9;" horiz-adv-x="733" 
d="M372 741q42 0 77.5 -19.5t61.5 -54.5l-61 -11q-33 31 -78 31q-26 0 -48.5 -11t-39.5 -30t-27 -44.5t-10 -54.5v-221q0 -29 10 -54.5t27 -44.5t39.5 -30t48.5 -11q41 0 74 27l64 -10q-26 -35 -61.5 -53.5t-76.5 -18.5q-36 0 -68.5 15.5t-57 42t-38.5 62t-14 76.5v216
q0 41 14 77t38.5 63t57 42.5t68.5 15.5zM372 257q20 0 36 21l30 -60q-14 -11 -30.5 -17t-35.5 -6q-24 0 -44.5 10.5t-36.5 28t-25 41.5t-9 51v221q0 27 9 51t25 41.5t36.5 28t44.5 10.5q20 0 37 -7t31 -19l-31 -60q-4 5 -13.5 14t-23.5 9q-21 0 -36 -22t-15 -50v-216
q0 -28 15 -49t36 -21zM366 896q66 0 123.5 -26t100.5 -71t68 -105t25 -128v-260q0 -68 -25 -128t-68 -105t-100.5 -71t-123.5 -26q-65 0 -122.5 26t-100.5 71t-68 105t-25 128v260q0 68 25 128t68 105t100.5 71t122.5 26zM624 579q0 53 -20 100t-55 82t-82 55.5t-100 20.5
t-100 -20.5t-82 -55.5t-55 -82t-20 -100v-296q0 -53 20 -100t55 -82t82 -55.5t100 -20.5t100 20.5t82 55.5t55 82t20 100v296zM367 827q51 0 96.5 -19.5t79 -53t53 -79t19.5 -96.5v-296q0 -51 -19.5 -96.5t-53 -79t-79 -53t-96.5 -19.5t-96.5 19.5t-79 53t-53 79t-19.5 96.5
v296q0 51 19.5 96.5t53 79t79 53t96.5 19.5zM556 566q0 42 -15 78.5t-40.5 64.5t-60.5 44t-74 16t-73 -16t-60 -44t-41 -64.5t-15 -78.5v-260q0 -42 15 -79t41 -64.5t60 -43.5t73 -16t74 16t60.5 43.5t40.5 64.5t15 79v260z" />
    <glyph glyph-name="ordfeminine" unicode="&#xaa;" horiz-adv-x="316" 
d="M112.235 411.137h91.3418l20.4824 -95.1025l-29.3398 -16.0342l-14.3936 77.4082h-43.7334l-15.5 -77.4082l-29.3408 16.0342zM158.736 622.904l43.7334 -206.238h-89.1279zM158.736 490.203l-8.85742 -43.127h16.6074zM195.273 671.561l70.8594 -371.561
l-36.5371 16.5879l-68.0918 319.586h-4.98145l-70.3057 -319.586l-36.5371 -16.5879l73.0732 371.561h72.5205z" />
    <glyph glyph-name="guillemotleft" unicode="&#xab;" horiz-adv-x="561" 
d="M448 570l63 -11l-102 -161l102 -168l-65 -7l-108 172zM439 574l-111 -177v-5l110 -174l-35 -53l-143 233l143 229zM238 570l63 -11l-102 -161l102 -168l-65 -7l-108 172zM229 574l-111 -177v-5l110 -174l-35 -53l-143 233l143 229z" />
    <glyph glyph-name="logicalnot" unicode="&#xac;" horiz-adv-x="691" 
d="M50 474h591v0v-274l-59 29v178v7v2h-65h-438zM517 407h56v-178l-59 -29v148h-464l30 59h437z" />
    <glyph glyph-name="registered" unicode="&#xae;" horiz-adv-x="626" 
d="M433 563q0 -36 -19 -64q21 -32 21 -73v-78h-113v78q0 9 -3.5 14t-5.5 6v-98h-112v101v112v85v111v2h120q23 0 43.5 -9.5t35.5 -25t24 -36.5t9 -45v-80zM383 648q0 56 -70 56h-60l-4 -4v-305h9v126h56q22 0 33.5 -6t17 -14.5t6.5 -18.5t1 -19v-68h9v68q0 6 -0.5 14.5
t-3.5 17t-10 16t-19 12.5q14 4 24.5 12.5t10.5 25.5v87zM313 696q62 0 62 -48v-87q0 -32 -59 -32h-2h-56v167h55zM321 643q0 2 -1 3h-7v-85h7q1 0 1 2v80zM353 842q34 0 64 -13t52.5 -35.5t35.5 -52.5t13 -64v-260q0 -34 -13 -63.5t-35.5 -52t-52.5 -35.5t-64 -13h-86
q-34 0 -63.5 13t-52 35.5t-35.5 52t-13 63.5v260q0 34 13 64t35.5 52.5t52 35.5t63.5 13h86zM462 660q0 20 -9 42.5t-23.5 42t-33 32.5t-36.5 13h-95q-21 0 -39.5 -7t-33 -18.5t-22.5 -27t-8 -32.5v-309q0 -17 8 -32.5t22.5 -27t33 -18.5t39.5 -7h95q21 0 39.5 7t32.5 18.5
t22 27t8 32.5v264zM360 902q45 0 84 -22t68.5 -57t46.5 -78t17 -85v-264q0 -41 -17 -77t-46.5 -62.5t-68.5 -42t-84 -15.5h-95q-45 0 -84 15.5t-68.5 42t-46 62.5t-16.5 77v309q0 41 16.5 77t46 62.5t68.5 42t84 15.5h95zM527 677q0 36 -14 67.5t-37.5 55t-55 37t-67.5 13.5
h-86q-36 0 -67.5 -13.5t-55 -37t-37 -55t-13.5 -67.5v-260q0 -36 13.5 -67.5t37 -55t55 -37t67.5 -13.5h86q36 0 67.5 13.5t55 37t37.5 55t14 67.5v260z" />
    <glyph glyph-name="degree" unicode="&#xb0;" horiz-adv-x="200" 
d="M99 808q21 0 36 -14t15 -35t-15 -36t-36 -15q-20 0 -34.5 15t-14.5 36t14.5 35t34.5 14zM99 746q13 0 13 13q0 5 -3.5 9t-9.5 4q-5 0 -9 -4t-4 -9q0 -6 4 -9.5t9 -3.5z" />
    <glyph glyph-name="plusminus" unicode="&#xb1;" horiz-adv-x="435" 
d="M207 650v-129h-127l-30 59h100v99zM80 512h127v-129l-57 -29v99h-100zM346 521h-129v129l59 29v-99h99zM217 383v129h129l29 -59h-99v-99zM356 257h-276l-30 59h335zM80 248h276l29 -58h-335z" />
    <glyph glyph-name="uni00B2" unicode="&#xb2;" horiz-adv-x="360" 
d="M87.7168 333.419h182.195l18.9131 -33.4189h-237.043l-0.629883 39.0947q-0.630859 37.833 8.51074 67.4688q9.14062 29.6357 24.2715 53.2822q15.1299 23.6455 33.4131 42.8779q18.2822 19.2314 35.3037 35.626q16.3916 15.1328 30.2607 29.3203
q13.8701 14.1875 24.2715 29.9512q10.4023 15.7646 16.0762 34.3652q5.67383 18.6016 5.67383 41.9326q0 24.5908 -14.5 41.6162t-34.6738 17.0254q-10.0869 0 -18.9121 -5.36035q-8.82617 -5.35938 -15.4463 -14.1875q-6.61914 -8.82715 -10.4014 -20.8076
q-3.7832 -11.9805 -3.7832 -25.2227l-35.3037 18.917q2.52148 11.3496 7.56445 26.168q5.04395 14.8174 14.5 27.7441q9.45703 12.9268 24.2715 22.0693q14.8154 9.14355 36.8809 9.14355q17.6523 0 33.4131 -7.25195q15.7607 -7.25098 27.4238 -19.5469t18.5977 -29.0059
t6.93457 -36.2568q0 -28.375 -7.25 -51.3896q-7.25 -23.0156 -19.543 -42.8779q-12.2939 -19.8623 -28.0547 -37.5176q-15.7607 -17.6562 -32.7822 -35.3115q-17.0215 -17.0254 -33.4131 -35.3115q-16.3916 -18.2852 -29.3154 -39.0938t-20.4883 -45.7148
q-7.56543 -24.9072 -6.93555 -55.1738v-3.15332zM208.13 480.339q-25.8477 -24.5918 -45.3916 -46.9766q-19.543 -22.3848 -27.7383 -53.2822h153.825l-18.9131 -40.3555h-176.521q0 29.0059 7.56543 52.3359q7.56543 23.3311 20.1738 43.5088t28.3691 37.833
t32.1523 34.6807q17.0215 17.0244 33.0977 34.9961q16.0762 17.9707 29 38.1484t20.4893 44.1387t6.93457 53.5967q0 20.8086 -7.25 38.7793t-19.8584 31.2129q-12.6084 13.2412 -29.3154 20.8076q-16.7061 7.56641 -35.6191 7.56641q-23.9561 0 -40.3477 -10.0889
t-26.4785 -24.5908q-10.0869 -14.5029 -15.4453 -30.2666q-5.3584 -15.7646 -7.25 -27.7451l-38.4561 -17.6553q0 30.2666 10.0869 56.75t27.4238 46.3457t40.9775 31.2129q23.6416 11.3496 50.1191 11.3496q27.1094 0 50.4346 -10.7197q23.3262 -10.7188 40.9785 -29.3203
t27.7393 -43.8232q10.0869 -25.2227 10.0869 -54.2285q0.629883 -36.5723 -8.51074 -64.9463q-9.1416 -28.375 -23.6416 -51.3906t-32.7822 -41.9316q-18.2832 -18.917 -35.9346 -35.9414z" />
    <glyph glyph-name="uni00B3" unicode="&#xb3;" horiz-adv-x="386" 
d="M179.293 340.045q-15.0859 0 -28.915 6.6123q-13.8291 6.61328 -25.1445 18.5781q-11.3145 11.9658 -19.1719 27.3945q-7.85742 15.4297 -10.3721 33.6924l37.7158 19.5225q0 -13.2246 3.77148 -25.1904q3.77148 -11.9648 10.3721 -20.7822
q6.60059 -8.81641 15.4004 -14.1689q8.80078 -5.35352 18.8584 -5.35352q9.42871 0 18.2295 6.92773t15.7148 20.4668q6.91504 13.54 11.3154 33.6924q4.39941 20.1523 4.39941 46.6025q0 38.415 -8.48535 61.4014q-8.48633 22.9863 -22.001 34.9521
q-13.5156 11.9648 -30.1729 15.7441q-16.6582 3.77832 -33.002 3.77832h-87.376l111.892 129.101h-88.0049l18.2295 38.416h147.722l-111.891 -134.14h6.28516q60.3457 0 94.291 -37.1553q36.459 -39.0459 36.459 -116.506q0 -32.1182 -6.60059 -59.1973
q-6.60059 -27.0801 -19.1729 -46.6025q-23.8867 -37.7861 -60.3457 -37.7861zM336.443 812.995l-123.834 -143.585q28.915 -11.9658 50.2881 -34.6367q47.7734 -49.751 47.7734 -146.734q0 -80.6094 -32.6875 -130.99q-17.6006 -27.71 -42.4307 -42.1943
q-24.8291 -14.4844 -53.7451 -14.4844q-26.4014 0 -49.6592 11.3359q-23.2588 11.3359 -40.8594 31.1729q-17.6006 19.8379 -27.6582 46.2871q-10.0576 26.4502 -10.0576 56.6787l35.2012 -17.0029q5.0293 -34.6367 25.7725 -60.457q27.0303 -34.0078 64.7461 -34.0078
q20.1152 0 37.0879 11.0215q16.9717 11.0205 29.2295 30.543t19.1729 46.917q6.91406 27.3945 6.91406 60.7725q0 74.3115 -33.9443 115.876q-33.9443 41.5635 -96.8047 43.4531l111.892 134.769h-160.294l-18.2295 35.2666h262.127z" />
    <glyph glyph-name="acute" unicode="&#xb4;" horiz-adv-x="190" 
d="M69 817h31l-26 -114h-24l19 114v0zM140 817l-35 -114h-21l26 114h30v0z" />
    <glyph glyph-name="mu" unicode="&#xb5;" horiz-adv-x="459" 
d="M229 61q-24 0 -44.5 10t-36 28t-24.5 42t-9 51v365l62 29v-401q0 -29 15.5 -50.5t36.5 -21.5q22 0 37.5 21.5t15.5 50.5v362v39l61 -29v-365q0 -27 -9 -51t-24.5 -42t-36 -28t-44.5 -10zM105 192v-288l-55 -29v310v401l55 -29v-365zM229 51q38 0 69 24.5t45 62.5v-108
l-44 -29q-17 -7 -34 -11t-36 -4q-25 0 -52 8v-119l-62 29v234q14 -38 45 -62.5t69 -24.5zM352 557l57 29v-39v-362v-184l-57 30v161v365z" />
    <glyph glyph-name="mu" unicode="&#x3bc;" horiz-adv-x="459" 
d="M229 61q-24 0 -44.5 10t-36 28t-24.5 42t-9 51v365l62 29v-401q0 -29 15.5 -50.5t36.5 -21.5q22 0 37.5 21.5t15.5 50.5v362v39l61 -29v-365q0 -27 -9 -51t-24.5 -42t-36 -28t-44.5 -10zM105 192v-288l-55 -29v310v401l55 -29v-365zM229 51q38 0 69 24.5t45 62.5v-108
l-44 -29q-17 -7 -34 -11t-36 -4q-25 0 -52 8v-119l-62 29v234q14 -38 45 -62.5t69 -24.5zM352 557l57 29v-39v-362v-184l-57 30v161v365z" />
    <glyph glyph-name="paragraph" unicode="&#xb6;" horiz-adv-x="646" 
d="M439 844h157v-842l-56 30v744l-5 5h-160l-1 -1v2h-133q-29 0 -54 -11t-43.5 -30t-29.5 -45t-11 -55v-149q0 -29 11 -54.5t29.5 -44.5t43.5 -30t54 -11h129v-320l-58 -30v287h-73q-39 0 -73.5 15t-60 41.5t-40.5 61.5t-15 75v173q0 39 15 73.5t40.5 60t60 40.5t73.5 15
h200zM112 641q0 27 10 51t27.5 41.5t41 28t50.5 10.5h129v-410h-129q-27 0 -50.5 10t-41 28t-27.5 41.5t-10 50.5v149zM530 772v-740l-60 -30v716h-31v-302v-127v-287l-59 30v740h150z" />
    <glyph glyph-name="periodcentered" unicode="&#xb7;" horiz-adv-x="200" 
d="M99 438q21 0 36 -14t15 -35t-15 -36t-36 -15q-20 0 -34.5 15t-14.5 36t14.5 35t34.5 14zM99 376q13 0 13 13q0 5 -3.5 9t-9.5 4q-5 0 -9 -4t-4 -9q0 -6 4 -9.5t9 -3.5z" />
    <glyph glyph-name="cedilla" unicode="&#xb8;" horiz-adv-x="272" 
d="M158 -95q7 22 1 38t-14 32q-6 11 -11.5 23t-8.5 27h52q0 -8 3 -13t10 -15q9 -11 20.5 -29.5t11.5 -47.5q0 -26 -11 -47t-31 -36t-47.5 -23.5t-60.5 -8.5v51q11 0 25 3q50 9 61 46zM116 25q2 -17 8 -30t12 -24q8 -16 13.5 -30t-0.5 -33q-4 -13 -12.5 -21t-20 -12.5
t-23 -6.5t-21.5 -2v65h8q-11 16 -20.5 38t-9.5 56h66z" />
    <glyph glyph-name="uni00B9" unicode="&#xb9;" horiz-adv-x="269" 
d="M49.5312 714.904l99.0059 97.7363h69.998v-512.641l-40.3594 18.917v472.285l-87.6553 -87.6475zM94.3047 699.771l77.5654 76.9277v-458.413l-33.4229 -18.2861v390.943l-32.1611 -32.1582z" />
    <glyph glyph-name="ordmasculine" unicode="&#xba;" horiz-adv-x="368" 
d="M184.562 300q-27.4883 0 -51.9219 11.8555q-24.4336 11.8564 -42.7588 32.5078q-18.3252 20.6523 -29.0146 48.5713t-10.6895 59.2793v209.58q0 31.3604 10.6895 59.2793t29.0146 48.5713q18.3252 20.6514 42.7588 32.5078q24.4336 11.8555 51.9219 11.8555
q27.4873 0 51.9209 -11.8555q24.4336 -11.8564 42.377 -32.5078q17.9434 -20.6523 28.6338 -48.5713q10.6895 -27.9189 10.6895 -59.2793v-209.58q0 -31.3604 -10.6895 -59.2793q-10.6904 -27.9189 -28.6338 -48.5713q-17.9434 -20.6514 -42.377 -32.5078
q-24.4336 -11.8555 -51.9209 -11.8555zM97.5176 444.564q0 -22.1816 6.87207 -41.3037t19.0889 -33.2734q12.2168 -14.1504 28.251 -22.5635q16.0342 -8.41406 34.3604 -8.41406q18.3242 0 34.7412 8.41406q16.416 8.41309 28.251 22.5635q11.835 14.1514 19.0889 33.2734
t7.25391 41.3037v221.055q0 21.416 -7.25391 40.9209t-19.0889 33.6553t-28.251 22.5645q-16.417 8.41406 -34.7412 8.41406q-18.3262 0 -34.3604 -8.41406t-28.251 -22.5645t-19.0889 -33.6553t-6.87207 -40.9209v-221.055zM186.09 346.658q-16.7988 0 -31.6875 7.64941
q-14.8896 7.64844 -25.9609 21.0342t-17.5615 30.9785q-6.49023 17.5918 -6.49023 38.2441v221.055q0 20.6514 6.49023 38.2441t17.5615 30.9785q11.0713 13.3848 25.9609 21.0342q14.8887 7.64941 31.6875 7.64941q16.7979 0 31.6865 -7.64941
q14.8896 -7.64941 25.9609 -21.0342q11.0713 -13.3857 17.5615 -30.9785t6.49023 -38.2441v-221.055q0 -20.6523 -6.49023 -38.2441q-6.49023 -17.5928 -17.5615 -30.9785t-25.9609 -21.0342q-14.8887 -7.64941 -31.6865 -7.64941zM147.148 452.214
q0 -24.4766 12.2168 -40.1572q12.2168 -15.6797 25.1973 -15.6797t24.8154 15.6797q11.835 15.6807 11.835 40.1572v209.58q0 24.4766 -11.835 39.7744t-24.8154 15.2979t-25.1973 -15.2979t-12.2168 -39.7744v-209.58z" />
    <glyph glyph-name="guillemotright" unicode="&#xbb;" horiz-adv-x="561" 
d="M223 395l-108 -172l-65 7l102 168l-102 161l63 11zM158 627l143 -229l-143 -233l-35 53l110 174v5l-111 177zM433 395l-108 -172l-65 7l102 168l-102 161l63 11zM368 627l143 -229l-143 -233l-35 53l110 174v5l-111 177z" />
    <glyph glyph-name="onequarter" unicode="&#xbc;" horiz-adv-x="1202" 
d="M50 658l157 155h111v-813l-64 30v749l-139 -139zM121 634l123 122v-727l-53 -29v620l-51 -51zM444 36l266 753l70 28l-284 -810zM657 817l43 -29l-266 -751l-63 -30zM1021 30v282h102l29 -57h-73v-254zM1011 321h-226l226 418v-418zM953 382v155l-75 -155h75zM1079 382
h73l-30 -61h-101v436l-9 3l-243 -448h242v-282l-58 -29v254h-277l292 558h111v-431z" />
    <glyph glyph-name="onehalf" unicode="&#xbd;" horiz-adv-x="1262" 
d="M50 658l157 155h111v-813l-64 30v749l-139 -139zM121 634l123 122v-727l-53 -29v620l-51 -51zM444 36l266 753l70 28l-284 -810zM657 817l43 -29l-266 -751l-63 -30zM860 53h289l30 -53h-376l-1 62q-1 60 13.5 107t38.5 84.5t53 68t56 56.5q26 24 48 46.5t38.5 47.5
t25.5 54.5t9 66.5q0 39 -23 66t-55 27q-16 0 -30 -8.5t-24.5 -22.5t-16.5 -33t-6 -40l-56 30q4 18 12 41.5t23 44t38.5 35t58.5 14.5q28 0 53 -11.5t43.5 -31t29.5 -46t11 -57.5q0 -45 -11.5 -81.5t-31 -68t-44.5 -59.5t-52 -56q-27 -27 -53 -56t-46.5 -62t-32.5 -72.5
t-11 -87.5v-5zM1051 286q-41 -39 -72 -74.5t-44 -84.5h244l-30 -64h-280q0 46 12 83t32 69t45 60t51 55q27 27 52.5 55.5t46 60.5t32.5 70t11 85q0 33 -11.5 61.5t-31.5 49.5t-46.5 33t-56.5 12q-38 0 -64 -16t-42 -39t-24.5 -48t-11.5 -44l-61 -28q0 48 16 90t43.5 73.5
t65 49.5t79.5 18q43 0 80 -17t65 -46.5t44 -69.5t16 -86q1 -58 -13.5 -103t-37.5 -81.5t-52 -66.5t-57 -57z" />
    <glyph glyph-name="threequarters" unicode="&#xbe;" horiz-adv-x="1244" 
d="M255 62q-24 0 -46 10.5t-40 29.5t-30.5 43.5t-16.5 53.5l60 31q0 -21 6 -40t16.5 -33t24.5 -22.5t30 -8.5q15 0 29 11t25 32.5t18 53.5t7 74q0 61 -13.5 97.5t-35 55.5t-48 25t-52.5 6h-139l178 205h-140l29 61h235l-178 -213h10q96 0 150 -59q58 -62 58 -185
q0 -51 -10.5 -94t-30.5 -74q-38 -60 -96 -60zM505 813l-197 -228q46 -19 80 -55q76 -79 76 -233q0 -128 -52 -208q-28 -44 -67.5 -67t-85.5 -23q-42 0 -79 18t-65 49.5t-44 73.5t-16 90l56 -27q8 -55 41 -96q43 -54 103 -54q32 0 59 17.5t46.5 48.5t30.5 74.5t11 96.5
q0 118 -54 184t-154 69l178 214h-255l-29 56h417zM516 36l266 753l70 28l-284 -810zM729 817l43 -29l-266 -751l-63 -30zM1063 30v282h102l29 -57h-73v-254zM1053 321h-226l226 418v-418zM995 382v155l-75 -155h75zM1121 382h73l-30 -61h-101v436l-9 3l-243 -448h242v-282
l-58 -29v254h-277l292 558h111v-431z" />
    <glyph glyph-name="questiondown" unicode="&#xbf;" horiz-adv-x="510" 
d="M256.016 -163.949q-41.998 0 -79.4951 16.999q-37.498 16.999 -64.9961 46.4971q-27.498 29.499 -43.9971 68.9961q-16.499 39.498 -16.499 85.4951q0 56.9961 9.99902 98.9941q9.99902 41.9971 25.498 73.4951q15.5 31.498 34.998 54.9971q19.499 23.498 37.498 43.4971
q15.999 17.999 29.498 35.498q13.499 17.498 23.999 38.9971q10.499 21.499 15.999 49.4971q5.49902 27.998 4.49902 66.9961l61.9961 -27.998q-1.99902 -40.998 -10.999 -71.4961q-8.99902 -30.498 -21.499 -53.9971q-12.499 -23.498 -27.998 -41.4971t-31.498 -34.998
q-16.999 -16.999 -33.498 -35.998q-16.499 -18.998 -28.998 -43.4971q-12.499 -24.498 -20.499 -56.4961q-7.99902 -31.998 -7.99902 -75.9951q0 -97.9941 47.9971 -143.992q34.998 -34.9971 95.9941 -34.9971q39.9971 1 65.9961 16.999q25.998 15.999 42.4971 38.4971
q16.499 22.499 24.499 46.4971q7.99902 23.999 10.999 39.998l59.9961 28.998q0 -47.9971 -16.499 -89.4941q-16.499 -41.498 -43.9971 -72.9961t-64.4961 -49.4971t-78.9951 -17.999zM122.023 74.0371q0 42.9971 7.5 73.4951q7.49902 30.498 19.499 53.9971
q11.999 23.498 27.998 41.9971t32.998 36.498t32.998 36.4971q15.999 18.499 28.998 42.498q12.999 23.998 21.999 55.4961q8.99902 31.498 10.999 74.4961l53.9961 29.998q1 -57.9971 -8.99902 -101.494t-25.498 -75.9951t-34.998 -56.4971
q-19.499 -23.998 -37.498 -43.9971q-15.999 -17.999 -29.998 -34.998t-23.499 -37.9971q-9.49902 -20.999 -14.999 -47.9971q-5.49902 -26.999 -5.49902 -64.9961q0 -38.998 22.998 -65.9961q22.999 -26.999 54.9971 -26.999q15.999 0 29.998 8.5
q13.999 8.49902 24.498 22.499q10.5 13.999 16.499 32.9971q6 18.999 6 39.998l56.9971 -28.998q-2 -11 -5.5 -25.499t-11.499 -29.498q-35.998 -74.9951 -117.993 -76.9951q-54.9971 -1 -88.9941 30.998q-43.998 43.9971 -43.998 137.992zM303.013 588.005v72.9961
l54.9971 11.999v-99.9941zM293.014 588.005l-59.9971 -14.999v99.9941l59.9971 -11.999v-72.9961z" />
    <glyph glyph-name="Agrave" unicode="&#xc0;" horiz-adv-x="548" 
d="M326 813l172 -813l-67 30l-50 239v3h-1l-99 470h-10l-102 -470h-1v-4l-52 -238l-66 -30l177 813h99zM276 719l94 -447h-191zM275 479l-29 -146h58zM177 262h195l50 -233l-53 -29l-40 206h-108l-42 -206l-53 29zM284 977l19 -114h-24l-26 114h31zM213 977h30l26 -114h-21z
" />
    <glyph glyph-name="Aacute" unicode="&#xc1;" horiz-adv-x="548" 
d="M326 813l172 -813l-67 30l-50 239v3h-1l-99 470h-10l-102 -470h-1v-4l-52 -238l-66 -30l177 813h99zM276 719l94 -447h-191zM275 479l-29 -146h58zM177 262h195l50 -233l-53 -29l-40 206h-108l-42 -206l-53 29zM238 961h31l-26 -114h-24l19 114v0zM309 961l-35 -114h-21
l26 114h30v0z" />
    <glyph glyph-name="Acircumflex" unicode="&#xc2;" horiz-adv-x="548" 
d="M326 813l172 -813l-67 30l-50 239v3h-1l-99 470h-10l-102 -470h-1v-4l-52 -238l-66 -30l177 813h99zM276 719l94 -447h-191zM275 479l-29 -146h58zM177 262h195l50 -233l-53 -29l-40 206h-108l-42 -206l-53 29zM165 868l127 110l132 -107h-1l-14 -69l-118 95l-110 -95z
M289 1061l199 -162l-55 -24l-141 115l-135 -116l-58 24z" />
    <glyph glyph-name="Atilde" unicode="&#xc3;" horiz-adv-x="565" 
d="M343 813l172 -813l-67 30l-50 239v3h-1l-99 470h-10l-102 -470h-1v-4l-52 -238l-66 -30l177 813h99zM293 719l94 -447h-191zM292 479l-29 -146h58zM194 262h195l50 -233l-53 -29l-40 206h-108l-42 -206l-53 29zM359 846q31 0 54 11.5t38 25.5l63 -18q-39 -42 -77 -60.5
t-76 -19.5h-1q-35 0 -62 12.5t-47 26.5q-13 8 -24.5 14.5t-19.5 6.5q-5 0 -21 -7.5t-46 -36.5l-17 56q16 16 37.5 31.5t41.5 15.5q29 0 45.5 -9t32.5 -20q15 -11 32.5 -20t46.5 -9zM202 913q-23 0 -45 -15.5t-39 -32.5l-68 26q81 81 156 81h1q35 0 62 -13t49 -27
q13 -8 23.5 -14t18.5 -6q5 0 21 6.5t45 35.5l18 -64q-14 -13 -35.5 -23.5t-49.5 -10.5q-26 0 -42.5 8t-31.5 19q-16 11 -34 20.5t-49 9.5z" />
    <glyph glyph-name="Adieresis" unicode="&#xc4;" horiz-adv-x="548" 
d="M326 813l172 -813l-67 30l-50 239v3h-1l-99 470h-10l-102 -470h-1v-4l-52 -238l-66 -30l177 813h99zM276 719l94 -447h-191zM275 479l-29 -146h58zM177 262h195l50 -233l-53 -29l-40 206h-108l-42 -206l-53 29zM208 952q21 0 36 -14t15 -35t-15 -36t-36 -15
q-20 0 -34.5 15t-14.5 36t14.5 35t34.5 14zM208 890q13 0 13 13q0 5 -3.5 9t-9.5 4q-5 0 -9 -4t-4 -9q0 -6 4 -9.5t9 -3.5zM338 952q21 0 36 -14t15 -35t-15 -36t-36 -15q-20 0 -34.5 15t-14.5 36t14.5 35t34.5 14zM338 890q13 0 13 13q0 5 -3.5 9t-9.5 4q-5 0 -9 -4t-4 -9
q0 -6 4 -9.5t9 -3.5z" />
    <glyph glyph-name="Aring" unicode="&#xc5;" horiz-adv-x="548" 
d="M326 813l172 -813l-67 30l-50 239v3h-1l-99 470h-10l-102 -470h-1v-4l-52 -238l-66 -30l177 813h99zM276 719l94 -447h-191zM275 479l-29 -146h58zM177 262h195l50 -233l-53 -29l-40 206h-108l-42 -206l-53 29zM276 777q-30 0 -56.5 11t-46.5 29.5t-31.5 44t-11.5 54.5
t11.5 54.5t31.5 44.5t46.5 30t56.5 11t56.5 -11t46.5 -30t31.5 -44.5t11.5 -54.5t-11.5 -54.5t-31.5 -44t-46.5 -29.5t-56.5 -11zM182 909q0 -40 27.5 -68t68.5 -28q20 0 37.5 7.5t31 20.5t21 30.5t7.5 37.5v11q0 20 -7.5 37.5t-21 31t-31 21t-37.5 7.5q-41 0 -68.5 -28.5
t-27.5 -68.5v-11zM278 819q-38 0 -63.5 26.5t-25.5 63.5v11q0 38 25.5 63.5t63.5 25.5t63.5 -25.5t25.5 -63.5v-11q0 -37 -25.5 -63.5t-63.5 -26.5zM235 916q0 -23 13.5 -37t27.5 -14t27.5 14t13.5 37t-13.5 37t-27.5 14t-27.5 -14t-13.5 -37z" />
    <glyph glyph-name="AE" unicode="&#xc6;" horiz-adv-x="738" 
d="M432 754q-4 0 -4 -3l-303 -719l-75 -32l341 805v7h13h82h202l-30 -58h-226zM427 283h-186l186 442v-442zM363 332l3 104l-40 -104h37zM437 744h221l30 -58h-195v-251h101l-29 -62h-128v371zM437 363h128l29 -55h-101v-68l3 -113h192l-30 -61h-221v297zM427 61q0 -5 5 -5
h226l30 -56h-190h-129h-3v102l-2 103h-88l-91 -205l-49 33l101 241h190v-213z" />
    <glyph glyph-name="Ccedilla" unicode="&#xc7;" horiz-adv-x="499" 
d="M398 755q37 -37 51 -86l-61 14q-7 13 -15.5 24.5t-16.5 19.5q-20 19 -45 29.5t-53 10.5h-10q-29 0 -54.5 -11t-44.5 -29.5t-30 -44t-11 -53.5v-438q0 -28 11 -53t30 -43.5t44.5 -29.5t54.5 -11h10q35 0 67 18.5t52 49.5l68 10q-11 -29 -29.5 -53.5t-43 -41.5t-54 -26.5
t-60.5 -9.5h-9q-41 0 -77.5 15.5t-63.5 42.5t-42.5 63.5t-15.5 77.5v414q0 41 15.5 77t42.5 63t63.5 43t77.5 16h9q40 0 75.5 -15t64.5 -43zM258 757q53 0 92 -37q15 -15 28 -39l-50 -47q-7 19 -19 31q-23 21 -51 21h-9q-30 0 -51 -21t-21 -51v-414q0 -30 21 -51t51 -21h9
q23 0 41.5 13t26.5 35l44 -49q-19 -29 -49.5 -46.5t-62.5 -17.5h-10q-27 0 -50.5 10t-41.5 27.5t-28 41t-10 49.5v438q0 27 10 50t28 40.5t41.5 27.5t50.5 10h10zM293 -132q7 22 1 38t-14 32q-6 11 -11.5 23t-8.5 27h52q0 -8 3 -13t10 -15q9 -11 20.5 -29.5t11.5 -47.5
q0 -26 -11 -47t-31 -36t-47.5 -23.5t-60.5 -8.5v51q11 0 25 3q50 9 61 46zM251 -12q2 -17 8 -30t12 -24q8 -16 13.5 -30t-0.5 -33q-4 -13 -12.5 -21t-20 -12.5t-23 -6.5t-21.5 -2v65h8q-11 16 -20.5 38t-9.5 56h66z" />
    <glyph glyph-name="Egrave" unicode="&#xc8;" horiz-adv-x="421" 
d="M118 376v369h221v-59h-162v-250h100l-29 -60h-130zM50 813h321l-29 -59h-234v-699h234l29 -54h-321v812zM118 64v303h130l29 -58h-100v-182h194l-29 -63h-224zM227 961l19 -114h-24l-26 114h31zM156 961h30l26 -114h-21z" />
    <glyph glyph-name="Eacute" unicode="&#xc9;" horiz-adv-x="421" 
d="M118 376v369h221v-59h-162v-250h100l-29 -60h-130zM50 813h321l-29 -59h-234v-699h234l29 -54h-321v812zM118 64v303h130l29 -58h-100v-182h194l-29 -63h-224zM175 961h31l-26 -114h-24l19 114v0zM246 961l-35 -114h-21l26 114h30v0z" />
    <glyph glyph-name="Ecircumflex" unicode="&#xca;" horiz-adv-x="489" 
d="M132 376v369h221v-59h-162v-250h100l-29 -60h-130zM64 813h321l-29 -59h-234v-699h234l29 -54h-321v812zM132 64v303h130l29 -58h-100v-182h194l-29 -63h-224zM116 913l127 110l132 -107h-1l-14 -69l-118 95l-110 -95zM240 1106l199 -162l-55 -24l-141 115l-135 -116
l-58 24z" />
    <glyph glyph-name="Edieresis" unicode="&#xcb;" horiz-adv-x="421" 
d="M118 376v369h221v-59h-162v-250h100l-29 -60h-130zM50 813h321l-29 -59h-234v-699h234l29 -54h-321v812zM118 64v303h130l29 -58h-100v-182h194l-29 -63h-224zM144 952q21 0 36 -14t15 -35t-15 -36t-36 -15q-20 0 -34.5 15t-14.5 36t14.5 35t34.5 14zM144 890q13 0 13 13
q0 5 -3.5 9t-9.5 4q-5 0 -9 -4t-4 -9q0 -6 4 -9.5t9 -3.5zM274 952q21 0 36 -14t15 -35t-15 -36t-36 -15q-20 0 -34.5 15t-14.5 36t14.5 35t34.5 14zM274 890q13 0 13 13q0 5 -3.5 9t-9.5 4q-5 0 -9 -4t-4 -9q0 -6 4 -9.5t9 -3.5z" />
    <glyph glyph-name="Igrave" unicode="&#xcc;" 
d="M50 812l58 -29v-754l-58 -29v812zM118 29v754l59 29v-812zM130 961l19 -114h-24l-26 114h31zM59 961h30l26 -114h-21z" />
    <glyph glyph-name="Iacute" unicode="&#xcd;" 
d="M50 812l58 -29v-754l-58 -29v812zM118 29v754l59 29v-812zM78 961h31l-26 -114h-24l19 114v0zM149 961l-35 -114h-21l26 114h30v0z" />
    <glyph glyph-name="Icircumflex" unicode="&#xce;" horiz-adv-x="489" 
d="M161 812l58 -29v-754l-58 -29v812zM229 29v754l59 29v-812zM116 868l127 110l132 -107h-1l-14 -69l-118 95l-110 -95zM240 1061l199 -162l-55 -24l-141 115l-135 -116l-58 24z" />
    <glyph glyph-name="Idieresis" unicode="&#xcf;" horiz-adv-x="330" 
d="M101 812l58 -29v-754l-58 -29v812zM169 29v754l59 29v-812zM99 952q21 0 36 -14t15 -35t-15 -36t-36 -15q-20 0 -34.5 15t-14.5 36t14.5 35t34.5 14zM99 890q13 0 13 13q0 5 -3.5 9t-9.5 4q-5 0 -9 -4t-4 -9q0 -6 4 -9.5t9 -3.5zM229 952q21 0 36 -14t15 -35t-15 -36
t-36 -15q-20 0 -34.5 15t-14.5 36t14.5 35t34.5 14zM229 890q13 0 13 13q0 5 -3.5 9t-9.5 4q-5 0 -9 -4t-4 -9q0 -6 4 -9.5t9 -3.5z" />
    <glyph glyph-name="Eth" unicode="&#xd0;" horiz-adv-x="527" 
d="M285 815q40 0 75 -15t61 -41t41 -61t15 -74v-429q0 -40 -15 -75t-40.5 -61.5t-60 -41.5t-73.5 -15h-190h-11v350h-37l30 63h65v-63v-287v-9h142q27 0 51 10t41.5 28t28 41.5t10.5 50.5v443q0 26 -10.5 49t-28.5 40.5t-42.5 27.5t-51.5 10h-130h-10v-278v-54h-66l-29 54
h37v337h127h71zM155 352v63h95l29 -63h-65v-223h74q26 0 44 19t18 47v429q0 26 -19 45t-46 19h-71v-210h65l-29 -54h-95v54v269h130q25 0 47.5 -9.5t39.5 -25.5t26.5 -37.5t9.5 -45.5v-443q0 -25 -9.5 -47t-26 -38.5t-38.5 -26t-47 -9.5h-132v287z" />
    <glyph glyph-name="Ntilde" unicode="&#xd1;" horiz-adv-x="564" 
d="M445 57v725l62 29v-811h-75h-51h-2l-176 471v-471l-59 29v709l292 -682zM144 763l-9 -2v-732l-59 -29v809l-1 4h1h127h7l171 -455v453l54 -29v-701zM359 918q31 0 54 11.5t38 25.5l63 -18q-39 -42 -77 -60.5t-76 -19.5h-1q-35 0 -62 12.5t-47 26.5q-13 8 -24.5 14.5
t-19.5 6.5q-5 0 -21 -7.5t-46 -36.5l-17 56q16 16 37.5 31.5t41.5 15.5q29 0 45.5 -9t32.5 -20q15 -11 32.5 -20t46.5 -9zM202 985q-23 0 -45 -15.5t-39 -32.5l-68 26q81 81 156 81h1q35 0 62 -13t49 -27q13 -8 23.5 -14t18.5 -6q5 0 21 6.5t45 35.5l18 -64
q-14 -13 -35.5 -23.5t-49.5 -10.5q-26 0 -42.5 8t-31.5 19q-16 11 -34 20.5t-49 9.5z" />
    <glyph glyph-name="Ograve" unicode="&#xd2;" horiz-adv-x="507" 
d="M258 812q41 0 77.5 -15.5t63.5 -42.5t42.5 -63.5t15.5 -77.5v-413q0 -41 -15.5 -77.5t-42.5 -63.5t-63.5 -42.5t-77.5 -15.5h-9q-41 0 -77.5 15.5t-63.5 42.5t-42.5 63.5t-15.5 77.5v413q0 41 15.5 77.5t42.5 63.5t63.5 42.5t77.5 15.5h9zM401 618q0 29 -11 54.5
t-29.5 44t-44 29.5t-53.5 11h-13q-29 0 -54.5 -11t-44 -29.5t-29.5 -44t-11 -54.5v-428q0 -29 11 -54t29.5 -43.5t44 -29.5t54.5 -11h13q28 0 53.5 11t44 29.5t29.5 43.5t11 54v428zM263 747q27 0 50.5 -10t41 -27.5t27.5 -41t10 -50.5v-428q0 -27 -10 -50.5t-27.5 -41
t-41 -27.5t-50.5 -10h-13q-27 0 -50.5 10t-41 27.5t-27.5 41t-10 50.5v428q0 27 10 50.5t27.5 41t41 27.5t50.5 10h13zM330 613q0 30 -21 51t-51 21h-9q-30 0 -51 -21t-21 -51v-413q0 -30 21 -51t51 -21h9q30 0 51 21t21 51v413zM270 961l19 -114h-24l-26 114h31zM199 961
h30l26 -114h-21z" />
    <glyph glyph-name="Oacute" unicode="&#xd3;" horiz-adv-x="507" 
d="M258 812q41 0 77.5 -15.5t63.5 -42.5t42.5 -63.5t15.5 -77.5v-413q0 -41 -15.5 -77.5t-42.5 -63.5t-63.5 -42.5t-77.5 -15.5h-9q-41 0 -77.5 15.5t-63.5 42.5t-42.5 63.5t-15.5 77.5v413q0 41 15.5 77.5t42.5 63.5t63.5 42.5t77.5 15.5h9zM401 618q0 29 -11 54.5
t-29.5 44t-44 29.5t-53.5 11h-13q-29 0 -54.5 -11t-44 -29.5t-29.5 -44t-11 -54.5v-428q0 -29 11 -54t29.5 -43.5t44 -29.5t54.5 -11h13q28 0 53.5 11t44 29.5t29.5 43.5t11 54v428zM263 747q27 0 50.5 -10t41 -27.5t27.5 -41t10 -50.5v-428q0 -27 -10 -50.5t-27.5 -41
t-41 -27.5t-50.5 -10h-13q-27 0 -50.5 10t-41 27.5t-27.5 41t-10 50.5v428q0 27 10 50.5t27.5 41t41 27.5t50.5 10h13zM330 613q0 30 -21 51t-51 21h-9q-30 0 -51 -21t-21 -51v-413q0 -30 21 -51t51 -21h9q30 0 51 21t21 51v413zM218 961h31l-26 -114h-24l19 114v0zM289 961
l-35 -114h-21l26 114h30v0z" />
    <glyph glyph-name="Ocircumflex" unicode="&#xd4;" horiz-adv-x="518" 
d="M258 812q41 0 77.5 -15.5t63.5 -42.5t42.5 -63.5t15.5 -77.5v-413q0 -41 -15.5 -77.5t-42.5 -63.5t-63.5 -42.5t-77.5 -15.5h-9q-41 0 -77.5 15.5t-63.5 42.5t-42.5 63.5t-15.5 77.5v413q0 41 15.5 77.5t42.5 63.5t63.5 42.5t77.5 15.5h9zM401 618q0 29 -11 54.5
t-29.5 44t-44 29.5t-53.5 11h-13q-29 0 -54.5 -11t-44 -29.5t-29.5 -44t-11 -54.5v-428q0 -29 11 -54t29.5 -43.5t44 -29.5t54.5 -11h13q28 0 53.5 11t44 29.5t29.5 43.5t11 54v428zM263 747q27 0 50.5 -10t41 -27.5t27.5 -41t10 -50.5v-428q0 -27 -10 -50.5t-27.5 -41
t-41 -27.5t-50.5 -10h-13q-27 0 -50.5 10t-41 27.5t-27.5 41t-10 50.5v428q0 27 10 50.5t27.5 41t41 27.5t50.5 10h13zM330 613q0 30 -21 51t-51 21h-9q-30 0 -51 -21t-21 -51v-413q0 -30 21 -51t51 -21h9q30 0 51 21t21 51v413zM145 868l127 110l132 -107h-1l-14 -69
l-118 95l-110 -95zM269 1061l199 -162l-55 -24l-141 115l-135 -116l-58 24z" />
    <glyph glyph-name="Otilde" unicode="&#xd5;" horiz-adv-x="564" 
d="M296 812q41 0 77.5 -15.5t63.5 -42.5t42.5 -63.5t15.5 -77.5v-413q0 -41 -15.5 -77.5t-42.5 -63.5t-63.5 -42.5t-77.5 -15.5h-9q-41 0 -77.5 15.5t-63.5 42.5t-42.5 63.5t-15.5 77.5v413q0 41 15.5 77.5t42.5 63.5t63.5 42.5t77.5 15.5h9zM439 618q0 29 -11 54.5
t-29.5 44t-44 29.5t-53.5 11h-13q-29 0 -54.5 -11t-44 -29.5t-29.5 -44t-11 -54.5v-428q0 -29 11 -54t29.5 -43.5t44 -29.5t54.5 -11h13q28 0 53.5 11t44 29.5t29.5 43.5t11 54v428zM301 747q27 0 50.5 -10t41 -27.5t27.5 -41t10 -50.5v-428q0 -27 -10 -50.5t-27.5 -41
t-41 -27.5t-50.5 -10h-13q-27 0 -50.5 10t-41 27.5t-27.5 41t-10 50.5v428q0 27 10 50.5t27.5 41t41 27.5t50.5 10h13zM368 613q0 30 -21 51t-51 21h-9q-30 0 -51 -21t-21 -51v-413q0 -30 21 -51t51 -21h9q30 0 51 21t21 51v413zM359 846q31 0 54 11.5t38 25.5l63 -18
q-39 -42 -77 -60.5t-76 -19.5h-1q-35 0 -62 12.5t-47 26.5q-13 8 -24.5 14.5t-19.5 6.5q-5 0 -21 -7.5t-46 -36.5l-17 56q16 16 37.5 31.5t41.5 15.5q29 0 45.5 -9t32.5 -20q15 -11 32.5 -20t46.5 -9zM202 913q-23 0 -45 -15.5t-39 -32.5l-68 26q81 81 156 81h1q35 0 62 -13
t49 -27q13 -8 23.5 -14t18.5 -6q5 0 21 6.5t45 35.5l18 -64q-14 -13 -35.5 -23.5t-49.5 -10.5q-26 0 -42.5 8t-31.5 19q-16 11 -34 20.5t-49 9.5z" />
    <glyph glyph-name="Odieresis" unicode="&#xd6;" horiz-adv-x="507" 
d="M258 812q41 0 77.5 -15.5t63.5 -42.5t42.5 -63.5t15.5 -77.5v-413q0 -41 -15.5 -77.5t-42.5 -63.5t-63.5 -42.5t-77.5 -15.5h-9q-41 0 -77.5 15.5t-63.5 42.5t-42.5 63.5t-15.5 77.5v413q0 41 15.5 77.5t42.5 63.5t63.5 42.5t77.5 15.5h9zM401 618q0 29 -11 54.5
t-29.5 44t-44 29.5t-53.5 11h-13q-29 0 -54.5 -11t-44 -29.5t-29.5 -44t-11 -54.5v-428q0 -29 11 -54t29.5 -43.5t44 -29.5t54.5 -11h13q28 0 53.5 11t44 29.5t29.5 43.5t11 54v428zM263 747q27 0 50.5 -10t41 -27.5t27.5 -41t10 -50.5v-428q0 -27 -10 -50.5t-27.5 -41
t-41 -27.5t-50.5 -10h-13q-27 0 -50.5 10t-41 27.5t-27.5 41t-10 50.5v428q0 27 10 50.5t27.5 41t41 27.5t50.5 10h13zM330 613q0 30 -21 51t-51 21h-9q-30 0 -51 -21t-21 -51v-413q0 -30 21 -51t51 -21h9q30 0 51 21t21 51v413zM187 952q21 0 36 -14t15 -35t-15 -36
t-36 -15q-20 0 -34.5 15t-14.5 36t14.5 35t34.5 14zM187 890q13 0 13 13q0 5 -3.5 9t-9.5 4q-5 0 -9 -4t-4 -9q0 -6 4 -9.5t9 -3.5zM317 952q21 0 36 -14t15 -35t-15 -36t-36 -15q-20 0 -34.5 15t-14.5 36t14.5 35t34.5 14zM317 890q13 0 13 13q0 5 -3.5 9t-9.5 4
q-5 0 -9 -4t-4 -9q0 -6 4 -9.5t9 -3.5z" />
    <glyph glyph-name="multiply" unicode="&#xd7;" horiz-adv-x="419" 
d="M321 458l7 -7l41 -41l-70 -70l70 -71l-42 -42l-6 -6l-41 -41l-71 70l-70 -70l-41 41l-7 7l-41 41l70 70l-70 71l41 41l6 6l42 42l70 -70l71 70zM285 422l-76 -77l-77 77l-6 -7l76 -76l-75 -75l7 -7l75 75l75 -75l7 6l-76 76l77 76z" />
    <glyph glyph-name="Oslash" unicode="&#xd8;" horiz-adv-x="525" 
d="M475 851l-39 -118q22 -42 22 -88v-445q0 -41 -16 -77t-43 -63t-63.5 -43t-76.5 -16h-10q-11 0 -21.5 1t-21.5 4l-24 -74l-47 49l33 101q17 -11 36.5 -17t40.5 -6h15q29 0 54.5 11t44.5 30t30 44.5t11 54.5v440q0 23 -7 43.5t-19 37.5l38 119zM245 69q-42 0 -74 23
l199 617q20 -32 20 -70v-440q0 -27 -10 -50.5t-28 -41.5t-41.5 -28t-50.5 -10h-15zM330 399l-85 -271h4h10q30 0 50.5 21.5t20.5 50.5v199zM105 199q0 -34 15 -62.5t40 -48.5l-34 -107l-65 -12l34 106q-21 26 -33 58t-12 67v445q0 41 16 77t43 63t63 42.5t77 15.5h10
q40 0 74 -14l20 62l50 -48l-36 -114q-20 23 -47.5 36.5t-59.5 13.5h-15q-29 0 -54.5 -11t-44.5 -30t-30 -44.5t-11 -54.5v-440zM260 770q32 0 58.5 -14.5t44.5 -37.5l-200 -620q-22 18 -35 44t-13 57v440q0 27 10 51t28 41.5t41.5 28t50.5 10.5h15zM295 707q-18 10 -36 10
h-10q-29 0 -50.5 -21t-21.5 -51v-311z" />
    <glyph glyph-name="Ugrave" unicode="&#xd9;" horiz-adv-x="507" 
d="M248 66q-27 0 -50.5 10.5t-41.5 28t-28 41.5t-10 51v587l59 29v-614q0 -30 21 -51t51 -21h9q30 0 51 21t21 51v614l59 -30v-586q0 -27 -10.5 -51t-28 -41.5t-41.5 -28t-51 -10.5h-10zM398 783l59 30v-614q0 -41 -15.5 -77.5t-42.5 -63.5t-63.5 -42.5t-77.5 -15.5h-9
q-41 0 -77.5 15.5t-63.5 42.5t-42.5 63.5t-15.5 77.5v614l58 -30v-586q0 -29 11 -54.5t30 -44.5t44.5 -30t54.5 -11h10q29 0 54.5 11t44.5 30t30 44.5t11 54.5v586zM270 961l19 -114h-24l-26 114h31zM199 961h30l26 -114h-21z" />
    <glyph glyph-name="Uacute" unicode="&#xda;" horiz-adv-x="507" 
d="M248 66q-27 0 -50.5 10.5t-41.5 28t-28 41.5t-10 51v587l59 29v-614q0 -30 21 -51t51 -21h9q30 0 51 21t21 51v614l59 -30v-586q0 -27 -10.5 -51t-28 -41.5t-41.5 -28t-51 -10.5h-10zM398 783l59 30v-614q0 -41 -15.5 -77.5t-42.5 -63.5t-63.5 -42.5t-77.5 -15.5h-9
q-41 0 -77.5 15.5t-63.5 42.5t-42.5 63.5t-15.5 77.5v614l58 -30v-586q0 -29 11 -54.5t30 -44.5t44.5 -30t54.5 -11h10q29 0 54.5 11t44.5 30t30 44.5t11 54.5v586zM218 961h31l-26 -114h-24l19 114v0zM289 961l-35 -114h-21l26 114h30v0z" />
    <glyph glyph-name="Ucircumflex" unicode="&#xdb;" horiz-adv-x="520" 
d="M248 66q-27 0 -50.5 10.5t-41.5 28t-28 41.5t-10 51v587l59 29v-614q0 -30 21 -51t51 -21h9q30 0 51 21t21 51v614l59 -30v-586q0 -27 -10.5 -51t-28 -41.5t-41.5 -28t-51 -10.5h-10zM398 783l59 30v-614q0 -41 -15.5 -77.5t-42.5 -63.5t-63.5 -42.5t-77.5 -15.5h-9
q-41 0 -77.5 15.5t-63.5 42.5t-42.5 63.5t-15.5 77.5v614l58 -30v-586q0 -29 11 -54.5t30 -44.5t44.5 -30t54.5 -11h10q29 0 54.5 11t44.5 30t30 44.5t11 54.5v586zM147 929l127 110l132 -107h-1l-14 -69l-118 95l-110 -95zM271 1122l199 -162l-55 -24l-141 115l-135 -116
l-58 24z" />
    <glyph glyph-name="Udieresis" unicode="&#xdc;" horiz-adv-x="507" 
d="M248 66q-27 0 -50.5 10.5t-41.5 28t-28 41.5t-10 51v587l59 29v-614q0 -30 21 -51t51 -21h9q30 0 51 21t21 51v614l59 -30v-586q0 -27 -10.5 -51t-28 -41.5t-41.5 -28t-51 -10.5h-10zM398 783l59 30v-614q0 -41 -15.5 -77.5t-42.5 -63.5t-63.5 -42.5t-77.5 -15.5h-9
q-41 0 -77.5 15.5t-63.5 42.5t-42.5 63.5t-15.5 77.5v614l58 -30v-586q0 -29 11 -54.5t30 -44.5t44.5 -30t54.5 -11h10q29 0 54.5 11t44.5 30t30 44.5t11 54.5v586zM187 952q21 0 36 -14t15 -35t-15 -36t-36 -15q-20 0 -34.5 15t-14.5 36t14.5 35t34.5 14zM187 890
q13 0 13 13q0 5 -3.5 9t-9.5 4q-5 0 -9 -4t-4 -9q0 -6 4 -9.5t9 -3.5zM317 952q21 0 36 -14t15 -35t-15 -36t-36 -15q-20 0 -34.5 15t-14.5 36t14.5 35t34.5 14zM317 890q13 0 13 13q0 5 -3.5 9t-9.5 4q-5 0 -9 -4t-4 -9q0 -6 4 -9.5t9 -3.5z" />
    <glyph glyph-name="Yacute" unicode="&#xdd;" horiz-adv-x="537" 
d="M276 320l140 463l71 30l-153 -499v-314l-58 29v291zM406 783l-135 -447l-142 447l54 30l87 -277l84 277zM119 783l147 -465v-289l-58 -29v312l-158 501zM233 961h31l-26 -114h-24l19 114v0zM304 961l-35 -114h-21l26 114h30v0z" />
    <glyph glyph-name="Thorn" unicode="&#xde;" horiz-adv-x="462" 
d="M231 243q-42 0 -73 31t-37 77v242q6 46 37 77t73 31q23 0 43 -10t35 -27.5t24 -40.5t9 -49v-204q0 -26 -9 -49.5t-24 -40.5t-35 -27t-43 -10zM180 369q0 -29 15.5 -51t36.5 -22t37 22t16 51v187q0 29 -16 51t-37 22t-36.5 -22t-15.5 -51v-187zM110 370q0 -5 0.5 -9.5
t1.5 -9.5v-321l-62 -30v816l62 -29v-193q-1 -5 -1.5 -10t-0.5 -10v-204zM232 755q37 0 69.5 -15.5t57 -42.5t39 -63.5t14.5 -77.5v-187q0 -41 -14.5 -77.5t-39 -63.5t-57 -42.5t-69.5 -15.5q-14 0 -27.5 2t-27.5 7v-179l-56 30v284q14 -35 43.5 -57.5t66.5 -22.5
q25 0 47 10.5t38.5 29t26 43.5t9.5 53v204q0 28 -9.5 53t-26 43.5t-38.5 29.5t-47 11q-37 0 -66.5 -22.5t-43.5 -58.5v157l56 29v-71q14 5 27.5 7.5t27.5 2.5z" />
    <glyph glyph-name="germandbls" unicode="&#xdf;" horiz-adv-x="531" 
d="M388 513q93 -74 93 -246q0 -146 -70 -215q-23 -21 -48 -31.5t-49.5 -15t-46.5 -4.5t-39 1q-7 0 -12 1t-9 1l29 54q32 -3 67 1t64 30q56 50 56 179q0 128 -63 190q-19 19 -38 28t-34 13q18 6 34.5 19.5t30 31.5t21.5 40t8 47q0 29 -8.5 57t-24.5 50.5t-40.5 36.5t-55.5 14
t-57 -9t-45 -25t-29.5 -38t-10.5 -48v-644l-61 -30v678q0 51 25.5 93.5t73.5 66.5q51 26 106.5 24t100.5 -34q47 -32 67 -86t12 -120q-5 -35 -17.5 -62t-29.5 -48zM361 96q-27 -24 -60.5 -27.5t-64.5 -1.5l-29 64q7 0 13 -1t14 -1q29 -2 52 0t37 16q15 14 23 45.5t8 76.5
q0 55 -11.5 93t-34.5 55q-17 14 -36 16.5t-30 1.5q-5 -1 -8.5 -1t-6.5 -2l-21 125q5 0 17 3q9 1 22.5 6t26.5 14t23.5 24t13.5 37t-0.5 47t-24.5 39q-15 11 -36 12t-41 -9q-30 -17 -30 -49v-678l-57 30v644q0 24 10 44t27.5 35t42 23t53.5 8t51.5 -13t37.5 -34t22.5 -47.5
t7.5 -53.5q0 -23 -9 -46.5t-24.5 -43t-36 -32t-43.5 -12.5h-1v-10h1q1 0 10.5 -1t23 -5t29.5 -12.5t32 -23.5q59 -59 59 -183q0 -126 -52 -172z" />
    <glyph glyph-name="agrave" unicode="&#xe0;" horiz-adv-x="491" 
d="M163 201h165l37 -172l-53 -29l-26 140h-79l-28 -140l-53 29zM247 584l79 -373h-161zM247 344l-16 -78h30zM313 672l128 -672l-66 30l-123 578h-9l-127 -578l-66 -30l132 672h131zM262 817l19 -114h-24l-26 114h31zM191 817h30l26 -114h-21z" />
    <glyph glyph-name="aacute" unicode="&#xe1;" horiz-adv-x="491" 
d="M163 201h165l37 -172l-53 -29l-26 140h-79l-28 -140l-53 29zM247 584l79 -373h-161zM247 344l-16 -78h30zM313 672l128 -672l-66 30l-123 578h-9l-127 -578l-66 -30l132 672h131zM210 817h31l-26 -114h-24l19 114v0zM281 817l-35 -114h-21l26 114h30v0z" />
    <glyph glyph-name="acircumflex" unicode="&#xe2;" horiz-adv-x="511" 
d="M163 201h165l37 -172l-53 -29l-26 140h-79l-28 -140l-53 29zM247 584l79 -373h-161zM247 344l-16 -78h30zM313 672l128 -672l-66 30l-123 578h-9l-127 -578l-66 -30l132 672h131zM138 724l127 110l132 -107h-1l-14 -69l-118 95l-110 -95zM262 917l199 -162l-55 -24
l-141 115l-135 -116l-58 24z" />
    <glyph glyph-name="atilde" unicode="&#xe3;" horiz-adv-x="564" 
d="M208 201h165l37 -172l-53 -29l-26 140h-79l-28 -140l-53 29zM292 584l79 -373h-161zM292 344l-16 -78h30zM358 672l128 -672l-66 30l-123 578h-9l-127 -578l-66 -30l132 672h131zM359 702q31 0 54 11.5t38 25.5l63 -18q-39 -42 -77 -60.5t-76 -19.5h-1q-35 0 -62 12.5
t-47 26.5q-13 8 -24.5 14.5t-19.5 6.5q-5 0 -21 -7.5t-46 -36.5l-17 56q16 16 37.5 31.5t41.5 15.5q29 0 45.5 -9t32.5 -20q15 -11 32.5 -20t46.5 -9zM202 769q-23 0 -45 -15.5t-39 -32.5l-68 26q81 81 156 81h1q35 0 62 -13t49 -27q13 -8 23.5 -14t18.5 -6q5 0 21 6.5
t45 35.5l18 -64q-14 -13 -35.5 -23.5t-49.5 -10.5q-26 0 -42.5 8t-31.5 19q-16 11 -34 20.5t-49 9.5z" />
    <glyph glyph-name="adieresis" unicode="&#xe4;" horiz-adv-x="491" 
d="M163 201h165l37 -172l-53 -29l-26 140h-79l-28 -140l-53 29zM247 584l79 -373h-161zM247 344l-16 -78h30zM313 672l128 -672l-66 30l-123 578h-9l-127 -578l-66 -30l132 672h131zM180 808q21 0 36 -14t15 -35t-15 -36t-36 -15q-20 0 -34.5 15t-14.5 36t14.5 35t34.5 14z
M180 746q13 0 13 13q0 5 -3.5 9t-9.5 4q-5 0 -9 -4t-4 -9q0 -6 4 -9.5t9 -3.5zM310 808q21 0 36 -14t15 -35t-15 -36t-36 -15q-20 0 -34.5 15t-14.5 36t14.5 35t34.5 14zM310 746q13 0 13 13q0 5 -3.5 9t-9.5 4q-5 0 -9 -4t-4 -9q0 -6 4 -9.5t9 -3.5z" />
    <glyph glyph-name="aring" unicode="&#xe5;" horiz-adv-x="491" 
d="M163 201h165l37 -172l-53 -29l-26 140h-79l-28 -140l-53 29zM247 584l79 -373h-161zM247 344l-16 -78h30zM313 672l128 -672l-66 30l-123 578h-9l-127 -578l-66 -30l132 672h131zM246 633q-30 0 -56.5 11t-46.5 29.5t-31.5 44t-11.5 54.5t11.5 54.5t31.5 44.5t46.5 30
t56.5 11t56.5 -11t46.5 -30t31.5 -44.5t11.5 -54.5t-11.5 -54.5t-31.5 -44t-46.5 -29.5t-56.5 -11zM152 765q0 -40 27.5 -68t68.5 -28q20 0 37.5 7.5t31 20.5t21 30.5t7.5 37.5v11q0 20 -7.5 37.5t-21 31t-31 21t-37.5 7.5q-41 0 -68.5 -28.5t-27.5 -68.5v-11zM248 675
q-38 0 -63.5 26.5t-25.5 63.5v11q0 38 25.5 63.5t63.5 25.5t63.5 -25.5t25.5 -63.5v-11q0 -37 -25.5 -63.5t-63.5 -26.5zM205 772q0 -23 13.5 -37t27.5 -14t27.5 14t13.5 37t-13.5 37t-27.5 14t-27.5 -14t-13.5 -37z" />
    <glyph glyph-name="ae" unicode="&#xe6;" horiz-adv-x="717" 
d="M419 613q-4 0 -4 -3l-292 -579l-73 -31l330 662v7h12h80h195l-29 -56h-219zM414 216h-179l179 369v-369zM353 263l2 101l-38 -101h36zM424 603h214l29 -56h-189v-184h98l-28 -60h-124v300zM424 293h124l28 -53h-98v-66l3 -51h186l-29 -59h-214v229zM414 59q0 -5 5 -5h219
l29 -54h-184h-125h-3v99l-1 41h-86l-87 -140l-48 32l98 175h183v-148z" />
    <glyph glyph-name="ccedilla" unicode="&#xe7;" horiz-adv-x="443" 
d="M349 622q32 -32 44 -75l-73 13q-3 5 -7 9.5t-9 9.5q-33 31 -79 31h-7q-24 0 -44.5 -8.5t-35.5 -23t-24 -34t-9 -41.5v-338q0 -22 9 -41.5t24 -34.5t35.5 -23.5t44.5 -8.5h7q29 0 53 12.5t40 34.5l72 10q-19 -51 -63 -82.5t-98 -31.5h-8q-35 0 -66.5 13.5t-54.5 37
t-36.5 54.5t-13.5 67v327q0 36 13.5 67.5t36.5 55t54.5 37t66.5 13.5h8q70 0 120 -50zM298 572q8 -8 14 -17l-40 -43q-2 6 -5 10.5t-7 9.5q-15 13 -31 13h-8q-18 0 -31 -13.5t-13 -32.5v-327q0 -18 13 -31.5t31 -13.5h8q14 0 25.5 8t16.5 22l40 -46q-14 -20 -37 -32t-49 -12
h-7q-21 0 -40 7.5t-33.5 21t-22.5 31.5t-8 38v338q0 20 8 38t22.5 31t33.5 20.5t40 7.5h7q42 0 73 -28zM254 -119q7 22 1 38t-14 32q-6 11 -11.5 23t-8.5 27h52q0 -8 3 -13t10 -15q9 -11 20.5 -29.5t11.5 -47.5q0 -26 -11 -47t-31 -36t-47.5 -23.5t-60.5 -8.5v51q11 0 25 3
q50 9 61 46zM212 1q2 -17 8 -30t12 -24q8 -16 13.5 -30t-0.5 -33q-4 -13 -12.5 -21t-20 -12.5t-23 -6.5t-21.5 -2v65h8q-11 16 -20.5 38t-9.5 56h66z" />
    <glyph glyph-name="egrave" unicode="&#xe8;" horiz-adv-x="381" 
d="M108 613v-562h194l29 -50h-281v670h281l-29 -58h-194zM118 61v239h97l29 -57h-67v-116h154l-29 -66h-184zM118 310v293h184l29 -59h-154v-174h67l-29 -60h-97zM207 817l19 -114h-24l-26 114h31zM136 817h30l26 -114h-21z" />
    <glyph glyph-name="eacute" unicode="&#xe9;" horiz-adv-x="381" 
d="M108 613v-562h194l29 -50h-281v670h281l-29 -58h-194zM118 61v239h97l29 -57h-67v-116h154l-29 -66h-184zM118 310v293h184l29 -59h-154v-174h67l-29 -60h-97zM155 817h31l-26 -114h-24l19 114v0zM226 817l-35 -114h-21l26 114h30v0z" />
    <glyph glyph-name="ecircumflex" unicode="&#xea;" horiz-adv-x="489" 
d="M141 613v-562h194l29 -50h-281v670h281l-29 -58h-194zM151 61v239h97l29 -57h-67v-116h154l-29 -66h-184zM151 310v293h184l29 -59h-154v-174h67l-29 -60h-97zM116 793l127 110l132 -107h-1l-14 -69l-118 95l-110 -95zM240 986l199 -162l-55 -24l-141 115l-135 -116
l-58 24z" />
    <glyph glyph-name="edieresis" unicode="&#xeb;" horiz-adv-x="381" 
d="M108 613v-562h194l29 -50h-281v670h281l-29 -58h-194zM118 61v239h97l29 -57h-67v-116h154l-29 -66h-184zM118 310v293h184l29 -59h-154v-174h67l-29 -60h-97zM125 808q21 0 36 -14t15 -35t-15 -36t-36 -15q-20 0 -34.5 15t-14.5 36t14.5 35t34.5 14zM125 746q13 0 13 13
q0 5 -3.5 9t-9.5 4q-5 0 -9 -4t-4 -9q0 -6 4 -9.5t9 -3.5zM255 808q21 0 36 -14t15 -35t-15 -36t-36 -15q-20 0 -34.5 15t-14.5 36t14.5 35t34.5 14zM255 746q13 0 13 13q0 5 -3.5 9t-9.5 4q-5 0 -9 -4t-4 -9q0 -6 4 -9.5t9 -3.5z" />
    <glyph glyph-name="igrave" unicode="&#xec;" 
d="M108 671h10h59v-671h-59h-10h-58v671h58zM118 51v570h-10v-570h10zM130 817l19 -114h-24l-26 114h31zM59 817h30l26 -114h-21z" />
    <glyph glyph-name="iacute" unicode="&#xed;" 
d="M108 671h10h59v-671h-59h-10h-58v671h58zM118 51v570h-10v-570h10zM78 817h31l-26 -114h-24l19 114v0zM149 817l-35 -114h-21l26 114h30v0z" />
    <glyph glyph-name="icircumflex" unicode="&#xee;" horiz-adv-x="489" 
d="M219 671h10h59v-671h-59h-10h-58v671h58zM229 51v570h-10v-570h10zM116 724l127 110l132 -107h-1l-14 -69l-118 95l-110 -95zM240 917l199 -162l-55 -24l-141 115l-135 -116l-58 24z" />
    <glyph glyph-name="idieresis" unicode="&#xef;" horiz-adv-x="330" 
d="M159 671h10h59v-671h-59h-10h-58v671h58zM169 51v570h-10v-570h10zM99 808q21 0 36 -14t15 -35t-15 -36t-36 -15q-20 0 -34.5 15t-14.5 36t14.5 35t34.5 14zM99 746q13 0 13 13q0 5 -3.5 9t-9.5 4q-5 0 -9 -4t-4 -9q0 -6 4 -9.5t9 -3.5zM229 808q21 0 36 -14t15 -35
t-15 -36t-36 -15q-20 0 -34.5 15t-14.5 36t14.5 35t34.5 14zM229 746q13 0 13 13q0 5 -3.5 9t-9.5 4q-5 0 -9 -4t-4 -9q0 -6 4 -9.5t9 -3.5z" />
    <glyph glyph-name="eth" unicode="&#xf0;" horiz-adv-x="478" 
d="M287 836q30 -8 56 -26t44.5 -43.5t29.5 -57t11 -65.5v-262v-175v-8q0 -41 -15 -77.5t-40.5 -63.5t-60 -43t-73.5 -16t-73.5 16t-60 43t-40.5 63.5t-15 77.5v8v175q0 41 15 77t40.5 63t60 42.5t73.5 15.5q35 0 62 -10v74q0 14 -4 25t-10 22v-50l-47 28v110
q23 -1 43.5 -11.5t36 -28t24.5 -41t9 -49.5v-207q-14 38 -46 62.5t-72 24.5q-26 0 -49.5 -11t-41 -30t-27.5 -44.5t-10 -54.5v-190q0 -29 10 -54.5t27.5 -44.5t41 -30t49.5 -11t49 11t40.5 30t27.5 44.5t10 54.5v91v99v260q0 28 -9.5 53t-26 44t-39 30.5t-47.5 12.5v74
l47 29v-56zM230 789q-23 -1 -43 -10t-36 -24.5t-27 -36t-15 -44.5l-59 -30q0 34 10.5 65t28.5 56t43.5 43t55.5 27v57l42 -29v-74zM235 519q24 0 45.5 -10t37.5 -28t25.5 -41.5t9.5 -50.5v-99v-91q0 -27 -9.5 -51t-25.5 -41.5t-37.5 -28t-45.5 -10.5t-45.5 10.5t-37.5 28
t-25.5 41.5t-9.5 51v190q0 27 9.5 50.5t25.5 41.5t37.5 28t45.5 10zM301 382q0 29 -18.5 50.5t-43.5 21.5q-26 0 -44 -21.5t-18 -50.5v-175q0 -29 18 -50.5t44 -21.5q25 0 43.5 21.5t18.5 50.5v175zM119 672q7 45 38 75t73 32v-110l-42 -28v44q-11 -19 -11 -41z" />
    <glyph glyph-name="ntilde" unicode="&#xf1;" horiz-adv-x="564" 
d="M172 611l-9 -2v-580l-58 -29v669l-1 3h1h127h7l112 -306v306l58 -29v-534zM419 86v556l59 30v-652v-11v-9h-25h-102h-1l-118 324v-324l-59 29v558l236 -501l1 -1l1 1h8zM359 702q31 0 54 11.5t38 25.5l63 -18q-39 -42 -77 -60.5t-76 -19.5h-1q-35 0 -62 12.5t-47 26.5
q-13 8 -24.5 14.5t-19.5 6.5q-5 0 -21 -7.5t-46 -36.5l-17 56q16 16 37.5 31.5t41.5 15.5q29 0 45.5 -9t32.5 -20q15 -11 32.5 -20t46.5 -9zM202 769q-23 0 -45 -15.5t-39 -32.5l-68 26q81 81 156 81h1q35 0 62 -13t49 -27q13 -8 23.5 -14t18.5 -6q5 0 21 6.5t45 35.5
l18 -64q-14 -13 -35.5 -23.5t-49.5 -10.5q-26 0 -42.5 8t-31.5 19q-16 11 -34 20.5t-49 9.5z" />
    <glyph glyph-name="ograve" unicode="&#xf2;" horiz-adv-x="451" 
d="M226 0q-36 0 -68 15.5t-56 42.5t-38 63.5t-14 77.5v274q0 41 14 77.5t38 63.5t56 42.5t68 15.5t68 -15.5t55.5 -42.5t37.5 -63.5t14 -77.5v-274q0 -41 -14 -77.5t-37.5 -63.5t-55.5 -42.5t-68 -15.5zM112 189q0 -29 9 -54t25 -43.5t37 -29.5t45 -11t45.5 11t37 29.5
t25 43.5t9.5 54v289q0 28 -9.5 53.5t-25 44t-37 29.5t-45.5 11t-45 -11t-37 -29.5t-25 -44t-9 -53.5v-289zM228 61q-22 0 -41.5 10t-34 27.5t-23 40.5t-8.5 50v289q0 27 8.5 50t23 40.5t34 27.5t41.5 10t41.5 -10t34 -27.5t23 -40.5t8.5 -50v-289q0 -27 -8.5 -50t-23 -40.5
t-34 -27.5t-41.5 -10zM177 199q0 -32 16 -52.5t33 -20.5t32.5 20.5t15.5 52.5v274q0 32 -15.5 52t-32.5 20t-33 -20t-16 -52v-274zM242 817l19 -114h-24l-26 114h31zM171 817h30l26 -114h-21z" />
    <glyph glyph-name="oacute" unicode="&#xf3;" horiz-adv-x="451" 
d="M226 0q-36 0 -68 15.5t-56 42.5t-38 63.5t-14 77.5v274q0 41 14 77.5t38 63.5t56 42.5t68 15.5t68 -15.5t55.5 -42.5t37.5 -63.5t14 -77.5v-274q0 -41 -14 -77.5t-37.5 -63.5t-55.5 -42.5t-68 -15.5zM112 189q0 -29 9 -54t25 -43.5t37 -29.5t45 -11t45.5 11t37 29.5
t25 43.5t9.5 54v289q0 28 -9.5 53.5t-25 44t-37 29.5t-45.5 11t-45 -11t-37 -29.5t-25 -44t-9 -53.5v-289zM228 61q-22 0 -41.5 10t-34 27.5t-23 40.5t-8.5 50v289q0 27 8.5 50t23 40.5t34 27.5t41.5 10t41.5 -10t34 -27.5t23 -40.5t8.5 -50v-289q0 -27 -8.5 -50t-23 -40.5
t-34 -27.5t-41.5 -10zM177 199q0 -32 16 -52.5t33 -20.5t32.5 20.5t15.5 52.5v274q0 32 -15.5 52t-32.5 20t-33 -20t-16 -52v-274zM190 817h31l-26 -114h-24l19 114v0zM261 817l-35 -114h-21l26 114h30v0z" />
    <glyph glyph-name="ocircumflex" unicode="&#xf4;" horiz-adv-x="490" 
d="M226 0q-36 0 -68 15.5t-56 42.5t-38 63.5t-14 77.5v274q0 41 14 77.5t38 63.5t56 42.5t68 15.5t68 -15.5t55.5 -42.5t37.5 -63.5t14 -77.5v-274q0 -41 -14 -77.5t-37.5 -63.5t-55.5 -42.5t-68 -15.5zM112 189q0 -29 9 -54t25 -43.5t37 -29.5t45 -11t45.5 11t37 29.5
t25 43.5t9.5 54v289q0 28 -9.5 53.5t-25 44t-37 29.5t-45.5 11t-45 -11t-37 -29.5t-25 -44t-9 -53.5v-289zM228 61q-22 0 -41.5 10t-34 27.5t-23 40.5t-8.5 50v289q0 27 8.5 50t23 40.5t34 27.5t41.5 10t41.5 -10t34 -27.5t23 -40.5t8.5 -50v-289q0 -27 -8.5 -50t-23 -40.5
t-34 -27.5t-41.5 -10zM177 199q0 -32 16 -52.5t33 -20.5t32.5 20.5t15.5 52.5v274q0 32 -15.5 52t-32.5 20t-33 -20t-16 -52v-274zM117 724l127 110l132 -107h-1l-14 -69l-118 95l-110 -95zM241 917l199 -162l-55 -24l-141 115l-135 -116l-58 24z" />
    <glyph glyph-name="otilde" unicode="&#xf5;" horiz-adv-x="564" 
d="M292 0q-36 0 -68 15.5t-56 42.5t-38 63.5t-14 77.5v274q0 41 14 77.5t38 63.5t56 42.5t68 15.5t68 -15.5t55.5 -42.5t37.5 -63.5t14 -77.5v-274q0 -41 -14 -77.5t-37.5 -63.5t-55.5 -42.5t-68 -15.5zM178 189q0 -29 9 -54t25 -43.5t37 -29.5t45 -11t45.5 11t37 29.5
t25 43.5t9.5 54v289q0 28 -9.5 53.5t-25 44t-37 29.5t-45.5 11t-45 -11t-37 -29.5t-25 -44t-9 -53.5v-289zM294 61q-22 0 -41.5 10t-34 27.5t-23 40.5t-8.5 50v289q0 27 8.5 50t23 40.5t34 27.5t41.5 10t41.5 -10t34 -27.5t23 -40.5t8.5 -50v-289q0 -27 -8.5 -50t-23 -40.5
t-34 -27.5t-41.5 -10zM243 199q0 -32 16 -52.5t33 -20.5t32.5 20.5t15.5 52.5v274q0 32 -15.5 52t-32.5 20t-33 -20t-16 -52v-274zM359 702q31 0 54 11.5t38 25.5l63 -18q-39 -42 -77 -60.5t-76 -19.5h-1q-35 0 -62 12.5t-47 26.5q-13 8 -24.5 14.5t-19.5 6.5q-5 0 -21 -7.5
t-46 -36.5l-17 56q16 16 37.5 31.5t41.5 15.5q29 0 45.5 -9t32.5 -20q15 -11 32.5 -20t46.5 -9zM202 769q-23 0 -45 -15.5t-39 -32.5l-68 26q81 81 156 81h1q35 0 62 -13t49 -27q13 -8 23.5 -14t18.5 -6q5 0 21 6.5t45 35.5l18 -64q-14 -13 -35.5 -23.5t-49.5 -10.5
q-26 0 -42.5 8t-31.5 19q-16 11 -34 20.5t-49 9.5z" />
    <glyph glyph-name="odieresis" unicode="&#xf6;" horiz-adv-x="451" 
d="M226 0q-36 0 -68 15.5t-56 42.5t-38 63.5t-14 77.5v274q0 41 14 77.5t38 63.5t56 42.5t68 15.5t68 -15.5t55.5 -42.5t37.5 -63.5t14 -77.5v-274q0 -41 -14 -77.5t-37.5 -63.5t-55.5 -42.5t-68 -15.5zM112 189q0 -29 9 -54t25 -43.5t37 -29.5t45 -11t45.5 11t37 29.5
t25 43.5t9.5 54v289q0 28 -9.5 53.5t-25 44t-37 29.5t-45.5 11t-45 -11t-37 -29.5t-25 -44t-9 -53.5v-289zM228 61q-22 0 -41.5 10t-34 27.5t-23 40.5t-8.5 50v289q0 27 8.5 50t23 40.5t34 27.5t41.5 10t41.5 -10t34 -27.5t23 -40.5t8.5 -50v-289q0 -27 -8.5 -50t-23 -40.5
t-34 -27.5t-41.5 -10zM177 199q0 -32 16 -52.5t33 -20.5t32.5 20.5t15.5 52.5v274q0 32 -15.5 52t-32.5 20t-33 -20t-16 -52v-274zM159 808q21 0 36 -14t15 -35t-15 -36t-36 -15q-20 0 -34.5 15t-14.5 36t14.5 35t34.5 14zM159 746q13 0 13 13q0 5 -3.5 9t-9.5 4q-5 0 -9 -4
t-4 -9q0 -6 4 -9.5t9 -3.5zM289 808q21 0 36 -14t15 -35t-15 -36t-36 -15q-20 0 -34.5 15t-14.5 36t14.5 35t34.5 14zM289 746q13 0 13 13q0 5 -3.5 9t-9.5 4q-5 0 -9 -4t-4 -9q0 -6 4 -9.5t9 -3.5z" />
    <glyph glyph-name="divide" unicode="&#xf7;" horiz-adv-x="445" 
d="M231 203v48l42 17v-82zM183 268l38 -17v-48l-38 -17v82zM231 621l42 17v-82l-42 17v48zM221 621v-48l-38 -17v82zM395 476l-29 -59h-286l-30 59h345zM50 350l30 58h286l29 -58h-345z" />
    <glyph glyph-name="oslash" unicode="&#xf8;" horiz-adv-x="461" 
d="M105 199q0 -32 12 -59.5t33 -47.5l-39 -120h-61l35 113q-15 24 -24 53.5t-9 61.5v220q0 41 14 77t38.5 63t57 43t69.5 16h12.5t10.5 -2l19 59l50 -46l-27 -84q-14 9 -30.5 14.5t-34.5 5.5q-26 0 -49 -11t-40 -30t-27 -44.5t-10 -54.5v-227zM366 550q21 -26 33 -59t12 -71
v-220q0 -41 -14 -77t-38.5 -63t-57.5 -43t-70 -16q-10 0 -19 1t-18 4l-23 -72l-50 37l37 114q32 -26 73 -26q26 0 49 11t40 30t27 44.5t10 54.5v227q0 35 -14.5 64.5t-38.5 49.5l28 88l62 10zM114 426q0 27 9.5 50.5t25 41.5t37 28t45.5 10q34 0 62 -20l-140 -434
q-18 18 -28.5 43t-10.5 54v227zM213 488q-14 -8 -24 -26.5t-10 -41.5v-41zM231 69q-41 0 -70 26l140 435q21 -18 33.5 -45t12.5 -59v-227q0 -27 -9 -50.5t-25 -41.5t-37 -28t-45 -10zM233 128q20 1 35.5 22.5t15.5 49.5v90z" />
    <glyph glyph-name="ugrave" unicode="&#xf9;" horiz-adv-x="456" 
d="M227 66q-23 0 -42.5 10.5t-34.5 28t-23.5 41.5t-8.5 51v445l59 30v-473q0 -29 15.5 -50.5t35.5 -21.5t35.5 21.5t15.5 50.5v473l58 -30v-445q0 -27 -8.5 -51t-23.5 -41.5t-35 -28t-43 -10.5zM347 642l59 30v-473q0 -41 -14 -77.5t-38 -63.5t-56.5 -42.5t-69.5 -15.5
t-69.5 15.5t-56.5 42.5t-38 63.5t-14 77.5v473l58 -30v-445q0 -29 9.5 -55t25.5 -45t38 -30t46 -11q25 0 46.5 11t38 30t26 45t9.5 55v445zM244 817l19 -114h-24l-26 114h31zM173 817h30l26 -114h-21z" />
    <glyph glyph-name="uacute" unicode="&#xfa;" horiz-adv-x="456" 
d="M227 66q-23 0 -42.5 10.5t-34.5 28t-23.5 41.5t-8.5 51v445l59 30v-473q0 -29 15.5 -50.5t35.5 -21.5t35.5 21.5t15.5 50.5v473l58 -30v-445q0 -27 -8.5 -51t-23.5 -41.5t-35 -28t-43 -10.5zM347 642l59 30v-473q0 -41 -14 -77.5t-38 -63.5t-56.5 -42.5t-69.5 -15.5
t-69.5 15.5t-56.5 42.5t-38 63.5t-14 77.5v473l58 -30v-445q0 -29 9.5 -55t25.5 -45t38 -30t46 -11q25 0 46.5 11t38 30t26 45t9.5 55v445zM192 817h31l-26 -114h-24l19 114v0zM263 817l-35 -114h-21l26 114h30v0z" />
    <glyph glyph-name="ucircumflex" unicode="&#xfb;" horiz-adv-x="493" 
d="M227 66q-23 0 -42.5 10.5t-34.5 28t-23.5 41.5t-8.5 51v445l59 30v-473q0 -29 15.5 -50.5t35.5 -21.5t35.5 21.5t15.5 50.5v473l58 -30v-445q0 -27 -8.5 -51t-23.5 -41.5t-35 -28t-43 -10.5zM347 642l59 30v-473q0 -41 -14 -77.5t-38 -63.5t-56.5 -42.5t-69.5 -15.5
t-69.5 15.5t-56.5 42.5t-38 63.5t-14 77.5v473l58 -30v-445q0 -29 9.5 -55t25.5 -45t38 -30t46 -11q25 0 46.5 11t38 30t26 45t9.5 55v445zM120 724l127 110l132 -107h-1l-14 -69l-118 95l-110 -95zM244 917l199 -162l-55 -24l-141 115l-135 -116l-58 24z" />
    <glyph glyph-name="udieresis" unicode="&#xfc;" horiz-adv-x="456" 
d="M227 66q-23 0 -42.5 10.5t-34.5 28t-23.5 41.5t-8.5 51v445l59 30v-473q0 -29 15.5 -50.5t35.5 -21.5t35.5 21.5t15.5 50.5v473l58 -30v-445q0 -27 -8.5 -51t-23.5 -41.5t-35 -28t-43 -10.5zM347 642l59 30v-473q0 -41 -14 -77.5t-38 -63.5t-56.5 -42.5t-69.5 -15.5
t-69.5 15.5t-56.5 42.5t-38 63.5t-14 77.5v473l58 -30v-445q0 -29 9.5 -55t25.5 -45t38 -30t46 -11q25 0 46.5 11t38 30t26 45t9.5 55v445zM162 808q21 0 36 -14t15 -35t-15 -36t-36 -15q-20 0 -34.5 15t-14.5 36t14.5 35t34.5 14zM162 746q13 0 13 13q0 5 -3.5 9t-9.5 4
q-5 0 -9 -4t-4 -9q0 -6 4 -9.5t9 -3.5zM292 808q21 0 36 -14t15 -35t-15 -36t-36 -15q-20 0 -34.5 15t-14.5 36t14.5 35t34.5 14zM292 746q13 0 13 13q0 5 -3.5 9t-9.5 4q-5 0 -9 -4t-4 -9q0 -6 4 -9.5t9 -3.5z" />
    <glyph glyph-name="yacute" unicode="&#xfd;" horiz-adv-x="481" 
d="M120 642l117 -373v-240l-58 -29v262l-129 410zM352 643l-110 -357l-113 357l54 29l58 -186l57 186zM247 270l115 372l69 30l-125 -409v-263l-59 29v241zM205 817h31l-26 -114h-24l19 114v0zM276 817l-35 -114h-21l26 114h30v0z" />
    <glyph glyph-name="thorn" unicode="&#xfe;" horiz-adv-x="462" 
d="M231 63q-42 0 -73 31t-37 77v241q3 23 12.5 43t24.5 34.5t33.5 23t39.5 8.5q23 0 43 -10t35 -27.5t24 -40.5t9 -50v-203q0 -26 -9 -49.5t-24 -40.5t-35 -27t-43 -10zM180 200q0 -29 15.5 -50.5t36.5 -21.5t37 21.5t16 50.5v188q0 29 -16 50.5t-37 21.5t-36.5 -21.5
t-15.5 -50.5v-188zM110 190q0 -5 0.5 -10t1.5 -10v-309l-62 -29v816l62 -30v-205q-1 -5 -1.5 -10t-0.5 -10v-203zM232 587q37 0 69.5 -16t57 -43t39 -63t14.5 -77v-188q0 -41 -14.5 -77t-39 -63t-57 -43t-69.5 -16q-14 0 -27.5 2t-27.5 7v-178l-56 29v273q14 -36 43.5 -58.5
t66.5 -22.5q25 0 47 10.5t38.5 29.5t26 43.5t9.5 53.5v203q0 28 -9.5 53t-26 44t-38.5 29.5t-47 10.5q-37 0 -66.5 -22.5t-43.5 -57.5v169l56 29v-71q14 5 27.5 7.5t27.5 2.5z" />
    <glyph glyph-name="ydieresis" unicode="&#xff;" horiz-adv-x="481" 
d="M120 642l117 -373v-240l-58 -29v262l-129 410zM352 643l-110 -357l-113 357l54 29l58 -186l57 186zM247 270l115 372l69 30l-125 -409v-263l-59 29v241zM174 808q21 0 36 -14t15 -35t-15 -36t-36 -15q-20 0 -34.5 15t-14.5 36t14.5 35t34.5 14zM174 746q13 0 13 13
q0 5 -3.5 9t-9.5 4q-5 0 -9 -4t-4 -9q0 -6 4 -9.5t9 -3.5zM304 808q21 0 36 -14t15 -35t-15 -36t-36 -15q-20 0 -34.5 15t-14.5 36t14.5 35t34.5 14zM304 746q13 0 13 13q0 5 -3.5 9t-9.5 4q-5 0 -9 -4t-4 -9q0 -6 4 -9.5t9 -3.5z" />
    <glyph glyph-name="dotlessi" unicode="&#x131;" 
d="M108 671h10h59v-671h-59h-10h-58v671h58zM118 51v570h-10v-570h10z" />
    <glyph glyph-name="Lslash" unicode="&#x141;" horiz-adv-x="460" 
d="M159 418v58h57v-58h-57zM216 476h-57v305h57v-305zM278 418h-62v58h91zM80 409h9v-59h-39zM89 476v-58h-9l-30 58h39zM150 418h-61v58h61v-58zM150 781v-305h-61v305h61zM159 409h57v-59h-57v59zM159 66v284h57v-223h194l-30 -61h-221zM150 61l5 -5h225l30 -56h-321v350
h61v-289zM150 409v-59h-61v59h61zM216 350v59h62l29 -59h-91z" />
    <glyph glyph-name="lslash" unicode="&#x142;" horiz-adv-x="379" 
d="M119 477v-59h-39l-30 59h69zM80 409h39v-67h-69zM180 409v-67h-61v67h61zM180 418h-61v59h61v-59zM190 418v59h55v-59h-55zM180 785v-308h-61v337zM119 342h61v-312l-61 -30v342zM245 477h-55v308l55 29v-337zM300 418h-55v59h84zM190 409h55v-67h-55v67zM190 29v313h55
v-342zM245 342v67h55l29 -67h-84z" />
    <glyph glyph-name="OE" unicode="&#x152;" horiz-adv-x="705" 
d="M268 737q27 0 50.5 -10.5t41.5 -28t28 -41.5t10 -51v-407q0 -27 -10 -50.5t-28 -41.5t-41.5 -28t-50.5 -10h-24q-27 0 -51 10t-41.5 28t-28 41.5t-10.5 50.5v407q0 27 10.5 51t28 41.5t41.5 28t51 10.5h24zM331 613q0 29 -21.5 50.5t-50.5 21.5h-10q-29 0 -50.5 -21.5
t-21.5 -50.5v-414q0 -30 21.5 -51t50.5 -21h10q29 0 50.5 21t21.5 51v414zM403 59h223l29 -59h-321v14q-34 -14 -75 -14h-10q-41 0 -77 16t-63 43t-43 63t-16 77v414q0 41 16 77t43 63t63 42.5t77 15.5h10q40 0 75 -16v17h321l-29 -59h-223l-5 -5v-91q-15 39 -50 64t-80 25
h-24q-29 0 -54.5 -11t-44.5 -30t-30 -44.5t-11 -54.5v-407q0 -29 11 -54.5t30 -44.5t44.5 -30t54.5 -11h24q45 0 80 25t50 65v-85zM408 743h218l29 -57h-194v-251h101l-29 -62h-125v233v137zM408 363h125l29 -55h-101v-181h194l-29 -58h-218v130v164z" />
    <glyph glyph-name="oe" unicode="&#x153;" horiz-adv-x="705" 
d="M268 597q27 0 50.5 -10.5t41.5 -28t28 -41.5t10 -51v-267q0 -27 -10 -50.5t-28 -41.5t-41.5 -28t-50.5 -10h-24q-27 0 -51 10t-41.5 28t-28 41.5t-10.5 50.5v267q0 27 10.5 51t28 41.5t41.5 28t51 10.5h24zM331 473q0 29 -21.5 50.5t-50.5 21.5h-10q-29 0 -50.5 -21.5
t-21.5 -50.5v-274q0 -30 21.5 -51t50.5 -21h10q29 0 50.5 21t21.5 51v274zM403 59h223l29 -59h-321v14q-34 -14 -75 -14h-10q-41 0 -77 16t-63 43t-43 63t-16 77v274q0 41 16 77t43 63t63 42.5t77 15.5h10q40 0 75 -16v17h321l-29 -59h-223l-5 -5v-91q-15 39 -50 64t-80 25
h-24q-29 0 -54.5 -11t-44.5 -30t-30 -44.5t-11 -54.5v-267q0 -29 11 -54.5t30 -44.5t44.5 -30t54.5 -11h24q45 0 80 25t50 65v-85zM408 603h218l29 -57h-194v-171h101l-29 -62h-125v153v137zM408 303h125l29 -55h-101v-121h194l-29 -58h-218v130v104z" />
    <glyph glyph-name="Scaron" unicode="&#x160;" horiz-adv-x="504" 
d="M293 458q27 -23 56 -50t52.5 -59.5t38 -72.5t13.5 -89q-2 -56 -22.5 -90t-41.5 -51q-54 -45 -136 -45q-42 0 -78.5 15.5t-63.5 41.5t-42.5 61.5t-15.5 75.5l60 -29q4 -24 17 -45t31.5 -36.5t41.5 -24t49 -8.5q66 0 103 34.5t39 96.5q1 40 -11 72t-32 59.5t-45.5 51
t-51.5 46.5t-51 46t-43.5 48.5t-30 55t-10.5 66.5q0 25 10.5 46.5t28.5 37.5t42 25.5t52 9.5q48 0 83.5 -29t45.5 -72l-55 -29q0 28 -21.5 47.5t-51.5 19.5q-32 0 -53.5 -17t-21.5 -42q0 -24 7.5 -45t22.5 -40.5t36.5 -39t48.5 -42.5zM252 62q-24 0 -45.5 8t-39 22t-29 33
t-15.5 41l56 29q0 -28 21.5 -47.5t52.5 -19.5q27 0 42 7t21.5 17t8 20.5t1.5 17.5q1 25 -7 46.5t-23 41.5t-37 40.5t-49 43.5t-55 49t-51.5 58t-38 71t-14.5 87q0 39 16 72.5t43.5 58t64 39t78.5 14.5q41 0 77.5 -15.5t63.5 -41.5t43 -61.5t16 -75.5l-62 29q-5 24 -17.5 44
t-31 34.5t-41.5 23t-49 8.5q-30 0 -55.5 -10t-45 -27t-31 -40.5t-11.5 -50.5q0 -38 12 -69.5t31.5 -58t44.5 -50t51 -45.5q27 -23 52 -46.5t44 -49.5t30 -57t10 -69q-1 -57 -36 -89t-96 -32zM129 1005l16 66l110 -95l118 95l14 -69h1l-132 -107zM253 812l-190 163l58 24
l135 -116l141 115l55 -24z" />
    <glyph glyph-name="scaron" unicode="&#x161;" horiz-adv-x="489" 
d="M240 72q-35 0 -62 19t-38 48l53 28q0 -17 13.5 -29t33.5 -12q17 0 26.5 4t14 10t5.5 12.5t1 11.5q1 36 -23 63.5t-66 63.5q-23 19 -46.5 40.5t-43 48.5t-31.5 59.5t-12 73.5q0 33 14 62t37.5 50.5t55.5 34t68 12.5t67.5 -13t55.5 -36t37.5 -53.5t13.5 -64.5l-63 29
q-9 35 -39.5 59t-71.5 24q-24 0 -45.5 -8t-37 -21.5t-25 -32.5t-9.5 -40q0 -30 9.5 -55t25.5 -46t36 -39t41 -36q22 -18 42 -36t35.5 -38.5t24.5 -44.5t8 -54q-1 -45 -29 -69.5t-76 -24.5zM280 388q23 -20 47 -42t44 -49.5t32 -61t11 -75.5q-1 -36 -14 -65.5t-36 -50.5
t-54.5 -32.5t-69.5 -11.5q-36 0 -67.5 13t-55.5 36t-37.5 53t-13.5 65l64 -31q12 -32 42 -53t68 -21q53 0 83 27.5t32 76.5q1 31 -9 56.5t-26 47t-36.5 40t-41.5 36.5t-41 36t-35 38t-24 43t-9 52q0 39 31 65.5t76 26.5q36 0 64.5 -20.5t37.5 -52.5l-55 -29q0 17 -13.5 29
t-33.5 12t-34 -10.5t-14 -24.5q0 -17 6 -32t17 -29.5t27.5 -29.5t37.5 -32zM116 861l16 66l110 -95l118 95l14 -69h1l-132 -107zM240 668l-190 163l58 24l135 -116l141 115l55 -24z" />
    <glyph glyph-name="Ydieresis" unicode="&#x178;" horiz-adv-x="537" 
d="M276 320l140 463l71 30l-153 -499v-314l-58 29v291zM406 783l-135 -447l-142 447l54 30l87 -277l84 277zM119 783l147 -465v-289l-58 -29v312l-158 501zM202 952q21 0 36 -14t15 -35t-15 -36t-36 -15q-20 0 -34.5 15t-14.5 36t14.5 35t34.5 14zM202 890q13 0 13 13
q0 5 -3.5 9t-9.5 4q-5 0 -9 -4t-4 -9q0 -6 4 -9.5t9 -3.5zM332 952q21 0 36 -14t15 -35t-15 -36t-36 -15q-20 0 -34.5 15t-14.5 36t14.5 35t34.5 14zM332 890q13 0 13 13q0 5 -3.5 9t-9.5 4q-5 0 -9 -4t-4 -9q0 -6 4 -9.5t9 -3.5z" />
    <glyph glyph-name="Zcaron" unicode="&#x17d;" horiz-adv-x="540" 
d="M355 813h135l-257 -686h225l-29 -64h-281l256 685l2 6h-287l-29 58h264zM136 60l-2 -7h295l29 -52h-273v-1h-135l257 685h-217l29 60h274zM167 1075l16 66l110 -95l118 95l14 -69h1l-132 -107zM291 882l-190 163l58 24l135 -116l141 115l55 -24z" />
    <glyph glyph-name="zcaron" unicode="&#x17e;" horiz-adv-x="508" 
d="M341 604l-201 -551h242l29 -53h-225h-98h-38l38 98l10 28l162 420h-172l29 58h224zM395 672h49l-210 -546h177l-29 -63h-229l202 551h-238l-29 58h221h86zM135 942l16 66l110 -95l118 95l14 -69h1l-132 -107zM259 749l-190 163l58 24l135 -116l141 115l55 -24z" />
    <glyph glyph-name="florin" unicode="&#x192;" horiz-adv-x="381" 
d="M331 671v-54v-10v-62h-154v-177h66v-127h-66v-241h-59h-10h-58v671h281zM280 607v10h-172v-566h10v248h75v9h-75v299h162z" />
    <glyph glyph-name="circumflex" unicode="&#x2c6;" horiz-adv-x="489" 
d="M116 724l127 110l132 -107h-1l-14 -69l-118 95l-110 -95zM240 917l199 -162l-55 -24l-141 115l-135 -116l-58 24z" />
    <glyph glyph-name="caron" unicode="&#x2c7;" horiz-adv-x="489" 
d="M116 861l16 66l110 -95l118 95l14 -69h1l-132 -107zM240 668l-190 163l58 24l135 -116l141 115l55 -24z" />
    <glyph glyph-name="breve" unicode="&#x2d8;" horiz-adv-x="459" 
d="M227 678q48 0 83.5 32t45.5 80l53 27q0 -41 -14.5 -77t-39 -63t-57 -42.5t-69.5 -15.5t-69.5 15.5t-57 42.5t-38.5 63t-14 77l48 -27q9 -48 45 -80t84 -32zM229 745q22 0 37.5 21.5t15.5 50.5l63 -30q-10 -43 -42.5 -71.5t-75.5 -28.5t-76 28.5t-43 71.5l69 30
q0 -29 15.5 -50.5t36.5 -21.5z" />
    <glyph glyph-name="dotaccent" unicode="&#x2d9;" horiz-adv-x="200" 
d="M99 808q21 0 36 -14t15 -35t-15 -36t-36 -15q-20 0 -34.5 15t-14.5 36t14.5 35t34.5 14zM99 746q13 0 13 13q0 5 -3.5 9t-9.5 4q-5 0 -9 -4t-4 -9q0 -6 4 -9.5t9 -3.5z" />
    <glyph glyph-name="ring" unicode="&#x2da;" horiz-adv-x="392" 
d="M196 633q-30 0 -56.5 11t-46.5 29.5t-31.5 44t-11.5 54.5t11.5 54.5t31.5 44.5t46.5 30t56.5 11t56.5 -11t46.5 -30t31.5 -44.5t11.5 -54.5t-11.5 -54.5t-31.5 -44t-46.5 -29.5t-56.5 -11zM102 765q0 -40 27.5 -68t68.5 -28q20 0 37.5 7.5t31 20.5t21 30.5t7.5 37.5v11
q0 20 -7.5 37.5t-21 31t-31 21t-37.5 7.5q-41 0 -68.5 -28.5t-27.5 -68.5v-11zM198 675q-38 0 -63.5 26.5t-25.5 63.5v11q0 38 25.5 63.5t63.5 25.5t63.5 -25.5t25.5 -63.5v-11q0 -37 -25.5 -63.5t-63.5 -26.5zM155 772q0 -23 13.5 -37t27.5 -14t27.5 14t13.5 37t-13.5 37
t-27.5 14t-27.5 -14t-13.5 -37z" />
    <glyph glyph-name="ogonek" unicode="&#x2db;" horiz-adv-x="272" 
d="M114 -110q11 -37 61 -46q13 -3 25 -3v-51q-33 0 -60.5 8.5t-47.5 23.5t-31 36t-11 47q0 29 11.5 47.5t20.5 29.5q7 10 10 15t3 13h52q-3 -15 -8.5 -27t-11.5 -23q-8 -16 -14 -32t1 -38zM222 10q0 -34 -9.5 -56t-20.5 -38h8v-65q-10 0 -21.5 2t-23 6.5t-20 12.5t-12.5 21
q-6 19 -0.5 33t13.5 30q6 11 12 24t8 30h66z" />
    <glyph glyph-name="tilde" unicode="&#x2dc;" horiz-adv-x="564" 
d="M359 702q31 0 54 11.5t38 25.5l63 -18q-39 -42 -77 -60.5t-76 -19.5h-1q-35 0 -62 12.5t-47 26.5q-13 8 -24.5 14.5t-19.5 6.5q-5 0 -21 -7.5t-46 -36.5l-17 56q16 16 37.5 31.5t41.5 15.5q29 0 45.5 -9t32.5 -20q15 -11 32.5 -20t46.5 -9zM202 769q-23 0 -45 -15.5
t-39 -32.5l-68 26q81 81 156 81h1q35 0 62 -13t49 -27q13 -8 23.5 -14t18.5 -6q5 0 21 6.5t45 35.5l18 -64q-14 -13 -35.5 -23.5t-49.5 -10.5q-26 0 -42.5 8t-31.5 19q-16 11 -34 20.5t-49 9.5z" />
    <glyph glyph-name="hungarumlaut" unicode="&#x2dd;" horiz-adv-x="289" 
d="M139 820l-35 -114h-54l19 114h70zM87 734l15 58h-9l-16 -58h10zM239 820l-35 -114h-54l19 114h70zM187 734l15 58h-9l-16 -58h10z" />
    <glyph glyph-name="endash" unicode="&#x2013;" horiz-adv-x="455" 
d="M405 479v-59v-9v-58h-355v58v9v59h355zM354 411v9h-253v-9h253z" />
    <glyph glyph-name="emdash" unicode="&#x2014;" horiz-adv-x="565" 
d="M515 479v-59v-9v-58h-465v58v9v59h465zM464 411v9h-363v-9h363z" />
    <glyph glyph-name="quoteleft" unicode="&#x2018;" horiz-adv-x="190" 
d="M140 703h-24l-26 114h31zM80 817l26 -114h-21l-35 114h30z" />
    <glyph glyph-name="quoteright" unicode="&#x2019;" horiz-adv-x="190" 
d="M69 817h31l-26 -114h-24zM140 817l-35 -114h-21l26 114h30z" />
    <glyph glyph-name="quotesinglbase" unicode="&#x201a;" horiz-adv-x="185" 
d="M134 2q0 -18 -8 -32q-7 -12 -21.5 -21.5t-42.5 -9.5v9v10v11q7 -1 13 3q5 3 9 9.5t4 20.5h-38v79h84v-79zM113 49h-34v-10h24v-28q0 -10 -1 -24t-11 -22q-1 0 -1 -1l2 -5l3 3q13 11 15.5 24.5t2.5 24.5v38z" />
    <glyph glyph-name="quotedblleft" unicode="&#x201c;" horiz-adv-x="300" 
d="M140 703h-24l-26 114h31zM80 817l26 -114h-21l-35 114h30zM250 703h-24l-26 114h31zM190 817l26 -114h-21l-35 114h30z" />
    <glyph glyph-name="quotedblright" unicode="&#x201d;" horiz-adv-x="300" 
d="M179 817h31l-26 -114h-24zM250 817l-35 -114h-21l26 114h30zM69 817h31l-26 -114h-24zM140 817l-35 -114h-21l26 114h30z" />
    <glyph glyph-name="quotedblbase" unicode="&#x201e;" horiz-adv-x="285" 
d="M134 2q0 -18 -8 -32q-7 -12 -21.5 -21.5t-42.5 -9.5v9v10v11q7 -1 13 3q5 3 9 9.5t4 20.5h-38v79h84v-79zM113 49h-34v-10h24v-28q0 -10 -1 -24t-11 -22q-1 0 -1 -1l2 -5l3 3q13 11 15.5 24.5t2.5 24.5v38zM234 2q0 -18 -8 -32q-7 -12 -21.5 -21.5t-42.5 -9.5v9v10v11
q7 -1 13 3q5 3 9 9.5t4 20.5h-38v79h84v-79zM213 49h-34v-10h24v-28q0 -10 -1 -24t-11 -22q-1 0 -1 -1l2 -5l3 3q13 11 15.5 24.5t2.5 24.5v38z" />
    <glyph glyph-name="dagger" unicode="&#x2020;" horiz-adv-x="438" 
d="M359 593h-137v189l60 29v-158h106zM80 583h132v-552l-56 -30v525h-106zM222 31v552h137l29 -57h-106v-525zM212 782v-189h-132l-30 60h106v158z" />
    <glyph glyph-name="daggerdbl" unicode="&#x2021;" horiz-adv-x="425" 
d="M80 374h131v-344l-55 -29v316h-106zM220 374h126l29 -57h-93v-316l-62 30v343zM211 782v-189h-131l-30 60h106v158zM211 583v-199h-131l-30 60h106v82h-106l30 57h131zM220 384v199h126l29 -57h-93v-82h93l-29 -60h-126zM346 593h-126v189l62 29v-158h93z" />
    <glyph glyph-name="bullet" unicode="&#x2022;" horiz-adv-x="200" 
d="M99 438q21 0 36 -14t15 -35t-15 -36t-36 -15q-20 0 -34.5 15t-14.5 36t14.5 35t34.5 14zM99 376q13 0 13 13q0 5 -3.5 9t-9.5 4q-5 0 -9 -4t-4 -9q0 -6 4 -9.5t9 -3.5z" />
    <glyph glyph-name="ellipsis" unicode="&#x2026;" horiz-adv-x="482" 
d="M50 1v81h89v-81h-89zM88 53v-20h9v20h-9zM194 1v81h89v-81h-89zM232 53v-20h9v20h-9zM343 1v81h89v-81h-89zM381 53v-20h9v20h-9z" />
    <glyph glyph-name="perthousand" unicode="&#x2030;" horiz-adv-x="1306" 
d="M408 521q0 -41 -14 -77.5t-38.5 -63.5t-57 -42.5t-69.5 -15.5t-69.5 15.5t-57 42.5t-38.5 63.5t-14 77.5v95q0 41 14 77t38.5 63t57 43t69.5 16t69.5 -16t57 -43t38.5 -63t14 -77v-95zM231 380q26 0 49 11t40.5 30t27.5 44.5t10 54.5v105q0 29 -10 54.5t-27.5 44.5
t-40.5 30t-49 11t-49.5 -11t-41 -30t-27.5 -44.5t-10 -54.5v-105q0 -29 10 -54.5t27.5 -44.5t41 -30t49.5 -11zM1077 493q37 0 69.5 -16t57 -43t38.5 -63t14 -77v-97q0 -41 -14 -77t-38.5 -63t-57 -42.5t-69.5 -15.5q-38 0 -70.5 15.5t-57 42.5t-38.5 63t-14 77v97
q0 41 14 77t38.5 63t57 43t70.5 16zM1207 304q0 29 -10 55t-27.5 45t-40.5 30t-49 11q-27 0 -50 -11t-40.5 -30t-27.5 -45t-10 -55v-104q0 -29 10 -55t27.5 -45t40.5 -30t50 -11q26 0 49 11t40.5 30t27.5 45t10 55v104zM702 493q37 0 69.5 -16t56.5 -43t38 -63t14 -77v-97
q0 -41 -14 -77t-38 -63t-56.5 -42.5t-69.5 -15.5t-69.5 15.5t-57 42.5t-38.5 63t-14 77v97q0 41 14 77t38.5 63t57 43t69.5 16zM834 304q0 29 -10 55t-27.5 45t-40.5 30t-49 11t-49.5 -11t-40.5 -30t-27 -45t-10 -55v-104q0 -29 10 -55t27 -45t40.5 -30t49.5 -11t49 11
t40.5 30t27.5 45t10 55v104zM384 2l-41 28l264 752l62 30zM1080 435q24 0 45.5 -10.5t37.5 -28t25.5 -41.5t9.5 -51v-104q0 -27 -9.5 -51t-25.5 -41.5t-37.5 -28t-45.5 -10.5t-45.5 10.5t-37.5 28t-25.5 41.5t-9.5 51v104q0 27 9.5 51t25.5 41.5t37.5 28t45.5 10.5z
M1130 294q0 14 -4.5 27t-12 23t-17 16t-19.5 6q-21 0 -37.5 -21.5t-16.5 -50.5v-97q0 -29 16.5 -50.5t37.5 -21.5q20 0 36.5 21.5t16.5 50.5v97zM707 435q24 0 45.5 -10.5t37.5 -28t25.5 -41.5t9.5 -51v-104q0 -27 -9.5 -51t-25.5 -41.5t-37.5 -28t-45.5 -10.5t-45.5 10.5
t-37.5 28t-25.5 41.5t-9.5 51v104q0 27 9.5 51t25.5 41.5t37.5 28t45.5 10.5zM754 294q0 29 -16 50.5t-36 21.5q-22 0 -37.5 -21.5t-15.5 -50.5v-97q0 -29 15.5 -50.5t37.5 -21.5q20 0 36 21.5t16 50.5v97zM597 784l-263 -753l-61 -29l286 810zM231 756q24 0 45.5 -10.5
t37.5 -28t25.5 -41.5t9.5 -51v-105q0 -27 -9.5 -51t-25.5 -41.5t-37.5 -28t-45.5 -10.5t-45.5 10.5t-37.5 28t-25.5 41.5t-9.5 51v105q0 27 9.5 51t25.5 41.5t37.5 28t45.5 10.5zM282 616q0 29 -15.5 50.5t-37.5 21.5t-37.5 -21.5t-15.5 -50.5v-95q0 -29 15.5 -51t37.5 -22
t37.5 22t15.5 51v95z" />
    <glyph glyph-name="guilsinglleft" unicode="&#x2039;" horiz-adv-x="351" 
d="M238 570l63 -11l-102 -161l102 -168l-65 -7l-108 172l110 175v0zM229 574l-111 -177v-5l110 -174l-35 -53l-143 233l143 229l36 -53v0z" />
    <glyph glyph-name="guilsinglright" unicode="&#x203a;" horiz-adv-x="351" 
d="M113 570l110 -175l-108 -172l-65 7l102 168l-102 161zM122 574l36 53l143 -229l-143 -233l-35 53l110 174v5z" />
    <glyph glyph-name="fraction" unicode="&#x2044;" horiz-adv-x="509" 
d="M389 909l70 28l-284 -810l-52 29zM379 908l-266 -751l-63 -30l286 810z" />
    <glyph glyph-name="Euro" unicode="&#x20ac;" horiz-adv-x="521" 
d="M358 503h-221v138q0 27 10.5 51t28 41.5t41.5 28t51 10.5h8q24 0 45.5 -8.5t38.5 -22.5t28.5 -34t15.5 -42l-60 -28q0 29 -21 50.5t-51 21.5h-9q-30 0 -51 -21.5t-21 -50.5v-76h197zM272 835q41 0 77 -15.5t63 -42.5t43 -63t16 -77l-57 31q-5 24 -17.5 44.5t-31 36
t-41.5 24t-48 8.5h-8q-29 0 -54.5 -11t-44.5 -30t-30 -44.5t-11 -54.5v-138h-48l-30 58h14v76q0 41 15.5 77t42.5 63t63.5 42.5t77.5 15.5h9zM276 51q51 0 88.5 31t48.5 79l58 31q0 -41 -16 -77t-43 -63t-63 -43t-77 -16h-9q-41 0 -77.5 16t-63.5 43t-42.5 63t-15.5 77v77
h-14l30 58h48v-135q0 -29 11 -55t30 -45t44.5 -30t54.5 -11h8zM128 336h-48l-30 60h14v39h-14l30 58h48v-157zM137 336v157h221l30 -58h-197v-39h197l-30 -60h-221zM272 120q30 0 51 21t21 51l59 -33q-11 -42 -46 -70t-81 -28h-8q-27 0 -51 10t-41.5 28t-28 42t-10.5 51v135
h221l30 -58h-197v-77q0 -30 21 -51t51 -21h9z" />
    <glyph glyph-name="trademark" unicode="&#x2122;" horiz-adv-x="493" 
d="M135 501v282h61l14 -29h-47v-272zM338 714l48 103h57v-335l-29 19v287l-9 2l-70 -134l-65 134l-9 -2v-287l-26 -19v335h54h1zM339 643l65 126v-268l-25 -19v183l-26 -54h-30l-25 55v-184l-28 19v267l61 -125h8zM210 817l-13 -24h-131l-16 24h160zM67 783h58v-282l-26 -19
v272h-49z" />
    <glyph glyph-name="minus" unicode="&#x2212;" horiz-adv-x="445" 
d="M395 476l-29 -59h-286l-30 59h345zM50 350l30 58h286l29 -58h-345z" />
    <glyph glyph-name="glyph227" horiz-adv-x="491" 
d="M163 271h165l37 -172l-53 -29l-26 140h-79l-28 -140l-53 29zM247 654l79 -373h-161zM247 414l-16 -78h30zM313 742l128 -672l-66 30l-123 578h-9l-127 -578l-66 -30l132 672h131z" />
    <glyph glyph-name="glyph228" horiz-adv-x="427" 
d="M287 581q0 -21 -7 -40.5t-18.5 -34t-27 -23.5t-32.5 -9h-84v204h85q18 0 33 -7.5t26.5 -21t18 -31t6.5 -37.5zM176 528h27q6 0 16 13.5t10 34.5q0 17 -8 28.5t-17 11.5h-28v-88zM118 465h84h11q19 0 36.5 -8.5t30.5 -22.5t20.5 -32t7.5 -38v-133q0 -20 -7.5 -37
t-20.5 -30t-30.5 -20.5t-36.5 -7.5h-95v329zM176 197h38q14 0 25 12t11 29v122q0 17 -11 28.5t-25 11.5h-38v-203zM356 576q0 -54 -27 -98q22 -23 35 -53t13 -65v-122q0 -35 -13 -65t-35 -53t-52 -36t-63 -13h-164v126h1v203h-1v2v125v1h1v196v19h153q31 0 59 -13t48.5 -36
t32.5 -53.5t12 -64.5zM317 364q0 19 -6.5 37t-18 32t-26.5 24.5t-33 14.5q27 13 45.5 43t18.5 66q0 22 -7.5 41t-20 33.5t-30 23t-36.5 8.5h-94v-5h-1v-208v-9v-329v-4v-5h105q22 0 41 8t33 22.5t22 33.5t8 40v133z" />
    <glyph glyph-name="glyph229" horiz-adv-x="443" 
d="M349 692q32 -32 44 -75l-73 13q-3 5 -7 9.5t-9 9.5q-33 31 -79 31h-7q-24 0 -44.5 -8.5t-35.5 -23t-24 -34t-9 -41.5v-338q0 -22 9 -41.5t24 -34.5t35.5 -23.5t44.5 -8.5h7q29 0 53 12.5t40 34.5l72 10q-19 -51 -63 -82.5t-98 -31.5h-8q-35 0 -66.5 13.5t-54.5 37
t-36.5 54.5t-13.5 67v327q0 36 13.5 67.5t36.5 55t54.5 37t66.5 13.5h8q70 0 120 -50zM298 642q8 -8 14 -17l-40 -43q-2 6 -5 10.5t-7 9.5q-15 13 -31 13h-8q-18 0 -31 -13.5t-13 -32.5v-327q0 -18 13 -31.5t31 -13.5h8q14 0 25.5 8t16.5 22l40 -46q-14 -20 -37 -32t-49 -12
h-7q-21 0 -40 7.5t-33.5 21t-22.5 31.5t-8 38v338q0 20 8 38t22.5 31t33.5 20.5t40 7.5h7q42 0 73 -28z" />
    <glyph glyph-name="glyph230" horiz-adv-x="436" 
d="M118 141v535h102q20 0 38 -7t31.5 -19.5t21 -29.5t7.5 -36v-349q0 -20 -7.5 -37t-20.5 -29.5t-30.5 -20t-37.5 -7.5h-104zM177 197h46q15 0 26 12t11 29v338q0 16 -11.5 27t-27.5 11h-44v-417zM221 741q34 0 64 -13t52.5 -35.5t35.5 -52.5t13 -64v-338q0 -35 -13 -65.5
t-35 -53.5t-51.5 -36t-63.5 -13h-46h-127v671h127h44zM327 584q0 21 -8.5 39.5t-23 32t-34 21.5t-41.5 8h-102h-10v-554h10h104q22 0 41 8t33 22.5t22.5 33.5t8.5 40v349z" />
    <glyph glyph-name="glyph231" horiz-adv-x="381" 
d="M108 683v-562h194l29 -50h-281v670h281l-29 -58h-194zM118 131v239h97l29 -57h-67v-116h154l-29 -66h-184zM118 380v293h184l29 -59h-154v-174h67l-29 -60h-97z" />
    <glyph glyph-name="glyph232" horiz-adv-x="380" 
d="M118 379v299h183l29 -63h-153v-177h66l-29 -59h-96zM301 687h-193v-616h-58v671h280zM118 71v298h96l29 -58h-66v-240h-59z" />
    <glyph glyph-name="glyph233" horiz-adv-x="449" 
d="M210 442h189v-199q0 -36 -13.5 -67.5t-36.5 -55t-54 -37t-67 -13.5h-7q-35 0 -66.5 13.5t-54.5 37t-36.5 55t-13.5 67.5v327q0 36 13.5 67t36.5 54.5t54.5 37t66.5 13.5h7q35 0 65.5 -13t55.5 -37q15 -16 26.5 -35t17.5 -40l-69 14q-4 5 -8 10.5t-9 10.5q-34 31 -79 31
h-8q-23 0 -43.5 -8.5t-35.5 -23.5t-24 -35t-9 -42v-342q0 -23 9 -42.5t24 -34t35.5 -23t43.5 -8.5h8q23 0 43.5 8.5t35.5 23t24 34t9 42.5v150h-100zM228 673q42 0 72 -28q8 -8 14 -17l-43 -46q-3 13 -12 20q-12 13 -31 13h-7q-18 0 -31 -13t-13 -32v-327q0 -20 13 -33
t31 -13h7q19 0 32 13t13 33v73h-63l30 57h91v-141q0 -21 -8 -39t-22 -31.5t-33 -21t-40 -7.5h-8q-21 0 -39.5 7.5t-32.5 21t-22 31.5t-8 39v342q0 21 8 39t22 31.5t32.5 21t39.5 7.5h8z" />
    <glyph glyph-name="glyph234" horiz-adv-x="441" 
d="M322 380h-204v332l59 30v-301h87v301l58 -29v-333zM332 99v613l59 30v-672zM50 742l58 -29v-614l-58 -29v672zM118 371h204v-272l-58 -29v244h-87v-244l-59 29v272z" />
    <glyph glyph-name="glyph235" 
d="M50 742l58 -30v-613l-58 -29v672zM118 99v614l59 29v-672z" />
    <glyph glyph-name="glyph236" horiz-adv-x="449" 
d="M340 713l59 29v-467q0 -42 -13.5 -79.5t-37.5 -65.5t-55.5 -44t-67.5 -16t-68 15t-56 40.5t-37.5 60.5t-13.5 74v126l58 -30v-97q0 -28 9 -53t25 -43.5t37 -29t45 -10.5t45 11.5t37 31.5t25 46t9 56v445zM224 133q-22 0 -41.5 10t-33.5 27t-22.5 40t-8.5 49v97l59 30
v-126q0 -26 14 -44.5t34 -18.5q17 0 32 22.5t15 55.5v467l58 -29v-445q0 -28 -8.5 -52.5t-22.5 -43t-33.5 -29t-41.5 -10.5z" />
    <glyph glyph-name="glyph237" horiz-adv-x="512" 
d="M118 324l94 144l133 -368l-48 -30l-97 268l-23 -36v-232l-59 29v225zM360 712l-242 -370v369l59 29v-205l134 207zM50 740l58 -30v-611l-58 -29v202v67v401zM373 713l89 29l-175 -270l144 -402l-75 29l-137 377l-2 -1z" />
    <glyph glyph-name="glyph238" horiz-adv-x="381" 
d="M301 140h-183v572l59 30v-545h154zM108 712v-582h193l30 -60h-281v672z" />
    <glyph glyph-name="glyph239" horiz-adv-x="514" 
d="M259 292l137 379v-572l-58 -29v275l-15 -46l-17 -50h-100l-17 50l-12 39v-79v-1v-188l-59 29v566l133 -370l1 -3h7zM333 742h5h126v-6v-666l-59 29v597h-11l-138 -385l-139 385h-9v-597l-58 -29v659v13h127h2l77 -238z" />
    <glyph glyph-name="glyph240" horiz-adv-x="474" 
d="M118 681l-9 -2v-580l-58 -29v669l-1 3h1h127h7l112 -306v306l58 -29v-534zM365 156v556l59 30v-652v-11v-9h-25h-102h-1l-118 324v-324l-59 29v558l236 -501l1 -1l1 1h8z" />
    <glyph glyph-name="glyph241" horiz-adv-x="451" 
d="M226 70q-36 0 -68 15.5t-56 42.5t-38 63.5t-14 77.5v274q0 41 14 77.5t38 63.5t56 42.5t68 15.5t68 -15.5t55.5 -42.5t37.5 -63.5t14 -77.5v-274q0 -41 -14 -77.5t-37.5 -63.5t-55.5 -42.5t-68 -15.5zM112 259q0 -29 9 -54t25 -43.5t37 -29.5t45 -11t45.5 11t37 29.5
t25 43.5t9.5 54v289q0 28 -9.5 53.5t-25 44t-37 29.5t-45.5 11t-45 -11t-37 -29.5t-25 -44t-9 -53.5v-289zM228 131q-22 0 -41.5 10t-34 27.5t-23 40.5t-8.5 50v289q0 27 8.5 50t23 40.5t34 27.5t41.5 10t41.5 -10t34 -27.5t23 -40.5t8.5 -50v-289q0 -27 -8.5 -50t-23 -40.5
t-34 -27.5t-41.5 -10zM177 269q0 -32 16 -52.5t33 -20.5t32.5 20.5t15.5 52.5v274q0 32 -15.5 52t-32.5 20t-33 -20t-16 -52v-274z" />
    <glyph glyph-name="glyph242" horiz-adv-x="441" 
d="M326 447q0 -20 -7.5 -37.5t-21 -30.5t-31.5 -20.5t-38 -7.5h-107v326h107q20 0 38 -7.5t31.5 -20.5t21 -30.5t7.5 -37.5v-134zM226 417q16 0 27.5 11.5t11.5 27.5v121q0 16 -11.5 27.5t-27.5 11.5h-49v-199h49zM226 742q34 0 64 -13t52.5 -35.5t35.5 -52.5t13 -64v-121
q0 -34 -13 -64.5t-35.5 -53t-52.5 -35.5t-64 -13h-49v-220l-56 29v243h107q22 0 41.5 8t34 22.5t23 33.5t8.5 41v134q0 22 -8.5 41t-23 33.5t-34 23t-41.5 8.5h-107h-10v-10v-326v-9v-243l-61 -29v220v127v199v126h127h49z" />
    <glyph glyph-name="glyph243" horiz-adv-x="479" 
d="M364 274q0 -32 -13.5 -59t-36.5 -45l-47 57l22 62l11 -14v267q0 30 -18 51.5t-43 21.5q-26 0 -44 -21.5t-18 -51.5v-272q0 -25 12.5 -44t32.5 -26l-17 22l52 3l50 -60q-31 -22 -69 -22q-26 0 -48.5 10.5t-39.5 28t-27 41.5t-10 51v260q0 27 10 51t27 41.5t39.5 28
t48.5 10.5t49 -10.5t40 -28t27 -41.5t10 -51v-260zM429 112l-60 -8l-49 59q24 20 38.5 48.5t14.5 62.5v260q0 29 -10.5 54.5t-29 44.5t-43 30t-52.5 11t-52.5 -11t-43 -30t-29 -44.5t-10.5 -54.5v-260q0 -29 10.5 -54.5t29 -44.5t43 -30t52.5 -11q41 0 75 23l46 -56l-15 -56
l-32 41q-35 -15 -73 -15q-39 0 -73.5 15.5t-60 42.5t-40.5 63.5t-15 77.5v272q0 41 15 77.5t40.5 63.5t60 42.5t73.5 15.5t73 -15.5t59.5 -42.5t40.5 -63.5t15 -77.5v-272q0 -64 -34 -113z" />
    <glyph glyph-name="glyph244" horiz-adv-x="441" 
d="M220 332q21 0 39.5 -10t32.5 -28t22 -41.5t8 -50.5v-103l-58 -29v138q0 32 -16 52t-34 20h-37v-210l-59 30v232h102zM320 440q0 -20 -7.5 -38t-20.5 -31.5t-30.5 -21.5t-37.5 -8h-106v335h106q20 0 37.5 -8t30.5 -21.5t20.5 -31.5t7.5 -38v-137zM177 407h48q15 0 26 12.5
t11 29.5v124q0 17 -11 29t-26 12h-48v-207zM389 449q0 -32 -11 -60.5t-30 -50.5q20 -26 31.5 -59.5t11.5 -70.5v-138l-59 30v102q0 48 -23 84.5t-58 49.5q34 9 56.5 37.5t22.5 66.5v137q0 22 -8.5 42t-23 34.5t-33.5 23t-41 8.5h-116v-1v-8v-335v-9v-233l-58 -29v210v127
v207v126v1h175q34 0 63.5 -13t52 -36t35.5 -53.5t13 -65.5v-124z" />
    <glyph glyph-name="glyph245" horiz-adv-x="451" 
d="M226 142q-35 0 -62 19t-38 48l53 28q0 -17 13.5 -29t33.5 -12q17 0 26.5 4t14 10t5.5 12.5t1 11.5q1 36 -23 63.5t-66 63.5q-23 19 -46.5 40.5t-43 48.5t-31.5 59.5t-12 73.5q0 33 14 62t37.5 50.5t55.5 34t68 12.5t67.5 -13t55.5 -36t37.5 -53.5t13.5 -64.5l-63 29
q-9 35 -39.5 59t-71.5 24q-24 0 -45.5 -8t-37 -21.5t-25 -32.5t-9.5 -40q0 -30 9.5 -55t25.5 -46t36 -39t41 -36q22 -18 42 -36t35.5 -38.5t24.5 -44.5t8 -54q-1 -45 -29 -69.5t-76 -24.5zM266 458q23 -20 47 -42t44 -49.5t32 -61t11 -75.5q-1 -36 -14 -65.5t-36 -50.5
t-54.5 -32.5t-69.5 -11.5q-36 0 -67.5 13t-55.5 36t-37.5 53t-13.5 65l64 -31q12 -32 42 -53t68 -21q53 0 83 27.5t32 76.5q1 31 -9 56.5t-26 47t-36.5 40t-41.5 36.5t-41 36t-35 38t-24 43t-9 52q0 39 31 65.5t76 26.5q36 0 64.5 -20.5t37.5 -52.5l-55 -29q0 17 -13.5 29
t-33.5 12t-34 -10.5t-14 -24.5q0 -17 6 -32t17 -29.5t27.5 -29.5t37.5 -32z" />
    <glyph glyph-name="glyph246" horiz-adv-x="420" 
d="M50 742h320l-29 -55h-262zM215 99v578h125l30 -62h-96v-545zM80 677h125v-578l-58 -29v545h-97z" />
    <glyph glyph-name="glyph247" horiz-adv-x="456" 
d="M227 136q-23 0 -42.5 10.5t-34.5 28t-23.5 41.5t-8.5 51v445l59 30v-473q0 -29 15.5 -50.5t35.5 -21.5t35.5 21.5t15.5 50.5v473l58 -30v-445q0 -27 -8.5 -51t-23.5 -41.5t-35 -28t-43 -10.5zM347 712l59 30v-473q0 -41 -14 -77.5t-38 -63.5t-56.5 -42.5t-69.5 -15.5
t-69.5 15.5t-56.5 42.5t-38 63.5t-14 77.5v473l58 -30v-445q0 -29 9.5 -55t25.5 -45t38 -30t46 -11q25 0 46.5 11t38 30t26 45t9.5 55v445z" />
    <glyph glyph-name="glyph248" horiz-adv-x="470" 
d="M240 120l114 593l66 29l-120 -624l-10 -48h-110l-9 48l-121 624l66 -29l114 -593h10zM344 712l-109 -566l-110 566l54 30l56 -290l56 290z" />
    <glyph glyph-name="glyph249" horiz-adv-x="661" 
d="M429 135l113 577l69 30l-121 -624l-9 -48h-110l-10 49l-30 164l-31 -164l-9 -49h-111l-9 48l-121 624l66 -30l113 -577l-1 -5h2v-2l4 1l3 -1l1 2h2l-1 5l90 445l91 -445l-1 -5h2v-2l4 1l3 -1v2h2zM324 605l-90 -446l-108 553l53 30l55 -286l32 170l9 48h111l9 -48
l32 -170l55 286l51 -29l-109 -554l-90 446l-5 -1z" />
    <glyph glyph-name="glyph250" horiz-adv-x="490" 
d="M370 713l70 29l-128 -359l112 -313l-73 29l-101 280zM360 712l-115 -319l-114 319l54 30l60 -170l61 170zM120 713l120 -334l-100 -280l-74 -29l112 313l-128 359zM150 100l95 265l95 -265l-50 -30l-45 125l-44 -125z" />
    <glyph glyph-name="glyph251" horiz-adv-x="481" 
d="M120 712l117 -373v-240l-58 -29v262l-129 410zM352 713l-110 -357l-113 357l54 29l58 -186l57 186zM247 340l115 372l69 30l-125 -409v-263l-59 29v241z" />
    <glyph glyph-name="glyph252" horiz-adv-x="494" 
d="M341 674l-201 -551h242l29 -53h-225h-98h-38l38 98l10 28l162 420h-172l29 58h224zM395 742h49l-210 -546h177l-29 -63h-229l202 551h-238l-29 58h221h86z" />
    </font>
</defs>
</svg>
